Fraunces72ptSharp-Black.ufo
<glyph name="exclam" format="2">
  <advance width="653.6"/>
  <unicode hex="0021"/>
  <outline>
    <contour>
      <point x="330.06666666666666" y="1492.9333333333332" type="curve" smooth="yes"/>
      <point x="162.6" y="1492.9333333333332"/>
      <point x="80.66666666666667" y="1411.3546511627908"/>
      <point x="80.66666666666667" y="1291.8000000000002" type="curve" smooth="yes"/>
      <point x="80.66666666666667" y="1248.7220930232556"/>
      <point x="85.40596580721676" y="1206.6005728386692"/>
      <point x="103.6" y="1141.4666666666665" type="curve" smooth="yes"/>
      <point x="273.8666666666667" y="534.8666666666667" type="line" smooth="yes"/>
      <point x="284.4" y="496.8666666666667"/>
      <point x="296.6" y="479.4666666666667"/>
      <point x="324.0" y="479.4666666666667" type="curve" smooth="yes"/>
      <point x="351.8666666666667" y="479.4666666666667"/>
      <point x="364.06666666666666" y="496.8666666666667"/>
      <point x="374.6" y="534.8666666666667" type="curve" smooth="yes"/>
      <point x="549.5333333333333" y="1138.6666666666665" type="line" smooth="yes"/>
      <point x="565.1577287781038" y="1193.4225857708293"/>
      <point x="572.9333333333334" y="1249.0666666666666"/>
      <point x="572.9333333333334" y="1291.3333333333335" type="curve" smooth="yes"/>
      <point x="572.9333333333334" y="1411.2"/>
      <point x="497.06666666666666" y="1492.9333333333332"/>
    </contour>
    <component base="period" xOffset="27.733333333333334"/>
  </outline>
</glyph>
<glyph name="numbersign" format="2">
  <advance width="1304.8666666666666"/>
  <unicode hex="0023"/>
  <outline>
    <contour>
      <point x="496.8666666666666" y="689.8" type="curve" smooth="yes"/>
      <point x="538.4" y="839.2666666666667"/>
      <point x="640.8" y="1184.8"/>
      <point x="686.0" y="1347.0" type="curve" smooth="yes"/>
      <point x="694.3333333333334" y="1377.0666666666666"/>
      <point x="683.4666666666667" y="1399.2666666666667"/>
      <point x="651.8" y="1407.5333333333333" type="curve" smooth="yes"/>
      <point x="620.1999999999999" y="1415.2666666666667"/>
      <point x="599.0" y="1401.3333333333333"/>
      <point x="589.6666666666666" y="1371.8" type="curve" smooth="yes"/>
      <point x="550.3333333333334" y="1226.5333333333333"/>
      <point x="475.1333333333334" y="861.7333333333333"/>
      <point x="431.6" y="705.9333333333333" type="curve" smooth="yes"/>
      <point x="388.59999999999997" y="549.0666666666666"/>
      <point x="271.53333333333336" y="201.2"/>
      <point x="230.6" y="55.33333333333333" type="curve" smooth="yes"/>
      <point x="222.33333333333334" y="24.799999999999997"/>
      <point x="233.2" y="3.6"/>
      <point x="264.33333333333337" y="-5.199999999999999" type="curve" smooth="yes"/>
      <point x="295.93333333333334" y="-12.933333333333335"/>
      <point x="317.1333333333333" y="0.5333333333333334"/>
      <point x="326.4666666666667" y="31.066666666666663" type="curve" smooth="yes"/>
      <point x="371.2" y="193.86666666666667"/>
      <point x="455.8" y="540.2666666666667"/>
    </contour>
    <contour>
      <point x="689.2" y="967.0666666666667" type="curve" smooth="yes"/>
      <point x="556.3333333333333" y="966.0"/>
      <point x="280.06666666666666" y="986.6666666666667"/>
      <point x="158.73333333333335" y="986.1333333333334" type="curve" smooth="yes"/>
      <point x="124.53333333333332" y="985.6000000000001"/>
      <point x="103.86666666666667" y="970.1333333333333"/>
      <point x="103.86666666666667" y="939.0666666666666" type="curve" smooth="yes"/>
      <point x="104.4" y="909.0666666666667"/>
      <point x="124.53333333333332" y="892.5333333333334"/>
      <point x="158.73333333333335" y="893.0666666666666" type="curve" smooth="yes"/>
      <point x="292.53333333333336" y="892.5333333333334"/>
      <point x="562.6666666666666" y="903.4666666666667"/>
      <point x="688.6666666666666" y="904.5333333333334" type="curve" smooth="yes"/>
      <point x="814.6" y="904.5333333333334"/>
      <point x="1079.4666666666667" y="890.4"/>
      <point x="1211.6666666666667" y="889.8666666666666" type="curve" smooth="yes"/>
      <point x="1245.4" y="890.4"/>
      <point x="1265.5333333333333" y="906.9333333333334"/>
      <point x="1266.6" y="937.4666666666666" type="curve" smooth="yes"/>
      <point x="1265.5333333333333" y="967.4666666666667"/>
      <point x="1244.8666666666668" y="983.4666666666668"/>
      <point x="1212.2" y="983.4666666666668" type="curve" smooth="yes"/>
      <point x="1092.4666666666667" y="982.4000000000001"/>
      <point x="819.4666666666667" y="967.0666666666667"/>
    </contour>
    <contour>
      <point x="622.6" y="459.26666666666665" type="curve" smooth="yes"/>
      <point x="747.5333333333333" y="459.26666666666665"/>
      <point x="1012.8666666666666" y="445.6666666666667"/>
      <point x="1145.6" y="444.6" type="curve" smooth="yes"/>
      <point x="1179.3333333333333" y="445.6666666666667"/>
      <point x="1199.9333333333332" y="461.6666666666667"/>
      <point x="1201.0" y="492.2" type="curve" smooth="yes"/>
      <point x="1199.9333333333332" y="522.2"/>
      <point x="1178.8" y="538.2"/>
      <point x="1146.1333333333332" y="538.2" type="curve" smooth="yes"/>
      <point x="1026.8666666666666" y="537.1333333333333"/>
      <point x="753.8666666666666" y="521.8000000000001"/>
      <point x="623.1333333333333" y="521.8000000000001" type="curve" smooth="yes"/>
      <point x="490.73333333333335" y="521.2666666666668"/>
      <point x="213.46666666666667" y="541.4"/>
      <point x="93.13333333333333" y="540.8666666666667" type="curve" smooth="yes"/>
      <point x="58.93333333333333" y="540.8666666666667"/>
      <point x="38.266666666666666" y="525.4000000000001"/>
      <point x="38.266666666666666" y="494.3333333333333" type="curve" smooth="yes"/>
      <point x="38.8" y="464.3333333333333"/>
      <point x="58.93333333333333" y="447.8"/>
      <point x="93.13333333333333" y="447.8" type="curve" smooth="yes"/>
      <point x="226.0" y="447.8"/>
      <point x="496.6" y="458.73333333333335"/>
    </contour>
    <contour>
      <point x="710.3333333333333" y="31.066666666666663" type="curve" smooth="yes"/>
      <point x="755.0666666666666" y="193.4"/>
      <point x="839.6666666666667" y="540.2666666666667"/>
      <point x="880.7333333333332" y="689.8" type="curve" smooth="yes"/>
      <point x="921.8" y="838.2666666666667"/>
      <point x="1024.6666666666667" y="1185.2666666666667"/>
      <point x="1068.8666666666668" y="1346.0" type="curve" smooth="yes"/>
      <point x="1078.2" y="1376.0666666666666"/>
      <point x="1067.3333333333335" y="1399.2666666666667"/>
      <point x="1035.6666666666665" y="1407.5333333333333" type="curve" smooth="yes"/>
      <point x="1004.0666666666667" y="1415.2666666666667"/>
      <point x="982.8666666666667" y="1400.8666666666666"/>
      <point x="974.0666666666666" y="1370.8" type="curve" smooth="yes"/>
      <point x="934.2" y="1227.0"/>
      <point x="859.5333333333333" y="862.7333333333333"/>
      <point x="816.0" y="705.9333333333333" type="curve" smooth="yes"/>
      <point x="772.4666666666667" y="548.6"/>
      <point x="655.4" y="200.73333333333332"/>
      <point x="614.4666666666667" y="55.33333333333333" type="curve" smooth="yes"/>
      <point x="606.2" y="25.266666666666666"/>
      <point x="617.0666666666667" y="3.6"/>
      <point x="648.6666666666666" y="-5.199999999999999" type="curve" smooth="yes"/>
      <point x="679.8" y="-12.933333333333335"/>
      <point x="701.0" y="1.0"/>
    </contour>
  </outline>
</glyph>
<glyph name="dollar" format="2">
  <advance width="1203.7333333333331"/>
  <unicode hex="0024"/>
  <outline>
    <contour>
      <point x="635.1999999999999" y="1394.0" type="curve" smooth="yes"/>
      <point x="283.66666666666663" y="1394.0"/>
      <point x="72.06666666666666" y="1208.3999999999999"/>
      <point x="72.06666666666666" y="973.6666666666666" type="curve" smooth="yes"/>
      <point x="72.06666666666666" y="770.1999999999999"/>
      <point x="186.73333333333332" y="636.8666666666667"/>
      <point x="513.6" y="523.0" type="curve" smooth="yes"/>
      <point x="725.1999999999999" y="450.46666666666664"/>
      <point x="793.6" y="366.8"/>
      <point x="793.6" y="240.53333333333336" type="curve" smooth="yes"/>
      <point x="793.6" y="129.13333333333333"/>
      <point x="718.0666666666667" y="53.73333333333334"/>
      <point x="594.4" y="53.73333333333334" type="curve" smooth="yes"/>
      <point x="474.06666666666666" y="53.73333333333334"/>
      <point x="400.4" y="121.06666666666666"/>
      <point x="400.4" y="221.06666666666666" type="curve" smooth="yes"/>
      <point x="400.4" y="320.0" type="line" smooth="yes"/>
      <point x="400.4" y="432.0"/>
      <point x="318.4" y="505.0"/>
      <point x="219.4" y="505.0" type="curve" smooth="yes"/>
      <point x="107.93333333333334" y="505.0"/>
      <point x="40.400000000000006" y="430.0"/>
      <point x="40.400000000000006" y="325.0" type="curve" smooth="yes"/>
      <point x="40.400000000000006" y="147.53333333333333"/>
      <point x="222.73333333333332" y="3.9999999999999996"/>
      <point x="592.7333333333333" y="3.9999999999999996" type="curve" smooth="yes"/>
      <point x="948.8666666666667" y="3.9999999999999996"/>
      <point x="1165.5333333333333" y="170.79999999999998"/>
      <point x="1165.5333333333333" y="423.8" type="curve" smooth="yes"/>
      <point x="1165.5333333333333" y="617.6"/>
      <point x="1055.8" y="762.2666666666667"/>
      <point x="718.3333333333334" y="876.6666666666667" type="curve" smooth="yes"/>
      <point x="506.1333333333333" y="948.0"/>
      <point x="434.40000000000003" y="1029.2666666666667"/>
      <point x="434.40000000000003" y="1154.6666666666667" type="curve" smooth="yes"/>
      <point x="434.40000000000003" y="1283.2"/>
      <point x="514.0" y="1345.9333333333332"/>
      <point x="627.2" y="1345.9333333333332" type="curve" smooth="yes"/>
      <point x="734.4" y="1345.9333333333332"/>
      <point x="799.4" y="1269.7333333333333"/>
      <point x="799.4" y="1146.0" type="curve" smooth="yes"/>
      <point x="799.4" y="1049.0" type="line" smooth="yes"/>
      <point x="799.4" y="945.0"/>
      <point x="875.0666666666667" y="874.0"/>
      <point x="994.6666666666666" y="874.0" type="curve" smooth="yes"/>
      <point x="1104.7333333333333" y="874.0"/>
      <point x="1161.4" y="958.0"/>
      <point x="1161.4" y="1057.2" type="curve" smooth="yes"/>
      <point x="1161.4" y="1254.6666666666665"/>
      <point x="971.7333333333333" y="1394.0"/>
    </contour>
    <contour>
      <point x="653.2666666666667" y="752.6" type="line"/>
      <point x="653.7333333333332" y="1051.0666666666666"/>
      <point x="680.8666666666667" y="1376.2"/>
      <point x="680.8666666666667" y="1547.4666666666667" type="curve" smooth="yes"/>
      <point x="680.8666666666667" y="1586.8666666666666"/>
      <point x="658.4666666666667" y="1608.0"/>
      <point x="628.4666666666666" y="1608.0" type="curve" smooth="yes"/>
      <point x="596.3333333333334" y="1608.0"/>
      <point x="576.0666666666667" y="1586.3333333333333"/>
      <point x="576.0666666666667" y="1548.5333333333333" type="curve" smooth="yes"/>
      <point x="576.0666666666667" y="1353.3999999999999"/>
      <point x="604.6666666666666" y="1041.8666666666666"/>
      <point x="604.6" y="752.6" type="curve"/>
    </contour>
    <contour>
      <point x="573.7333333333333" y="679.4" type="line"/>
      <point x="572.7333333333333" y="390.1333333333333"/>
      <point x="544.6666666666666" y="78.60000000000001"/>
      <point x="544.6666666666666" y="-115.46666666666667" type="curve" smooth="yes"/>
      <point x="544.6666666666666" y="-154.86666666666667"/>
      <point x="566.5333333333334" y="-176.0"/>
      <point x="597.0666666666667" y="-176.0" type="curve" smooth="yes"/>
      <point x="629.1999999999999" y="-176.0"/>
      <point x="649.4666666666666" y="-154.33333333333334"/>
      <point x="649.4666666666666" y="-116.53333333333333" type="curve" smooth="yes"/>
      <point x="649.4666666666666" y="56.266666666666666"/>
      <point x="621.8" y="381.4666666666666"/>
      <point x="621.8666666666667" y="679.4" type="curve"/>
    </contour>
  </outline>
</glyph>
<glyph name="ampersand" format="2">
  <advance width="1973.2666666666667"/>
  <unicode hex="0026"/>
  <outline>
    <contour>
      <point x="1316.2" y="-36.93333333333333" type="curve" smooth="yes"/>
      <point x="1072.2853628536286" y="-36.93333333333333"/>
      <point x="882.1333333333333" y="38.4"/>
      <point x="750.4" y="237.46666666666667" type="curve" smooth="yes"/>
      <point x="612.3234016410827" y="443.98605589450216"/>
      <point x="557.1333333333333" y="637.8"/>
      <point x="557.1333333333333" y="823.2666666666667" type="curve" smooth="yes"/>
      <point x="557.1333333333333" y="1089.5333333333333"/>
      <point x="728.2088495575222" y="1284.2"/>
      <point x="1016.8666666666668" y="1284.2" type="curve" smooth="yes"/>
      <point x="1230.1327913279135" y="1284.2"/>
      <point x="1377.2666666666667" y="1158.4666666666667"/>
      <point x="1377.2666666666667" y="984.1333333333333" type="curve" smooth="yes"/>
      <point x="1377.2666666666667" y="792.1550939663699"/>
      <point x="1201.0666666666666" y="667.4"/>
      <point x="915.4000000000001" y="667.4" type="curve"/>
      <point x="905.4666666666667" y="707.5333333333333" type="line"/>
      <point x="986.8666666666667" y="707.5333333333333"/>
      <point x="1050.2666666666667" y="823.2021052631578"/>
      <point x="1050.2666666666667" y="1011.6" type="curve" smooth="yes"/>
      <point x="1050.2666666666667" y="1132.3333333333335"/>
      <point x="1033.4666666666667" y="1216.9333333333334"/>
      <point x="994.1333333333334" y="1216.9333333333334" type="curve" smooth="yes"/>
      <point x="947.1333333333333" y="1216.9333333333334"/>
      <point x="908.8666666666667" y="1128.0"/>
      <point x="908.8666666666667" y="1011.1333333333332" type="curve" smooth="yes"/>
      <point x="908.8666666666667" y="801.2666666666667"/>
      <point x="971.6732479528146" y="645.3690148402924"/>
      <point x="1110.6666666666665" y="444.4" type="curve" smooth="yes"/>
      <point x="1286.6188362982527" y="188.11194611677837"/>
      <point x="1376.6298157453937" y="108.4"/>
      <point x="1522.0" y="108.4" type="curve" smooth="yes"/>
      <point x="1701.191452991453" y="108.4"/>
      <point x="1834.9333333333334" y="243.9333333333333"/>
      <point x="1834.9333333333334" y="535.3333333333334" type="curve" smooth="yes"/>
      <point x="1834.9333333333334" y="755.0559643255295"/>
      <point x="1739.7333333333333" y="989.2666666666667"/>
      <point x="1564.3333333333333" y="1169.6000000000001" type="curve" smooth="yes"/>
      <point x="1392.66389074199" y="1348.1499811280548"/>
      <point x="1138.4" y="1467.2"/>
      <point x="855.8000000000001" y="1467.2" type="curve" smooth="yes"/>
      <point x="535.0666666666667" y="1467.2"/>
      <point x="400.53333333333336" y="1363.4666666666667"/>
      <point x="400.53333333333336" y="1209.0" type="curve" smooth="yes"/>
      <point x="400.53333333333336" y="1093.6"/>
      <point x="452.6" y="1035.3333333333333"/>
      <point x="452.6" y="914.1333333333333" type="curve" smooth="yes"/>
      <point x="452.6" y="813.8666666666667"/>
      <point x="380.3333333333333" y="742.8000000000001"/>
      <point x="279.33333333333337" y="742.8000000000001" type="curve" smooth="yes"/>
      <point x="158.06666666666666" y="742.8000000000001"/>
      <point x="86.93333333333334" y="834.1999999999999"/>
      <point x="86.93333333333334" y="981.6666666666666" type="curve" smooth="yes"/>
      <point x="86.93333333333334" y="1305.8666666666666"/>
      <point x="360.8" y="1532.8666666666666"/>
      <point x="862.8666666666667" y="1532.8666666666666" type="curve" smooth="yes"/>
      <point x="1161.2141008478357" y="1532.8666666666666"/>
      <point x="1434.3333333333335" y="1409.7333333333333"/>
      <point x="1620.7333333333331" y="1218.7333333333331" type="curve" smooth="yes"/>
      <point x="1805.8666666666666" y="1030.8666666666668"/>
      <point x="1911.1999999999998" y="785.4355167394468"/>
      <point x="1911.1999999999998" y="534.2666666666667" type="curve" smooth="yes"/>
      <point x="1911.1999999999998" y="166.0"/>
      <point x="1697.2126582278481" y="-36.93333333333333"/>
    </contour>
    <contour>
      <point x="1237.2666666666667" y="229.73333333333332" type="line"/>
      <point x="1319.5219445265366" y="271.4774100990381"/>
      <point x="1352.0666666666668" y="363.1358024691358"/>
      <point x="1352.0666666666668" y="425.0" type="curve" smooth="yes"/>
      <point x="1352.0666666666668" y="521.4662813102119"/>
      <point x="1321.4666666666667" y="559.6502923976609"/>
      <point x="1321.4666666666667" y="633.6666666666667" type="curve" smooth="yes"/>
      <point x="1321.4666666666667" y="726.8891344383056"/>
      <point x="1395.9333333333332" y="808.9333333333334"/>
      <point x="1501.3999999999999" y="808.9333333333334" type="curve" smooth="yes"/>
      <point x="1600.9333333333334" y="808.9333333333334"/>
      <point x="1669.9333333333334" y="732.9333333333334"/>
      <point x="1669.9333333333334" y="600.8000000000001" type="curve" smooth="yes"/>
      <point x="1669.9333333333334" y="422.53333333333336"/>
      <point x="1532.6014694008004" y="264.9176092257243"/>
      <point x="1256.2" y="189.4" type="curve"/>
    </contour>
    <contour>
      <point x="614.0" y="633.7333333333332" type="line"/>
      <point x="545.8666666666667" y="633.7333333333333"/>
      <point x="499.2" y="537.4657534246575"/>
      <point x="499.2" y="402.73333333333335" type="curve" smooth="yes"/>
      <point x="499.2" y="234.44077134986225"/>
      <point x="581.0" y="129.33333333333331"/>
      <point x="712.4" y="129.33333333333331" type="curve" smooth="yes"/>
      <point x="766.6666666666667" y="129.33333333333331"/>
      <point x="809.0" y="144.13333333333333"/>
      <point x="846.3333333333333" y="177.46666666666667" type="curve"/>
      <point x="879.8666666666667" y="118.66666666666667" type="line"/>
      <point x="801.1333333333333" y="34.733333333333334"/>
      <point x="683.4666666666667" y="-25.2"/>
      <point x="466.1333333333333" y="-25.2" type="curve" smooth="yes"/>
      <point x="211.86666666666667" y="-25.2"/>
      <point x="67.73333333333332" y="100.30542635658914"/>
      <point x="67.73333333333332" y="314.73333333333335" type="curve" smooth="yes"/>
      <point x="67.73333333333332" y="542.1333333333333"/>
      <point x="269.85506736965436" y="683.0"/>
      <point x="613.0666666666666" y="683.0" type="curve"/>
    </contour>
  </outline>
</glyph>
<glyph name="quotesingle" format="2">
  <advance width="422.2666666666667"/>
  <unicode hex="0027"/>
  <outline>
    <contour>
      <point x="200.66666666666666" y="794.0" type="curve" smooth="yes"/>
      <point x="231.59999999999997" y="794.0"/>
      <point x="252.06666666666666" y="810.7333333333333"/>
      <point x="261.33333333333337" y="850.6666666666666" type="curve" smooth="yes"/>
      <point x="380.33333333333337" y="1335.0" type="line" smooth="yes"/>
      <point x="418.67971109843666" y="1494.793665874733"/>
      <point x="362.60801457194907" y="1596.3333333333333"/>
      <point x="213.66666666666666" y="1596.3333333333333" type="curve" smooth="yes"/>
      <point x="65.61818181818181" y="1596.3333333333333"/>
      <point x="4.459870374446598" y="1501.6049776212492"/>
      <point x="40.0" y="1334.0" type="curve" smooth="yes"/>
      <point x="145.33333333333334" y="851.7333333333333" type="line" smooth="yes"/>
      <point x="153.06666666666666" y="814.3333333333334"/>
      <point x="174.53333333333333" y="794.0"/>
    </contour>
  </outline>
</glyph>
<glyph name="parenleft" format="2">
  <advance width="740.0"/>
  <unicode hex="0028"/>
  <outline>
    <contour>
      <point x="136.0" y="610.4" type="curve" smooth="yes"/>
      <point x="136.0" y="198.93333333333334"/>
      <point x="349.4666666666667" y="-109.06666666666666"/>
      <point x="635.0666666666666" y="-227.93333333333334" type="curve" smooth="yes"/>
      <point x="681.8000000000001" y="-245.73333333333335"/>
      <point x="706.4" y="-249.9333333333333"/>
      <point x="717.8000000000001" y="-236.33333333333331" type="curve" smooth="yes"/>
      <point x="728.2666666666667" y="-223.2"/>
      <point x="722.0666666666667" y="-207.06666666666666"/>
      <point x="688.4" y="-161.86666666666667" type="curve" smooth="yes"/>
      <point x="560.4" y="12.0"/>
      <point x="465.2" y="284.93333333333334"/>
      <point x="465.2" y="610.4" type="curve" smooth="yes"/>
      <point x="465.2" y="935.8666666666667"/>
      <point x="560.4" y="1208.3333333333335"/>
      <point x="688.4" y="1382.6666666666665" type="curve" smooth="yes"/>
      <point x="722.0666666666667" y="1427.8666666666666"/>
      <point x="728.2666666666667" y="1444.0"/>
      <point x="717.8000000000001" y="1457.1333333333332" type="curve" smooth="yes"/>
      <point x="706.4" y="1470.7333333333333"/>
      <point x="681.8000000000001" y="1466.5333333333335"/>
      <point x="635.0666666666666" y="1448.7333333333333" type="curve" smooth="yes"/>
      <point x="349.4666666666667" y="1329.8666666666666"/>
      <point x="136.0" y="1021.8666666666667"/>
    </contour>
  </outline>
</glyph>
<glyph name="asterisk" format="2">
  <advance width="1178.1333333333332"/>
  <unicode hex="002A"/>
  <outline>
    <contour>
      <point x="603.1999999999999" y="1003.1333333333334" type="line"/>
      <point x="603.1999999999999" y="1196.8"/>
      <point x="765.5999999999999" y="1272.7333333333333"/>
      <point x="765.5999999999999" y="1402.4" type="curve" smooth="yes"/>
      <point x="765.5999999999999" y="1498.8"/>
      <point x="701.4666666666667" y="1549.8"/>
      <point x="591.1333333333333" y="1549.8" type="curve" smooth="yes"/>
      <point x="475.2" y="1549.8"/>
      <point x="416.26666666666665" y="1498.8"/>
      <point x="416.26666666666665" y="1402.4" type="curve" smooth="yes"/>
      <point x="416.26666666666665" y="1273.7333333333333"/>
      <point x="578.6666666666666" y="1196.8"/>
      <point x="578.6666666666666" y="1003.1333333333334" type="curve"/>
    </contour>
    <contour>
      <point x="594.8666666666667" y="1014.0666666666666" type="line"/>
      <point x="410.1333333333333" y="1074.1333333333332"/>
      <point x="385.40000000000003" y="1250.3333333333335"/>
      <point x="261.7333333333333" y="1290.5333333333333" type="curve" smooth="yes"/>
      <point x="169.8" y="1320.0"/>
      <point x="101.66666666666666" y="1276.0"/>
      <point x="67.4" y="1172.2666666666667" type="curve" smooth="yes"/>
      <point x="31.599999999999998" y="1063.4666666666667"/>
      <point x="61.93333333333334" y="992.0666666666667"/>
      <point x="153.33333333333334" y="962.0666666666667" type="curve" smooth="yes"/>
      <point x="277.06666666666666" y="922.4000000000001"/>
      <point x="402.3333333333333" y="1052.2666666666664"/>
      <point x="587.0" y="991.6666666666666" type="curve"/>
    </contour>
    <contour>
      <point x="581.2666666666667" y="1009.4" type="line"/>
      <point x="466.1333333333333" y="852.7333333333333"/>
      <point x="289.4666666666667" y="885.5333333333333"/>
      <point x="212.0" y="781.0" type="curve" smooth="yes"/>
      <point x="156.13333333333333" y="702.5999999999999"/>
      <point x="177.6" y="624.8"/>
      <point x="266.8" y="560.3333333333333" type="curve" smooth="yes"/>
      <point x="361.06666666666666" y="493.3333333333333"/>
      <point x="438.93333333333334" y="500.06666666666666"/>
      <point x="495.3333333333333" y="578.0" type="curve" smooth="yes"/>
      <point x="571.8" y="682.0666666666666"/>
      <point x="487.0" y="838.6666666666666"/>
      <point x="600.6" y="995.8" type="curve"/>
    </contour>
    <contour>
      <point x="581.2666666666667" y="995.8" type="line"/>
      <point x="695.4" y="838.6666666666666"/>
      <point x="609.6" y="683.0666666666666"/>
      <point x="686.5333333333333" y="578.0" type="curve" smooth="yes"/>
      <point x="742.9333333333333" y="500.06666666666666"/>
      <point x="825.4666666666667" y="495.4"/>
      <point x="914.1333333333333" y="559.8666666666666" type="curve" smooth="yes"/>
      <point x="1008.4000000000001" y="627.8666666666667"/>
      <point x="1026.2666666666667" y="702.5999999999999"/>
      <point x="969.8666666666667" y="781.0" type="curve" smooth="yes"/>
      <point x="893.4000000000001" y="885.0666666666666"/>
      <point x="715.7333333333333" y="852.7333333333333"/>
      <point x="600.6" y="1009.4" type="curve"/>
    </contour>
    <contour>
      <point x="587.0" y="1014.0666666666666" type="curve"/>
      <point x="594.8666666666667" y="991.6666666666666" type="line"/>
      <point x="779.5333333333333" y="1052.2666666666664"/>
      <point x="904.3333333333333" y="922.4000000000001"/>
      <point x="1028.5333333333333" y="962.0666666666667" type="curve" smooth="yes"/>
      <point x="1119.9333333333332" y="992.0666666666667"/>
      <point x="1148.2" y="1067.6"/>
      <point x="1114.4666666666667" y="1170.8" type="curve" smooth="yes"/>
      <point x="1078.6666666666667" y="1280.1333333333332"/>
      <point x="1012.0666666666667" y="1320.0"/>
      <point x="920.1333333333333" y="1290.5333333333333" type="curve" smooth="yes"/>
      <point x="796.9333333333334" y="1250.3333333333335"/>
      <point x="771.7333333333332" y="1074.1333333333332"/>
    </contour>
  </outline>
</glyph>
<glyph name="comma" format="2">
  <advance width="610.5333333333334"/>
  <unicode hex="002C"/>
  <outline>
    <contour>
      <point x="302.93333333333334" y="-11.73333333333333" type="curve" smooth="yes"/>
      <point x="368.06666666666666" y="-11.73333333333333" type="line" smooth="yes"/>
      <point x="400.8666666666667" y="-11.73333333333333"/>
      <point x="410.0" y="-27.46666666666667"/>
      <point x="410.0" y="-54.666666666666664" type="curve" smooth="yes"/>
      <point x="410.0" y="-148.46666666666667"/>
      <point x="346.2217913977322" y="-249.4892552318534"/>
      <point x="156.06666666666666" y="-311.66666666666663" type="curve" smooth="yes"/>
      <point x="114.20000000000002" y="-324.2"/>
      <point x="101.73333333333335" y="-341.5333333333333"/>
      <point x="106.00000000000001" y="-364.40000000000003" type="curve" smooth="yes"/>
      <point x="110.26666666666667" y="-384.73333333333335"/>
      <point x="134.73333333333335" y="-394.99999999999994"/>
      <point x="177.26666666666668" y="-385.06666666666666" type="curve" smooth="yes"/>
      <point x="418.93835305744625" y="-319.60396980725596"/>
      <point x="544.5333333333333" y="-156.7170199100835"/>
      <point x="544.5333333333333" y="117.2" type="curve" smooth="yes"/>
      <point x="544.5333333333333" y="309.0"/>
      <point x="438.1333333333333" y="404.06666666666666"/>
      <point x="307.9333333333333" y="404.06666666666666" type="curve" smooth="yes"/>
      <point x="179.46666666666667" y="404.06666666666666"/>
      <point x="84.53333333333333" y="311.6"/>
      <point x="84.53333333333333" y="189.0" type="curve" smooth="yes"/>
      <point x="84.53333333333333" y="67.66666666666667"/>
      <point x="155.73333333333335" y="-11.73333333333333"/>
    </contour>
  </outline>
</glyph>
<glyph name="hyphen" format="2">
  <advance width="663.5333333333333"/>
  <unicode hex="002D"/>
  <outline>
    <contour>
      <point x="578.0666666666666" y="647.3333333333334" type="curve" smooth="yes"/>
      <point x="132.33333333333334" y="647.3333333333334" type="line" smooth="yes"/>
      <point x="101.86666666666667" y="647.3333333333334"/>
      <point x="86.0" y="637.2"/>
      <point x="73.26666666666667" y="599.2666666666667" type="curve" smooth="yes"/>
      <point x="50.66666666666667" y="478.26666666666665" type="line" smooth="yes"/>
      <point x="37.333333333333336" y="439.1333333333333"/>
      <point x="49.53333333333334" y="419.5333333333333"/>
      <point x="85.46666666666667" y="419.5333333333333" type="curve" smooth="yes"/>
      <point x="531.2" y="419.5333333333333" type="line" smooth="yes"/>
      <point x="561.6666666666667" y="419.5333333333333"/>
      <point x="577.5333333333333" y="429.6666666666667"/>
      <point x="590.2666666666667" y="467.6" type="curve" smooth="yes"/>
      <point x="612.8666666666667" y="588.6" type="line" smooth="yes"/>
      <point x="626.2" y="627.7333333333333"/>
      <point x="614.0" y="647.3333333333334"/>
    </contour>
  </outline>
</glyph>
<glyph name="period" format="2">
  <advance width="588.8"/>
  <unicode hex="002E"/>
  <outline>
    <contour>
      <point x="292.93333333333334" y="-25.333333333333332" type="curve" smooth="yes"/>
      <point x="420.0" y="-25.333333333333332"/>
      <point x="517.4666666666667" y="79.73333333333333"/>
      <point x="517.4666666666667" y="202.8" type="curve" smooth="yes"/>
      <point x="517.4666666666667" y="326.0"/>
      <point x="420.0" y="428.0"/>
      <point x="292.93333333333334" y="428.0" type="curve" smooth="yes"/>
      <point x="168.79999999999998" y="428.0"/>
      <point x="71.33333333333333" y="326.0"/>
      <point x="71.33333333333333" y="202.8" type="curve" smooth="yes"/>
      <point x="71.33333333333333" y="79.73333333333333"/>
      <point x="168.79999999999998" y="-25.333333333333332"/>
    </contour>
  </outline>
</glyph>
<glyph name="slash" format="2">
  <advance width="842.0"/>
  <unicode hex="002F"/>
  <outline>
    <contour>
      <point x="480.4" y="588.0" type="curve" smooth="yes"/>
      <point x="563.5333333333333" y="783.1333333333333"/>
      <point x="766.0" y="1185.4"/>
      <point x="849.2" y="1386.8000000000002" type="curve" smooth="yes"/>
      <point x="866.4666666666667" y="1426.1999999999998"/>
      <point x="849.6" y="1462.2"/>
      <point x="803.5333333333333" y="1483.2" type="curve" smooth="yes"/>
      <point x="757.0" y="1504.2"/>
      <point x="719.2666666666667" y="1492.4666666666667"/>
      <point x="701.0666666666667" y="1454.0" type="curve" smooth="yes"/>
      <point x="623.9333333333334" y="1268.5333333333335"/>
      <point x="474.93333333333334" y="831.2666666666668"/>
      <point x="390.0" y="628.6" type="curve" smooth="yes"/>
      <point x="305.46666666666664" y="428.3333333333333"/>
      <point x="101.13333333333333" y="20.0"/>
      <point x="23.999999999999996" y="-164.6" type="curve" smooth="yes"/>
      <point x="6.733333333333333" y="-204.0"/>
      <point x="23.599999999999998" y="-240.0"/>
      <point x="69.66666666666666" y="-261.0" type="curve" smooth="yes"/>
      <point x="116.2" y="-282.0"/>
      <point x="153.93333333333334" y="-270.26666666666665"/>
      <point x="172.13333333333333" y="-231.79999999999998" type="curve" smooth="yes"/>
      <point x="254.39999999999998" y="-32.33333333333333"/>
      <point x="398.26666666666665" y="392.3333333333333"/>
    </contour>
  </outline>
</glyph>
<glyph name="zero" format="2">
  <advance width="1394.7333333333333"/>
  <unicode hex="0030"/>
  <outline>
    <contour>
      <point x="696.4" y="1429.7333333333333" type="curve" smooth="yes"/>
      <point x="303.59999999999997" y="1429.7333333333333"/>
      <point x="51.2" y="1150.6666666666667"/>
      <point x="51.2" y="710.9333333333333" type="curve" smooth="yes"/>
      <point x="51.2" y="233.86666666666667"/>
      <point x="281.4" y="-30.666666666666664"/>
      <point x="689.4666666666666" y="-30.666666666666664" type="curve" smooth="yes"/>
      <point x="1087.3999999999999" y="-30.666666666666664"/>
      <point x="1343.5333333333333" y="240.46666666666667"/>
      <point x="1343.5333333333333" y="696.0666666666666" type="curve" smooth="yes"/>
      <point x="1343.5333333333333" y="1169.4"/>
      <point x="1107.2666666666667" y="1429.7333333333333"/>
    </contour>
    <contour>
      <point x="886.4666666666666" y="629.0" type="curve" smooth="yes"/>
      <point x="886.4666666666666" y="191.8"/>
      <point x="831.5333333333333" y="42.66666666666666"/>
      <point x="710.5333333333333" y="42.66666666666666" type="curve" smooth="yes"/>
      <point x="567.2666666666667" y="42.66666666666666"/>
      <point x="507.8" y="247.26666666666668"/>
      <point x="507.8" y="770.0666666666666" type="curve" smooth="yes"/>
      <point x="507.8" y="1204.0"/>
      <point x="561.8" y="1356.4"/>
      <point x="683.7333333333333" y="1356.4" type="curve" smooth="yes"/>
      <point x="827.0" y="1356.4"/>
      <point x="886.4666666666666" y="1156.4666666666667"/>
    </contour>
  </outline>
</glyph>
<glyph name="one" format="2">
  <advance width="927.8666666666666"/>
  <unicode hex="0031"/>
  <outline>
    <contour>
      <point x="120.26666666666668" y="1241.6000000000001" type="line" smooth="yes"/>
      <point x="82.66666666666667" y="1241.6000000000001"/>
      <point x="66.4" y="1261.0"/>
      <point x="66.4" y="1288.8" type="curve" smooth="yes"/>
      <point x="66.4" y="1315.6000000000001"/>
      <point x="88.4" y="1336.0666666666666"/>
      <point x="123.0" y="1336.0666666666666" type="curve" smooth="yes"/>
      <point x="221.86666666666667" y="1336.0666666666666" type="line" smooth="yes"/>
      <point x="404.6" y="1336.0666666666666"/>
      <point x="500.20000000000005" y="1360.8"/>
      <point x="590.6666666666667" y="1423.2" type="curve" smooth="yes"/>
      <point x="613.1333333333333" y="1436.0666666666666"/>
      <point x="629.9333333333333" y="1442.1333333333332"/>
      <point x="651.2666666666667" y="1442.1333333333332" type="curve" smooth="yes"/>
      <point x="682.1999999999999" y="1442.1333333333332"/>
      <point x="700.5333333333333" y="1425.9333333333334"/>
      <point x="700.5333333333333" y="1391.6000000000001" type="curve" smooth="yes"/>
      <point x="700.5333333333333" y="194.06666666666666" type="line" smooth="yes"/>
      <point x="700.5333333333333" y="140.6"/>
      <point x="722.8666666666667" y="113.66666666666669"/>
      <point x="762.1333333333333" y="104.66666666666669" type="curve" smooth="yes"/>
      <point x="849.7333333333333" y="84.00000000000001" type="line" smooth="yes"/>
      <point x="873.1840769958362" y="78.09175538309852"/>
      <point x="886.6" y="63.466666666666654"/>
      <point x="886.6" y="41.46666666666667" type="curve" smooth="yes"/>
      <point x="886.6" y="15.733333333333336"/>
      <point x="870.5831417624521" y="0.0"/>
      <point x="838.5333333333334" y="0.0" type="curve" smooth="yes"/>
      <point x="105.46666666666667" y="0.0" type="line" smooth="yes"/>
      <point x="68.80000000000001" y="0.0"/>
      <point x="51.06666666666666" y="15.733333333333336"/>
      <point x="51.06666666666666" y="41.93333333333334" type="curve" smooth="yes"/>
      <point x="51.06666666666666" y="63.93333333333332"/>
      <point x="66.66666666666667" y="78.26666666666668"/>
      <point x="95.19999999999999" y="85.00000000000001" type="curve" smooth="yes"/>
      <point x="184.0" y="104.66666666666669" type="line" smooth="yes"/>
      <point x="226.66666666666666" y="114.60000000000001"/>
      <point x="253.33333333333331" y="138.66666666666666"/>
      <point x="253.33333333333331" y="194.06666666666666" type="curve" smooth="yes"/>
      <point x="253.33333333333331" y="1175.6666666666667" type="line" smooth="yes"/>
      <point x="253.33333333333331" y="1224.9333333333334"/>
      <point x="236.66666666666666" y="1241.6000000000001"/>
      <point x="201.33333333333334" y="1241.6000000000001" type="curve" smooth="yes"/>
    </contour>
  </outline>
</glyph>
<glyph name="two" format="2">
  <advance width="1278.9333333333334"/>
  <unicode hex="0032"/>
  <outline>
    <contour>
      <point x="231.66666666666666" y="356.6666666666667" type="line"/>
      <point x="599.3333333333334" y="511.6666666666666" type="line" smooth="yes"/>
      <point x="991.8408383210038" y="677.2432340714116"/>
      <point x="1163.8" y="832.1112763320942"/>
      <point x="1163.8" y="1043.3333333333333" type="curve" smooth="yes"/>
      <point x="1163.8" y="1270.7333333333333"/>
      <point x="994.2" y="1430.6666666666667"/>
      <point x="648.1999999999999" y="1430.6666666666667" type="curve" smooth="yes"/>
      <point x="256.1333333333333" y="1430.6666666666667"/>
      <point x="77.93333333333334" y="1237.1333333333334"/>
      <point x="77.93333333333334" y="1035.5333333333333" type="curve" smooth="yes"/>
      <point x="77.93333333333334" y="906.0484848484849"/>
      <point x="153.79999999999998" y="832.0"/>
      <point x="274.26666666666665" y="832.0" type="curve" smooth="yes"/>
      <point x="392.8666666666667" y="832.0"/>
      <point x="474.7333333333333" y="912.4"/>
      <point x="474.7333333333333" y="1039.6" type="curve" smooth="yes"/>
      <point x="474.7333333333333" y="1193.0666666666668" type="line" smooth="yes"/>
      <point x="474.7333333333333" y="1309.0"/>
      <point x="507.9538940809969" y="1369.3333333333333"/>
      <point x="580.2" y="1369.3333333333333" type="curve" smooth="yes"/>
      <point x="651.2900900900901" y="1369.3333333333333"/>
      <point x="700.7333333333333" y="1282.2666666666667"/>
      <point x="700.7333333333333" y="1026.4666666666665" type="curve" smooth="yes"/>
      <point x="700.7333333333333" y="751.0666666666666"/>
      <point x="573.9549888946423" y="576.47338200777"/>
      <point x="367.26666666666665" y="475.1333333333333" type="curve" smooth="yes"/>
      <point x="192.6" y="389.53333333333336" type="line"/>
    </contour>
    <contour>
      <point x="48.8" y="164.13333333333333" type="curve" smooth="yes"/>
      <point x="48.8" y="47.999004975124386"/>
      <point x="114.4" y="-30.666666666666664"/>
      <point x="211.0" y="-30.666666666666664" type="curve" smooth="yes"/>
      <point x="334.9553264604811" y="-30.666666666666664"/>
      <point x="414.1815952746005" y="31.0886805156476"/>
      <point x="429.2666666666667" y="245.0666666666667" type="curve" smooth="yes"/>
      <point x="435.26666666666665" y="323.8"/>
      <point x="452.2" y="349.4666666666667"/>
      <point x="475.80000000000007" y="349.4666666666667" type="curve" smooth="yes"/>
      <point x="497.33333333333337" y="349.4666666666667"/>
      <point x="508.0666666666666" y="336.4"/>
      <point x="528.6666666666666" y="276.5333333333333" type="curve" smooth="yes"/>
      <point x="611.7333333333333" y="37.46666666666667"/>
      <point x="703.2560303893637" y="-30.666666666666664"/>
      <point x="873.1333333333333" y="-30.666666666666664" type="curve" smooth="yes"/>
      <point x="1077.149862258953" y="-30.666666666666664"/>
      <point x="1211.1991502956598" y="95.17528062850857"/>
      <point x="1235.9333333333334" y="468.8" type="curve" smooth="yes"/>
      <point x="1238.6" y="506.26666666666665"/>
      <point x="1228.0" y="523.0666666666667"/>
      <point x="1207.4666666666667" y="525.1333333333333" type="curve" smooth="yes"/>
      <point x="1190.0666666666666" y="526.6666666666666"/>
      <point x="1175.3999999999999" y="518.8666666666667"/>
      <point x="1163.2666666666667" y="497.4666666666667" type="curve" smooth="yes"/>
      <point x="1123.1187983333093" y="409.95365608508587"/>
      <point x="1072.9333333333334" y="373.7333333333333"/>
      <point x="973.2" y="373.7333333333333" type="curve" smooth="yes"/>
      <point x="798.2666666666667" y="373.7333333333333"/>
      <point x="633.6343846629561" y="438.5333333333333"/>
      <point x="439.06666666666666" y="438.5333333333333" type="curve" smooth="yes"/>
      <point x="183.20000000000002" y="438.5333333333333"/>
      <point x="48.8" y="334.01344245968414"/>
    </contour>
  </outline>
</glyph>
<glyph name="three" format="2">
  <advance width="1183.8000000000002"/>
  <unicode hex="0033"/>
  <outline>
    <contour>
      <point x="525.0666666666667" y="729.7333333333333" type="line"/>
      <point x="1113.8" y="1283.2666666666667" type="line" smooth="yes"/>
      <point x="1154.8666666666668" y="1321.6666666666665"/>
      <point x="1164.8" y="1342.5333333333335"/>
      <point x="1164.8" y="1360.3333333333335" type="curve" smooth="yes"/>
      <point x="1164.8" y="1387.5333333333333"/>
      <point x="1144.9333333333334" y="1400.0"/>
      <point x="1098.0" y="1400.0" type="curve" smooth="yes"/>
      <point x="236.46666666666664" y="1400.0" type="line" smooth="yes"/>
      <point x="190.26666666666668" y="1400.0"/>
      <point x="162.20000000000002" y="1373.3333333333333"/>
      <point x="158.13333333333335" y="1331.2666666666667" type="curve" smooth="yes"/>
      <point x="113.26666666666667" y="913.4" type="line" smooth="yes"/>
      <point x="110.13333333333334" y="882.3333333333333"/>
      <point x="130.2" y="865.2"/>
      <point x="159.06666666666666" y="865.2" type="curve" smooth="yes"/>
      <point x="188.00000000000003" y="865.2"/>
      <point x="202.66666666666666" y="880.4"/>
      <point x="208.93333333333334" y="903.5333333333333" type="curve" smooth="yes"/>
      <point x="241.06666666666666" y="1011.9333333333333" type="line" smooth="yes"/>
      <point x="251.13542441890039" y="1047.7149264546567"/>
      <point x="275.0" y="1064.1333333333334"/>
      <point x="316.5333333333333" y="1064.1333333333334" type="curve" smooth="yes"/>
      <point x="860.5333333333334" y="1064.1333333333334" type="line"/>
      <point x="854.1333333333333" y="1135.3999999999999" type="line"/>
      <point x="457.2" y="775.9333333333333" type="line" smooth="yes"/>
      <point x="431.2" y="753.0666666666666"/>
      <point x="420.53333333333336" y="738.4666666666667"/>
      <point x="420.53333333333336" y="716.5999999999999" type="curve" smooth="yes"/>
      <point x="420.53333333333336" y="688.8000000000001"/>
      <point x="437.6666666666667" y="673.1333333333333"/>
      <point x="471.66666666666663" y="673.1333333333333" type="curve" smooth="yes"/>
      <point x="534.8" y="673.1333333333333" type="line" smooth="yes"/>
      <point x="647.5999999999999" y="673.1333333333333"/>
      <point x="721.6666666666666" y="571.1999999999999"/>
      <point x="721.6666666666666" y="346.8" type="curve" smooth="yes"/>
      <point x="721.6666666666666" y="110.66666666666667"/>
      <point x="664.4732394366198" y="33.400000000000006"/>
      <point x="569.4" y="33.400000000000006" type="curve" smooth="yes"/>
      <point x="495.0727272727273" y="33.400000000000006"/>
      <point x="447.59999999999997" y="107.06666666666666"/>
      <point x="447.59999999999997" y="199.06666666666666" type="curve" smooth="yes"/>
      <point x="447.59999999999997" y="326.6" type="line" smooth="yes"/>
      <point x="447.59999999999997" y="437.93333333333334"/>
      <point x="376.8666666666667" y="513.4666666666667"/>
      <point x="262.8666666666667" y="513.4666666666667" type="curve" smooth="yes"/>
      <point x="148.20000000000002" y="513.4666666666667"/>
      <point x="57.86666666666666" y="420.6"/>
      <point x="57.86666666666666" y="294.4666666666667" type="curve" smooth="yes"/>
      <point x="57.86666666666666" y="108.60000000000001"/>
      <point x="234.0" y="-30.666666666666664"/>
      <point x="569.6" y="-30.666666666666664" type="curve" smooth="yes"/>
      <point x="915.2666666666667" y="-30.666666666666664"/>
      <point x="1136.2666666666669" y="141.36127124907614"/>
      <point x="1136.2666666666669" y="409.8" type="curve" smooth="yes"/>
      <point x="1136.2666666666669" y="639.139327883742"/>
      <point x="928.6869565217391" y="763.5333333333333"/>
      <point x="611.4666666666667" y="763.5333333333333" type="curve" smooth="yes"/>
      <point x="577.2666666666667" y="763.5333333333333"/>
      <point x="529.1333333333333" y="759.8"/>
      <point x="503.66666666666663" y="753.4" type="curve"/>
    </contour>
  </outline>
</glyph>
<glyph name="four" format="2">
  <advance width="1324.2"/>
  <unicode hex="0034"/>
  <outline>
    <contour>
      <point x="612.0666666666666" y="613.0" type="curve" smooth="yes"/>
      <point x="612.0666666666666" y="158.2" type="line" smooth="yes"/>
      <point x="612.0666666666666" y="126.53333333333332"/>
      <point x="599.8666666666666" y="111.80000000000001"/>
      <point x="571.1333333333333" y="104.66666666666669" type="curve" smooth="yes"/>
      <point x="472.4" y="81.60000000000002" type="line" smooth="yes"/>
      <point x="448.26666666666665" y="75.26666666666665"/>
      <point x="433.6" y="61.999999999999986"/>
      <point x="433.6" y="40.00000000000001" type="curve" smooth="yes"/>
      <point x="433.6" y="14.26666666666667"/>
      <point x="449.8666666666667" y="0.0"/>
      <point x="485.06666666666666" y="0.0" type="curve" smooth="yes"/>
      <point x="1163.3333333333333" y="0.0" type="line" smooth="yes"/>
      <point x="1197.0666666666666" y="0.0"/>
      <point x="1213.8" y="15.26666666666667"/>
      <point x="1213.8" y="41.00000000000001" type="curve" smooth="yes"/>
      <point x="1213.8" y="62.00000000000001"/>
      <point x="1199.6666666666665" y="73.13333333333335"/>
      <point x="1174.0" y="82.06666666666668" type="curve" smooth="yes"/>
      <point x="1093.8666666666668" y="105.13333333333335" type="line" smooth="yes"/>
      <point x="1064.7333333333333" y="113.80000000000001"/>
      <point x="1048.6" y="127.53333333333333"/>
      <point x="1048.6" y="161.13333333333333" type="curve" smooth="yes"/>
      <point x="1047.5333333333333" y="943.3333333333334" type="line" smooth="yes"/>
      <point x="1047.5333333333333" y="969.3333333333333"/>
      <point x="1035.0" y="980.2666666666667"/>
      <point x="1015.7333333333335" y="980.2666666666667" type="curve" smooth="yes"/>
      <point x="1000.1999999999999" y="980.2666666666667"/>
      <point x="986.7333333333333" y="976.1333333333333"/>
      <point x="961.9333333333334" y="953.8666666666667" type="curve" smooth="yes"/>
      <point x="638.3333333333334" y="670.0" type="line" smooth="yes"/>
      <point x="621.8000000000001" y="655.0"/>
      <point x="612.0666666666666" y="637.8666666666667"/>
    </contour>
    <contour>
      <point x="404.73333333333335" y="748.7333333333333" type="curve" smooth="yes"/>
      <point x="53.2" y="429.8666666666667" type="line" smooth="yes"/>
      <point x="27.333333333333332" y="406.6"/>
      <point x="16.933333333333334" y="388.8666666666667"/>
      <point x="16.933333333333334" y="371.6666666666667" type="curve" smooth="yes"/>
      <point x="16.933333333333334" y="342.8666666666667"/>
      <point x="36.333333333333336" y="323.9333333333333"/>
      <point x="69.4" y="323.9333333333333" type="curve" smooth="yes"/>
      <point x="1202.7333333333333" y="323.9333333333333" type="line" smooth="yes"/>
      <point x="1239.7333333333333" y="323.9333333333333"/>
      <point x="1256.8666666666666" y="338.53333333333336"/>
      <point x="1256.8666666666666" y="367.33333333333337" type="curve" smooth="yes"/>
      <point x="1256.8666666666666" y="392.5333333333333"/>
      <point x="1236.4666666666667" y="404.06666666666666"/>
      <point x="1206.6" y="404.06666666666666" type="curve" smooth="yes"/>
      <point x="92.73333333333333" y="404.06666666666666" type="line"/>
      <point x="105.66666666666667" y="364.4666666666667" type="line"/>
      <point x="679.9333333333334" y="882.0666666666667" type="line" smooth="yes"/>
      <point x="871.5122341764114" y="1054.4068646228568"/>
      <point x="913.4666666666666" y="1141.0666666666666"/>
      <point x="913.4666666666666" y="1242.5333333333333" type="curve" smooth="yes"/>
      <point x="913.4666666666666" y="1375.6666666666667"/>
      <point x="812.0666666666667" y="1467.0"/>
      <point x="654.5333333333333" y="1467.0" type="curve" smooth="yes"/>
      <point x="467.6666666666667" y="1467.0"/>
      <point x="367.59999999999997" y="1361.9333333333332"/>
      <point x="367.59999999999997" y="1231.2666666666667" type="curve" smooth="yes"/>
      <point x="367.59999999999997" y="1088.5333333333333"/>
      <point x="494.79999999999995" y="1009.4"/>
      <point x="494.79999999999995" y="908.9333333333333" type="curve" smooth="yes"/>
      <point x="494.79999999999995" y="849.8"/>
      <point x="464.93333333333334" y="802.8666666666667"/>
    </contour>
  </outline>
</glyph>
<glyph name="five" format="2">
  <advance width="1209.1333333333332"/>
  <unicode hex="0035"/>
  <outline>
    <contour>
      <point x="71.53333333333333" y="292.6666666666667" type="curve" smooth="yes"/>
      <point x="71.53333333333333" y="109.13333333333333"/>
      <point x="243.2" y="-30.666666666666664"/>
      <point x="555.1333333333333" y="-30.666666666666664" type="curve" smooth="yes"/>
      <point x="912.3333333333333" y="-30.666666666666664"/>
      <point x="1139.6666666666667" y="138.53333333333333"/>
      <point x="1139.6666666666667" y="423.0" type="curve" smooth="yes"/>
      <point x="1139.6666666666667" y="677.8666666666667"/>
      <point x="934.4" y="838.6666666666667"/>
      <point x="626.4666666666667" y="838.6666666666667" type="curve" smooth="yes"/>
      <point x="438.6362098138748" y="838.6666666666667"/>
      <point x="341.5519783088121" y="795.2458657971923"/>
      <point x="223.8" y="676.5333333333334" type="curve"/>
      <point x="260.93333333333334" y="665.0" type="line"/>
      <point x="260.93333333333334" y="1122.6" type="line"/>
      <point x="200.53333333333333" y="1052.8" type="line"/>
      <point x="308.41209632849024" y="1004.6537659760608"/>
      <point x="480.8666666666667" y="973.4666666666667"/>
      <point x="644.2666666666667" y="973.4666666666667" type="curve" smooth="yes"/>
      <point x="963.4273224043716" y="973.4666666666667"/>
      <point x="1107.8" y="1082.0666666666668"/>
      <point x="1136.8666666666666" y="1408.1333333333332" type="curve" smooth="yes"/>
      <point x="1140.0666666666666" y="1435.9333333333334"/>
      <point x="1130.2666666666667" y="1448.0"/>
      <point x="1117.8" y="1451.7333333333333" type="curve" smooth="yes"/>
      <point x="1103.8666666666668" y="1456.0"/>
      <point x="1086.6666666666667" y="1453.5333333333333"/>
      <point x="1059.1333333333334" y="1431.6000000000001" type="curve" smooth="yes"/>
      <point x="1022.3333333333334" y="1384.0"/>
      <point x="910.7333333333333" y="1349.2666666666667"/>
      <point x="743.6666666666667" y="1349.2666666666667" type="curve" smooth="yes"/>
      <point x="586.8" y="1349.2666666666667"/>
      <point x="438.5333333333333" y="1369.2"/>
      <point x="320.6" y="1405.6666666666667" type="curve" smooth="yes"/>
      <point x="283.73333333333335" y="1416.5333333333333"/>
      <point x="260.59999999999997" y="1422.0"/>
      <point x="238.0" y="1422.0" type="curve" smooth="yes"/>
      <point x="187.37522123893805" y="1422.0"/>
      <point x="165.33333333333334" y="1396.9333333333334"/>
      <point x="165.33333333333334" y="1355.7333333333333" type="curve" smooth="yes"/>
      <point x="165.33333333333334" y="650.6" type="line" smooth="yes"/>
      <point x="165.33333333333334" y="619.8666666666667"/>
      <point x="188.2" y="603.5333333333333"/>
      <point x="213.2" y="603.5333333333333" type="curve" smooth="yes"/>
      <point x="237.12577319587626" y="603.5333333333333"/>
      <point x="254.53333333333336" y="612.2"/>
      <point x="282.0" y="635.8000000000001" type="curve" smooth="yes"/>
      <point x="357.8666666666667" y="710.2666666666667"/>
      <point x="428.06666666666666" y="745.4"/>
      <point x="502.06666666666666" y="745.4" type="curve" smooth="yes"/>
      <point x="629.0666666666666" y="745.4"/>
      <point x="706.3333333333333" y="630.0666666666666"/>
      <point x="706.3333333333333" y="375.2666666666667" type="curve" smooth="yes"/>
      <point x="706.3333333333333" y="144.0"/>
      <point x="649.6666666666666" y="27.26666666666668"/>
      <point x="570.8666666666667" y="27.26666666666668" type="curve" smooth="yes"/>
      <point x="502.8666666666666" y="27.26666666666668"/>
      <point x="464.5333333333333" y="80.26666666666665"/>
      <point x="464.5333333333333" y="139.0" type="curve" smooth="yes"/>
      <point x="464.5333333333333" y="309.7333333333333" type="line" smooth="yes"/>
      <point x="464.5333333333333" y="424.6"/>
      <point x="393.79999999999995" y="504.1333333333333"/>
      <point x="281.4" y="504.1333333333333" type="curve" smooth="yes"/>
      <point x="162.86666666666665" y="504.1333333333333"/>
      <point x="71.53333333333333" y="414.8"/>
    </contour>
  </outline>
</glyph>
<glyph name="six" format="2">
  <advance width="1292.4666666666667"/>
  <unicode hex="0036"/>
  <outline>
    <contour>
      <point x="731.5999999999999" y="1430.6666666666667" type="curve" smooth="yes"/>
      <point x="328.73333333333335" y="1430.6666666666667"/>
      <point x="54.4" y="1151.3999999999999"/>
      <point x="54.4" y="648.8666666666667" type="curve" smooth="yes"/>
      <point x="54.4" y="220.06666666666666"/>
      <point x="289.2666666666667" y="-30.666666666666664"/>
      <point x="658.9333333333333" y="-30.666666666666664" type="curve" smooth="yes"/>
      <point x="1012.3333333333333" y="-30.666666666666664"/>
      <point x="1233.8666666666666" y="152.26666666666668"/>
      <point x="1238.5333333333333" y="438.73333333333335" type="curve" smooth="yes"/>
      <point x="1242.7333333333333" y="702.0"/>
      <point x="1075.9766274509805" y="849.3333333333334"/>
      <point x="805.6666666666666" y="849.3333333333334" type="curve" smooth="yes"/>
      <point x="574.1999999999999" y="849.3333333333334"/>
      <point x="413.0" y="724.8666666666667"/>
      <point x="405.5333333333333" y="590.5333333333333" type="curve"/>
      <point x="452.3333333333333" y="566.6666666666666" type="line"/>
      <point x="463.53333333333336" y="663.4666666666667"/>
      <point x="537.5333333333334" y="726.8"/>
      <point x="625.0" y="726.8" type="curve" smooth="yes"/>
      <point x="734.5591522157996" y="726.8"/>
      <point x="817.6" y="614.0666666666667"/>
      <point x="817.6" y="393.73333333333335" type="curve" smooth="yes"/>
      <point x="817.6" y="145.0"/>
      <point x="758.4666666666667" y="36.39999999999999"/>
      <point x="662.2" y="36.39999999999999" type="curve" smooth="yes"/>
      <point x="572.2" y="36.39999999999999"/>
      <point x="495.66666666666663" y="162.46666666666667"/>
      <point x="495.66666666666663" y="615.3333333333333" type="curve" smooth="yes"/>
      <point x="495.66666666666663" y="1176.2666666666667"/>
      <point x="582.3333333333333" y="1361.1333333333334"/>
      <point x="689.4666666666666" y="1361.1333333333334" type="curve" smooth="yes"/>
      <point x="744.9333333333333" y="1361.1333333333334"/>
      <point x="772.2" y="1321.0"/>
      <point x="772.2" y="1248.6666666666665" type="curve" smooth="yes"/>
      <point x="772.2" y="1122.2" type="line" smooth="yes"/>
      <point x="772.2" y="988.3459369817579"/>
      <point x="862.4" y="908.7333333333333"/>
      <point x="992.4" y="908.7333333333333" type="curve" smooth="yes"/>
      <point x="1126.2095238095237" y="908.7333333333333"/>
      <point x="1214.0" y="986.6666666666666"/>
      <point x="1214.0" y="1121.6" type="curve" smooth="yes"/>
      <point x="1214.0" y="1290.2"/>
      <point x="1053.2666666666667" y="1430.6666666666667"/>
    </contour>
  </outline>
</glyph>
<glyph name="seven" format="2">
  <advance width="1104.4"/>
  <unicode hex="0037"/>
  <outline>
    <contour>
      <point x="840.1333333333333" y="1067.3333333333333" type="line"/>
      <point x="512.3333333333334" y="689.1333333333333" type="line" smooth="yes"/>
      <point x="323.20000000000005" y="480.40000000000003"/>
      <point x="261.33333333333337" y="351.93333333333334"/>
      <point x="261.33333333333337" y="223.0" type="curve" smooth="yes"/>
      <point x="261.33333333333337" y="60.599999999999994"/>
      <point x="363.26666666666665" y="-35.33333333333333"/>
      <point x="526.0666666666667" y="-35.33333333333333" type="curve" smooth="yes"/>
      <point x="697.8666666666667" y="-35.33333333333333"/>
      <point x="790.1333333333333" y="74.13333333333333"/>
      <point x="790.1333333333333" y="199.06666666666666" type="curve" smooth="yes"/>
      <point x="790.1333333333333" y="378.5333333333333"/>
      <point x="642.3333333333334" y="432.26666666666665"/>
      <point x="642.3333333333334" y="595.6" type="curve" smooth="yes"/>
      <point x="642.3333333333334" y="683.8"/>
      <point x="680.4" y="755.2666666666667"/>
      <point x="843.4666666666666" y="949.9333333333334" type="curve" smooth="yes"/>
      <point x="1087.8666666666666" y="1250.4666666666667" type="line" smooth="yes"/>
      <point x="1125.8666666666666" y="1295.1333333333332"/>
      <point x="1138.2666666666667" y="1318.7333333333333"/>
      <point x="1138.2666666666667" y="1342.4666666666667" type="curve" smooth="yes"/>
      <point x="1138.2666666666667" y="1376.0"/>
      <point x="1112.1333333333334" y="1400.0"/>
      <point x="1064.9333333333334" y="1400.0" type="curve" smooth="yes"/>
      <point x="182.26666666666668" y="1400.0" type="line" smooth="yes"/>
      <point x="141.8" y="1400.0"/>
      <point x="117.86666666666666" y="1374.6666666666667"/>
      <point x="115.33333333333333" y="1336.4666666666667" type="curve" smooth="yes"/>
      <point x="71.46666666666667" y="873.3333333333334" type="line" smooth="yes"/>
      <point x="69.4" y="840.9333333333333"/>
      <point x="86.19999999999999" y="823.6666666666666"/>
      <point x="117.80000000000001" y="823.6666666666666" type="curve" smooth="yes"/>
      <point x="146.13333333333333" y="823.6666666666666"/>
      <point x="162.86666666666665" y="839.3333333333334"/>
      <point x="169.6" y="864.4" type="curve" smooth="yes"/>
      <point x="205.40000000000003" y="990.8000000000001" type="line" smooth="yes"/>
      <point x="216.0" y="1029.8666666666666"/>
      <point x="233.66666666666669" y="1041.6666666666667"/>
      <point x="274.3333333333333" y="1041.6666666666667" type="curve" smooth="yes"/>
      <point x="881.6666666666666" y="1041.6666666666667" type="line"/>
    </contour>
  </outline>
</glyph>
<glyph name="eight" format="2">
  <advance width="1285.1333333333332"/>
  <unicode hex="0038"/>
  <outline>
    <contour>
      <point x="603.8666666666667" y="-30.133333333333333" type="curve" smooth="yes"/>
      <point x="1003.5333333333333" y="-30.133333333333333"/>
      <point x="1231.1333333333334" y="139.86666666666667"/>
      <point x="1231.1333333333334" y="386.0" type="curve" smooth="yes"/>
      <point x="1231.1333333333334" y="548.4346121057118"/>
      <point x="1102.8666666666668" y="688.8000000000001"/>
      <point x="797.4666666666667" y="785.0" type="curve" smooth="yes"/>
      <point x="569.2666666666667" y="856.3333333333334"/>
      <point x="485.73333333333335" y="976.4666666666667"/>
      <point x="485.73333333333335" y="1161.9333333333334" type="curve" smooth="yes"/>
      <point x="485.73333333333335" y="1283.9333333333334"/>
      <point x="538.8888888888888" y="1370.1333333333334"/>
      <point x="638.4" y="1370.1333333333334" type="curve" smooth="yes"/>
      <point x="754.4115768463073" y="1370.1333333333334"/>
      <point x="816.4666666666667" y="1259.344"/>
      <point x="816.4666666666667" y="1028.0666666666666" type="curve" smooth="yes"/>
      <point x="816.4666666666667" y="899.5308876179848"/>
      <point x="783.0245572104379" y="780.5626790433525"/>
      <point x="734.8" y="717.7333333333333" type="curve"/>
      <point x="752.6666666666666" y="699.6666666666666" type="line"/>
      <point x="1079.9300091619352" y="720.9998950261664"/>
      <point x="1223.2" y="873.035117370892"/>
      <point x="1223.2" y="1052.8" type="curve" smooth="yes"/>
      <point x="1223.2" y="1283.6"/>
      <point x="1029.7333333333333" y="1430.6666666666667"/>
      <point x="676.0" y="1430.6666666666667" type="curve" smooth="yes"/>
      <point x="270.8" y="1430.6666666666667"/>
      <point x="71.73333333333333" y="1224.0666666666668"/>
      <point x="71.73333333333333" y="985.0666666666667" type="curve" smooth="yes"/>
      <point x="71.73333333333333" y="789.1233785822021"/>
      <point x="212.0" y="626.8666666666667"/>
      <point x="536.8000000000001" y="522.9333333333333" type="curve" smooth="yes"/>
      <point x="731.6" y="463.8"/>
      <point x="793.3333333333334" y="367.2599520383693"/>
      <point x="793.3333333333334" y="234.73333333333332" type="curve" smooth="yes"/>
      <point x="793.3333333333334" y="107.79999999999998"/>
      <point x="747.0" y="29.53333333333333"/>
      <point x="643.8666666666667" y="29.53333333333333" type="curve" smooth="yes"/>
      <point x="540.3333333333333" y="29.53333333333333"/>
      <point x="482.93333333333334" y="135.33333333333331"/>
      <point x="482.93333333333334" y="350.6" type="curve" smooth="yes"/>
      <point x="482.93333333333334" y="438.1333333333334"/>
      <point x="497.06666666666666" y="541.7333333333333"/>
      <point x="526.2666666666667" y="598.1999999999999" type="curve"/>
      <point x="523.5333333333333" y="613.7333333333333" type="line"/>
      <point x="193.41520969771224" y="580.3677120719101"/>
      <point x="69.86666666666667" y="467.64475942972643"/>
      <point x="69.86666666666667" y="306.46666666666664" type="curve"/>
      <point x="69.86666666666667" y="110.15271049596309"/>
      <point x="233.00000000000003" y="-30.133333333333333"/>
    </contour>
  </outline>
</glyph>
<glyph name="nine" format="2">
  <advance width="1299.9333333333334"/>
  <unicode hex="0039"/>
  <outline>
    <contour>
      <point x="562.7333333333333" y="-30.666666666666664" type="curve" smooth="yes"/>
      <point x="968.8666666666667" y="-30.666666666666664"/>
      <point x="1244.6000000000001" y="248.6"/>
      <point x="1244.6000000000001" y="751.1333333333333" type="curve" smooth="yes"/>
      <point x="1244.6000000000001" y="1179.9333333333332"/>
      <point x="1010.1999999999999" y="1430.6666666666667"/>
      <point x="640.0666666666666" y="1430.6666666666667" type="curve" smooth="yes"/>
      <point x="288.0666666666667" y="1430.6666666666667"/>
      <point x="55.8" y="1239.4666666666667"/>
      <point x="55.8" y="964.4666666666667" type="curve" smooth="yes"/>
      <point x="55.8" y="704.4"/>
      <point x="218.6" y="559.2"/>
      <point x="489.59999999999997" y="559.2" type="curve" smooth="yes"/>
      <point x="736.4666666666667" y="559.2"/>
      <point x="886.0" y="683.6666666666667"/>
      <point x="893.4666666666667" y="818.0" type="curve"/>
      <point x="846.6666666666666" y="833.3333333333333" type="line"/>
      <point x="836.5667299118726" y="741.4574259547312"/>
      <point x="756.8" y="681.7333333333333"/>
      <point x="662.3333333333334" y="681.7333333333333" type="curve" smooth="yes"/>
      <point x="557.0666666666666" y="681.7333333333333"/>
      <point x="476.73333333333335" y="792.8666666666666"/>
      <point x="476.73333333333335" y="1009.4666666666666" type="curve" smooth="yes"/>
      <point x="476.73333333333335" y="1250.4666666666667"/>
      <point x="539.1333333333333" y="1361.7333333333333"/>
      <point x="639.6" y="1361.7333333333333" type="curve" smooth="yes"/>
      <point x="728.1999999999999" y="1361.7333333333333"/>
      <point x="803.3333333333334" y="1236.1333333333334"/>
      <point x="803.3333333333334" y="784.6666666666667" type="curve" smooth="yes"/>
      <point x="803.3333333333334" y="224.2"/>
      <point x="714.8000000000001" y="39.8"/>
      <point x="604.8666666666667" y="39.8" type="curve" smooth="yes"/>
      <point x="550.8000000000001" y="39.8"/>
      <point x="522.1333333333334" y="86.46666666666667"/>
      <point x="522.1333333333334" y="151.33333333333331" type="curve" smooth="yes"/>
      <point x="522.1333333333334" y="269.8666666666667" type="line" smooth="yes"/>
      <point x="522.1333333333334" y="411.33333333333337"/>
      <point x="437.06666666666666" y="491.26666666666665"/>
      <point x="301.93333333333334" y="491.26666666666665" type="curve" smooth="yes"/>
      <point x="166.46666666666667" y="491.26666666666665"/>
      <point x="80.33333333333333" y="411.46666666666664"/>
      <point x="80.33333333333333" y="278.40000000000003" type="curve" smooth="yes"/>
      <point x="80.33333333333333" y="109.8"/>
      <point x="241.06666666666666" y="-30.666666666666664"/>
    </contour>
  </outline>
</glyph>
<glyph name="less" format="2">
  <advance width="969.1333333333333"/>
  <unicode hex="003C"/>
  <outline>
    <contour>
      <point x="188.86666666666662" y="693.0" type="line"/>
      <point x="820.8000000000001" y="321.8666666666667" type="line" smooth="yes"/>
      <point x="850.9333333333333" y="306.53333333333336"/>
      <point x="864.5333333333333" y="282.4"/>
      <point x="864.5333333333333" y="264.5333333333333" type="curve" smooth="yes"/>
      <point x="865.0666666666666" y="238.66666666666669"/>
      <point x="851.3333333333333" y="220.66666666666669"/>
      <point x="820.1333333333333" y="220.66666666666669" type="curve" smooth="yes"/>
      <point x="793.7333333333333" y="220.66666666666669"/>
      <point x="770.5333333333333" y="233.33333333333337"/>
      <point x="732.9333333333334" y="251.86666666666667" type="curve" smooth="yes"/>
      <point x="120.19999999999999" y="608.9999999999999" type="line" smooth="yes"/>
      <point x="84.60000000000001" y="627.2666666666667"/>
      <point x="67.26666666666667" y="651.5333333333333"/>
      <point x="67.26666666666667" y="683.5333333333333" type="curve" smooth="yes"/>
      <point x="67.26666666666667" y="715.0"/>
      <point x="84.60000000000001" y="739.2666666666667"/>
      <point x="120.19999999999999" y="757.5333333333333" type="curve" smooth="yes"/>
      <point x="724.7333333333333" y="1112.7333333333333" type="line" smooth="yes"/>
      <point x="763.8000000000001" y="1132.7333333333333"/>
      <point x="787.0" y="1143.9333333333334"/>
      <point x="811.9333333333333" y="1143.9333333333334" type="curve" smooth="yes"/>
      <point x="844.5999999999999" y="1143.9333333333334"/>
      <point x="858.3333333333333" y="1125.9333333333334"/>
      <point x="857.8" y="1100.6" type="curve" smooth="yes"/>
      <point x="857.8" y="1082.2"/>
      <point x="844.2" y="1061.0"/>
      <point x="812.6" y="1044.2" type="curve" smooth="yes"/>
      <point x="188.86666666666662" y="675.0" type="line"/>
    </contour>
  </outline>
</glyph>
<glyph name="question" format="2">
  <advance width="1190.6666666666667"/>
  <unicode hex="003F"/>
  <outline>
    <contour>
      <point x="464.8666666666667" y="648.9333333333333" type="line" smooth="yes"/>
      <point x="453.8" y="699.2"/>
      <point x="471.73333333333335" y="732.9333333333334"/>
      <point x="524.6666666666666" y="756.6" type="curve" smooth="yes"/>
      <point x="578.0" y="781.4666666666667" type="line" smooth="yes"/>
      <point x="658.1333333333333" y="821.0666666666666"/>
      <point x="687.0" y="924.7113978494624"/>
      <point x="687.0" y="1144.1333333333334" type="curve" smooth="yes"/>
      <point x="687.0" y="1303.2781144781145"/>
      <point x="651.2666666666668" y="1384.2"/>
      <point x="573.5333333333334" y="1384.2" type="curve" smooth="yes"/>
      <point x="504.73333333333335" y="1384.2"/>
      <point x="460.4" y="1334.8"/>
      <point x="460.8666666666666" y="1242.8666666666666" type="curve" smooth="yes"/>
      <point x="461.3333333333333" y="1134.8666666666666" type="line" smooth="yes"/>
      <point x="461.79999999999995" y="972.5999999999999"/>
      <point x="383.9772925764192" y="881.7333333333333"/>
      <point x="243.2" y="881.7333333333333" type="curve" smooth="yes"/>
      <point x="123.80250391236308" y="881.7333333333333"/>
      <point x="45.0" y="959.4605504587156"/>
      <point x="45.0" y="1095.3999999999999" type="curve" smooth="yes"/>
      <point x="45.0" y="1293.8666666666666"/>
      <point x="270.26666666666665" y="1459.2"/>
      <point x="586.2" y="1459.2" type="curve" smooth="yes"/>
      <point x="959.6666666666666" y="1459.2"/>
      <point x="1149.1333333333332" y="1322.0676742233418"/>
      <point x="1149.1333333333332" y="1070.6666666666667" type="curve" smooth="yes"/>
      <point x="1149.1333333333332" y="873.0585457979225"/>
      <point x="1021.1999999999999" y="741.0666666666667"/>
      <point x="756.4666666666667" y="703.4666666666666" type="curve" smooth="yes"/>
      <point x="676.5333333333333" y="692.3333333333334" type="line" smooth="yes"/>
      <point x="632.8666666666667" y="686.1999999999999"/>
      <point x="616.0666666666666" y="666.4"/>
      <point x="606.6666666666666" y="623.3333333333334" type="curve" smooth="yes"/>
      <point x="590.7333333333333" y="537.2666666666667" type="line" smooth="yes"/>
      <point x="579.6" y="498.8"/>
      <point x="564.6" y="487.8666666666667"/>
      <point x="537.3333333333334" y="487.8666666666667" type="curve" smooth="yes"/>
      <point x="505.46666666666664" y="487.8666666666667"/>
      <point x="490.2" y="503.2666666666666"/>
      <point x="482.2666666666667" y="535.6" type="curve" smooth="yes"/>
    </contour>
    <component base="period" xOffset="235.86666666666665"/>
  </outline>
</glyph>
<glyph name="at" format="2">
  <advance width="1756.8666666666666"/>
  <unicode hex="0040"/>
  <outline>
    <contour>
      <point x="988.0666666666666" y="516.2666666666668" type="curve"/>
      <point x="1008.8000000000001" y="557.3333333333334" type="line"/>
      <point x="971.6666666666667" y="579.4"/>
      <point x="943.6" y="588.7333333333333"/>
      <point x="878.0" y="588.7333333333333" type="curve" smooth="yes"/>
      <point x="580.8" y="588.7333333333333"/>
      <point x="443.33333333333337" y="488.6"/>
      <point x="443.33333333333337" y="331.1333333333333" type="curve" smooth="yes"/>
      <point x="443.33333333333337" y="203.13333333333333"/>
      <point x="555.8666666666666" y="113.86666666666667"/>
      <point x="719.6" y="113.86666666666667" type="curve" smooth="yes"/>
      <point x="839.5999999999999" y="113.86666666666667"/>
      <point x="954.8666666666667" y="163.46666666666667"/>
      <point x="1006.9333333333333" y="255.46666666666667" type="curve"/>
      <point x="986.5333333333332" y="295.0" type="line"/>
      <point x="972.8000000000001" y="267.1333333333333"/>
      <point x="939.2666666666665" y="249.0"/>
      <point x="905.8666666666667" y="249.0" type="curve" smooth="yes"/>
      <point x="850.7333333333333" y="249.0"/>
      <point x="811.1333333333333" y="294.93333333333334"/>
      <point x="811.1333333333333" y="390.4" type="curve" smooth="yes"/>
      <point x="811.1333333333333" y="487.0666666666667"/>
      <point x="852.0" y="536.6666666666667"/>
      <point x="905.8666666666667" y="536.6666666666667" type="curve" smooth="yes"/>
      <point x="939.8666666666667" y="536.6666666666667"/>
      <point x="958.6666666666665" y="530.6"/>
    </contour>
    <contour>
      <point x="1366.5333333333333" y="231.4" type="curve" smooth="yes"/>
      <point x="1331.2666666666667" y="231.4"/>
      <point x="1319.0" y="250.93333333333334"/>
      <point x="1319.0" y="284.7333333333333" type="curve" smooth="yes"/>
      <point x="1319.0" y="757.8666666666666" type="line" smooth="yes"/>
      <point x="1319.0" y="943.1333333333333"/>
      <point x="1171.1999999999998" y="1031.8000000000002"/>
      <point x="933.7333333333333" y="1031.8000000000002" type="curve" smooth="yes"/>
      <point x="637.8666666666667" y="1031.8000000000002"/>
      <point x="486.2666666666666" y="915.8000000000001"/>
      <point x="486.2666666666666" y="785.0666666666666" type="curve" smooth="yes"/>
      <point x="486.2666666666666" y="694.3333333333334"/>
      <point x="552.8666666666667" y="653.6666666666666"/>
      <point x="633.6" y="653.6666666666666" type="curve" smooth="yes"/>
      <point x="740.9333333333333" y="653.6666666666666"/>
      <point x="822.7333333333333" y="722.3333333333334"/>
      <point x="822.7333333333333" y="818.2" type="curve" smooth="yes"/>
      <point x="822.7333333333333" y="900.1333333333334" type="line" smooth="yes"/>
      <point x="822.7333333333333" y="942.4666666666667"/>
      <point x="849.2666666666667" y="968.3333333333333"/>
      <point x="889.6" y="968.3333333333333" type="curve" smooth="yes"/>
      <point x="929.0" y="968.3333333333333"/>
      <point x="953.3333333333334" y="933.9333333333333"/>
      <point x="953.3333333333334" y="886.8000000000001" type="curve" smooth="yes"/>
      <point x="953.3333333333334" y="249.40000000000003" type="line"/>
      <point x="974.1999999999999" y="243.33333333333331" type="line"/>
      <point x="991.6666666666666" y="161.33333333333334"/>
      <point x="1082.0" y="114.4"/>
      <point x="1227.7333333333333" y="113.86666666666667" type="curve" smooth="yes"/>
      <point x="1511.5939005449854" y="113.32178945392863"/>
      <point x="1697.3999999999999" y="318.2"/>
      <point x="1697.3999999999999" y="629.8" type="curve" smooth="yes"/>
      <point x="1697.3999999999999" y="1116.4204986149584"/>
      <point x="1345.4666666666667" y="1398.0666666666666"/>
      <point x="899.4" y="1398.0666666666666" type="curve" smooth="yes"/>
      <point x="408.40000000000003" y="1398.0666666666666"/>
      <point x="58.93333333333334" y="1033.8666666666666"/>
      <point x="58.93333333333334" y="559.1999999999999" type="curve" smooth="yes"/>
      <point x="58.93333333333334" y="31.666666666666664"/>
      <point x="420.53333333333336" y="-293.53333333333336"/>
      <point x="908.2666666666668" y="-293.53333333333336" type="curve" smooth="yes"/>
      <point x="1225.5333333333333" y="-293.53333333333336"/>
      <point x="1476.4666666666665" y="-158.86666666666665"/>
      <point x="1625.3333333333335" y="23.46666666666667" type="curve" smooth="yes"/>
      <point x="1652.8320447661492" y="53.85819600594199"/>
      <point x="1655.1531605494306" y="78.69789296704624"/>
      <point x="1641.3333333333333" y="90.39999999999999" type="curve" smooth="yes"/>
      <point x="1624.1999999999998" y="104.46666666666665"/>
      <point x="1603.7333333333333" y="99.26666666666667"/>
      <point x="1576.0" y="72.26666666666667" type="curve" smooth="yes"/>
      <point x="1391.4666666666667" y="-129.66666666666669"/>
      <point x="1162.6666666666667" y="-221.8"/>
      <point x="908.8000000000001" y="-221.8" type="curve" smooth="yes"/>
      <point x="460.4" y="-221.8"/>
      <point x="147.06666666666666" y="90.19999999999999"/>
      <point x="147.06666666666666" y="559.1999999999999" type="curve" smooth="yes"/>
      <point x="147.06666666666666" y="1002.0666666666667"/>
      <point x="453.6" y="1326.3333333333333"/>
      <point x="894.0666666666667" y="1326.3333333333333" type="curve" smooth="yes"/>
      <point x="1296.1333333333332" y="1326.3333333333333"/>
      <point x="1610.3333333333333" y="1065.0782526115859"/>
      <point x="1610.3333333333333" y="628.7333333333333" type="curve" smooth="yes"/>
      <point x="1610.3333333333333" y="372.2"/>
      <point x="1464.212288786482" y="231.4"/>
    </contour>
  </outline>
</glyph>
<glyph name="A" format="2">
  <advance width="1468.6666666666665"/>
  <unicode hex="0041"/>
  <anchor x="736.7333333333333" y="1468.0666666666666" name="center"/>
  <outline>
    <contour>
      <point x="314.5333333333333" y="568.0" type="line"/>
      <point x="310.66666666666663" y="477.3333333333333" type="line"/>
      <point x="853.3333333333334" y="477.3333333333333" type="line"/>
      <point x="850.9333333333334" y="568.0" type="line"/>
    </contour>
    <contour>
      <point x="453.1333333333333" y="40.00000000000001" type="curve" smooth="yes"/>
      <point x="453.1333333333333" y="59.93333333333334"/>
      <point x="441.0666666666666" y="69.93333333333334"/>
      <point x="420.33333333333337" y="79.86666666666665" type="curve" smooth="yes"/>
      <point x="396.0666666666666" y="90.13333333333335" type="line" smooth="yes"/>
      <point x="299.3784345308831" y="128.47313630740172"/>
      <point x="258.7681371712122" y="178.18728592974185"/>
      <point x="288.7333333333333" y="278.0" type="curve" smooth="yes"/>
      <point x="587.8666666666667" y="1286.6666666666667" type="line" smooth="yes"/>
      <point x="550.5333333333333" y="1231.0666666666666" type="line"/>
      <point x="874.4" y="177.2" type="line" smooth="yes"/>
      <point x="889.6" y="126.0"/>
      <point x="894.1333333333333" y="107.73333333333332"/>
      <point x="858.2666666666667" y="93.60000000000001" type="curve" smooth="yes"/>
      <point x="825.3333333333333" y="80.93333333333334" type="line" smooth="yes"/>
      <point x="801.0666666666666" y="70.53333333333335"/>
      <point x="790.1333333333333" y="60.39999999999999"/>
      <point x="790.1333333333333" y="40.00000000000001" type="curve" smooth="yes"/>
      <point x="790.1333333333333" y="15.733333333333336"/>
      <point x="805.8666666666667" y="0.0"/>
      <point x="841.6" y="0.0" type="curve" smooth="yes"/>
      <point x="1391.0666666666666" y="0.0" type="line" smooth="yes"/>
      <point x="1426.2666666666667" y="0.0"/>
      <point x="1442.5333333333333" y="15.733333333333334"/>
      <point x="1442.5333333333333" y="40.00000000000001" type="curve" smooth="yes"/>
      <point x="1442.5333333333333" y="62.000000000000014"/>
      <point x="1433.9233108807853" y="73.47000748418262"/>
      <point x="1403.6" y="88.2" type="curve" smooth="yes"/>
      <point x="1373.1177728738226" y="101.58373893408678"/>
      <point x="1356.0022709659745" y="128.09082837492855"/>
      <point x="1336.9333333333334" y="188.8" type="curve" smooth="yes"/>
      <point x="1010.1333333333333" y="1230.1333333333332" type="line" smooth="yes"/>
      <point x="993.4666666666666" y="1282.1333333333334"/>
      <point x="1000.4000000000001" y="1299.4666666666667"/>
      <point x="1026.3999999999999" y="1311.7333333333333" type="curve" smooth="yes"/>
      <point x="1054.1333333333332" y="1324.4"/>
      <point x="1066.9333333333334" y="1338.0"/>
      <point x="1066.9333333333334" y="1360.0" type="curve" smooth="yes"/>
      <point x="1066.9333333333334" y="1385.1999999999998"/>
      <point x="1050.6666666666667" y="1400.0"/>
      <point x="1015.4666666666667" y="1400.0" type="curve" smooth="yes"/>
      <point x="422.40000000000003" y="1400.0" type="line" smooth="yes"/>
      <point x="387.2" y="1400.0"/>
      <point x="370.9333333333333" y="1385.1999999999998"/>
      <point x="370.9333333333333" y="1360.0" type="curve" smooth="yes"/>
      <point x="370.9333333333333" y="1339.6000000000001"/>
      <point x="383.0" y="1327.2666666666667"/>
      <point x="413.06666666666666" y="1309.7333333333333" type="curve" smooth="yes"/>
      <point x="455.46666666666664" y="1283.9333333333334"/>
      <point x="467.66798854802687" y="1249.9902432811587"/>
      <point x="444.8" y="1172.3333333333335" type="curve" smooth="yes"/>
      <point x="176.66666666666666" y="266.93333333333334" type="line" smooth="yes"/>
      <point x="144.74584009984767" y="158.49211902842228"/>
      <point x="103.04423888499056" y="114.69548360974667"/>
      <point x="53.4" y="91.13333333333335" type="curve" smooth="yes"/>
      <point x="32.86666666666667" y="80.93333333333334" type="line" smooth="yes"/>
      <point x="13.000000000000005" y="69.33333333333331"/>
      <point x="3.2666666666666657" y="58.26666666666666"/>
      <point x="3.2666666666666657" y="40.00000000000001" type="curve" smooth="yes"/>
      <point x="3.2666666666666657" y="15.733333333333336"/>
      <point x="19.06666666666667" y="0.0"/>
      <point x="53.26666666666667" y="0.0" type="curve" smooth="yes"/>
      <point x="403.1333333333333" y="0.0" type="line" smooth="yes"/>
      <point x="437.8666666666667" y="0.0"/>
      <point x="453.1333333333333" y="15.733333333333336"/>
    </contour>
  </outline>
</glyph>
<glyph name="B" format="2">
  <advance width="1489.2"/>
  <unicode hex="0042"/>
  <outline>
    <contour>
      <point x="1450.9333333333332" y="333.6" type="curve" smooth="yes"/>
      <point x="1450.9333333333332" y="535.353488372093"/>
      <point x="1234.0" y="673.6"/>
      <point x="923.3333333333333" y="673.6" type="curve"/>
      <point x="867.6" y="648.0" type="line"/>
      <point x="1181.0666666666666" y="648.0"/>
      <point x="1370.9333333333332" y="783.0568914956012"/>
      <point x="1370.9333333333332" y="988.2666666666667" type="curve" smooth="yes"/>
      <point x="1370.9333333333332" y="1232.1333333333334"/>
      <point x="1133.0666666666666" y="1400.0"/>
      <point x="724.0" y="1400.0" type="curve" smooth="yes"/>
      <point x="127.86666666666665" y="1400.0" type="line" smooth="yes"/>
      <point x="92.66666666666667" y="1400.0"/>
      <point x="76.4" y="1384.2666666666667"/>
      <point x="76.4" y="1360.0" type="curve" smooth="yes"/>
      <point x="76.4" y="1338.5333333333333"/>
      <point x="86.26666666666667" y="1324.2666666666667"/>
      <point x="111.6" y="1315.8666666666668" type="curve" smooth="yes"/>
      <point x="158.0" y="1303.7333333333333" type="line" smooth="yes"/>
      <point x="193.86666666666667" y="1293.5333333333335"/>
      <point x="206.66666666666669" y="1279.6"/>
      <point x="206.66666666666669" y="1254.5333333333333" type="curve" smooth="yes"/>
      <point x="206.66666666666669" y="155.73333333333332" type="line" smooth="yes"/>
      <point x="206.66666666666669" y="123.2"/>
      <point x="191.06666666666666" y="106.0"/>
      <point x="158.0" y="96.26666666666668" type="curve" smooth="yes"/>
      <point x="111.6" y="84.13333333333335" type="line" smooth="yes"/>
      <point x="86.26666666666667" y="75.73333333333332"/>
      <point x="76.4" y="61.466666666666654"/>
      <point x="76.4" y="40.00000000000001" type="curve" smooth="yes"/>
      <point x="76.4" y="15.733333333333333"/>
      <point x="92.66666666666667" y="0.0"/>
      <point x="127.86666666666665" y="0.0" type="curve" smooth="yes"/>
      <point x="930.2666666666667" y="0.0" type="line" smooth="yes"/>
      <point x="1280.4307692307693" y="0.0"/>
      <point x="1450.9333333333332" y="135.4666666666667"/>
    </contour>
    <contour>
      <point x="772.2666666666667" y="611.0666666666667" type="line" smooth="yes"/>
      <point x="927.2658082975679" y="611.0666666666667"/>
      <point x="1013.6" y="512.8"/>
      <point x="1013.6" y="346.26666666666665" type="curve" smooth="yes"/>
      <point x="1013.6" y="178.66666666666666"/>
      <point x="938.7355311355311" y="80.53333333333333"/>
      <point x="817.2" y="80.53333333333333" type="curve" smooth="yes"/>
      <point x="747.0666666666666" y="80.53333333333333" type="line" smooth="yes"/>
      <point x="684.5333333333333" y="80.53333333333333"/>
      <point x="649.1999999999999" y="105.46666666666667"/>
      <point x="649.1999999999999" y="164.5333333333333" type="curve" smooth="yes"/>
      <point x="649.1999999999999" y="1319.4666666666667" type="line"/>
      <point x="674.9333333333333" y="1319.4666666666667" type="line" smooth="yes"/>
      <point x="843.1981154299175" y="1319.4666666666667"/>
      <point x="965.3333333333334" y="1180.3999999999999"/>
      <point x="965.3333333333334" y="959.8666666666667" type="curve" smooth="yes"/>
      <point x="965.3333333333334" y="766.2666666666667"/>
      <point x="893.9617391304348" y="681.4666666666667"/>
      <point x="746.1333333333333" y="681.4666666666667" type="curve" smooth="yes"/>
      <point x="568.4" y="681.4666666666667" type="line"/>
      <point x="568.4" y="611.0666666666667" type="line"/>
    </contour>
  </outline>
</glyph>
<glyph name="C" format="2">
  <advance width="1385.2"/>
  <unicode hex="0043"/>
  <anchor x="751.8" y="1515.0" name="center"/>
  <outline>
    <contour>
      <point x="1337.0" y="431.8" type="curve" smooth="yes"/>
      <point x="1337.4666666666667" y="453.59999999999997"/>
      <point x="1329.1333333333332" y="468.5333333333333"/>
      <point x="1310.3333333333333" y="471.7333333333333" type="curve" smooth="yes"/>
      <point x="1290.9333333333334" y="474.93333333333334"/>
      <point x="1275.6666666666667" y="466.73333333333335"/>
      <point x="1262.4666666666667" y="440.1333333333333" type="curve" smooth="yes"/>
      <point x="1203.7333333333333" y="261.4666666666667"/>
      <point x="1073.4" y="173.13333333333333"/>
      <point x="920.9333333333333" y="173.13333333333333" type="curve" smooth="yes"/>
      <point x="680.6" y="173.13333333333333"/>
      <point x="513.3333333333334" y="371.6"/>
      <point x="513.3333333333334" y="792.3333333333333" type="curve" smooth="yes"/>
      <point x="513.3333333333334" y="1133.646511627907"/>
      <point x="646.8344086021505" y="1330.0666666666668"/>
      <point x="837.3333333333334" y="1330.0666666666668" type="curve" smooth="yes"/>
      <point x="974.3333333333334" y="1330.0666666666668"/>
      <point x="1121.9521193094645" y="1245.5529998385105"/>
      <point x="1231.9333333333334" y="969.0" type="curve" smooth="yes"/>
      <point x="1245.4" y="936.9333333333333"/>
      <point x="1269.5333333333333" y="926.0666666666667"/>
      <point x="1297.7333333333333" y="932.8666666666666" type="curve" smooth="yes"/>
      <point x="1324.2666666666667" y="939.1333333333333"/>
      <point x="1339.0666666666666" y="962.1333333333333"/>
      <point x="1331.2666666666667" y="990.5333333333333" type="curve" smooth="yes"/>
      <point x="1235.7333333333333" y="1384.2" type="line" smooth="yes"/>
      <point x="1226.3333333333333" y="1418.3999999999999"/>
      <point x="1212.8000000000002" y="1430.8666666666666"/>
      <point x="1191.9333333333334" y="1430.8666666666666" type="curve" smooth="yes"/>
      <point x="1152.4666666666667" y="1430.8666666666666"/>
      <point x="1095.2666666666667" y="1364.7333333333333"/>
      <point x="1051.3333333333335" y="1364.7333333333333" type="curve" smooth="yes"/>
      <point x="1015.3333333333334" y="1364.7333333333333"/>
      <point x="931.4666666666667" y="1433.4666666666667"/>
      <point x="750.6666666666666" y="1433.4666666666667" type="curve" smooth="yes"/>
      <point x="342.54164193867456" y="1433.4666666666667"/>
      <point x="48.8" y="1120.6"/>
      <point x="48.8" y="685.0666666666667" type="curve" smooth="yes"/>
      <point x="48.8" y="256.93333333333334"/>
      <point x="317.66666666666663" y="-35.33333333333333"/>
      <point x="750.2666666666667" y="-35.33333333333333" type="curve" smooth="yes"/>
      <point x="1095.3333333333335" y="-35.33333333333333"/>
      <point x="1328.1333333333334" y="189.53333333333333"/>
    </contour>
  </outline>
</glyph>
<glyph name="D" format="2">
  <advance width="1597.3999999999999"/>
  <unicode hex="0044"/>
  <anchor x="774.0" y="1468.0666666666666" name="center"/>
  <outline>
    <contour>
      <point x="76.4" y="40.00000000000001" type="curve" smooth="yes"/>
      <point x="76.4" y="15.266666666666666"/>
      <point x="92.2" y="0.0"/>
      <point x="127.39999999999998" y="0.0" type="curve" smooth="yes"/>
      <point x="809.4666666666667" y="0.0" type="line" smooth="yes"/>
      <point x="1261.6000000000001" y="0.0"/>
      <point x="1546.3999999999999" y="247.86666666666665"/>
      <point x="1546.3999999999999" y="626.5333333333334" type="curve" smooth="yes"/>
      <point x="1546.3999999999999" y="1106.3333333333333"/>
      <point x="1209.5333333333333" y="1400.0"/>
      <point x="724.1333333333333" y="1400.0" type="curve" smooth="yes"/>
      <point x="127.39999999999998" y="1400.0" type="line" smooth="yes"/>
      <point x="92.66666666666667" y="1400.0"/>
      <point x="76.4" y="1385.1999999999998"/>
      <point x="76.4" y="1360.4666666666665" type="curve" smooth="yes"/>
      <point x="76.4" y="1339.0"/>
      <point x="85.8" y="1324.2666666666667"/>
      <point x="109.26666666666665" y="1316.3333333333333" type="curve" smooth="yes"/>
      <point x="160.79999999999998" y="1303.2666666666667" type="line" smooth="yes"/>
      <point x="191.53333333333333" y="1294.0"/>
      <point x="206.66666666666669" y="1279.1333333333334"/>
      <point x="206.66666666666669" y="1252.6666666666667" type="curve" smooth="yes"/>
      <point x="206.66666666666669" y="146.86666666666665" type="line" smooth="yes"/>
      <point x="206.66666666666669" y="120.4"/>
      <point x="192.0" y="106.0"/>
      <point x="160.33333333333331" y="96.73333333333335" type="curve" smooth="yes"/>
      <point x="110.66666666666666" y="84.13333333333335" type="line" smooth="yes"/>
      <point x="87.2" y="76.19999999999999"/>
      <point x="76.4" y="61.466666666666654"/>
    </contour>
    <contour>
      <point x="778.0" y="87.46666666666667" type="curve" smooth="yes"/>
      <point x="735.2" y="87.46666666666667" type="line" smooth="yes"/>
      <point x="682.6666666666666" y="87.46666666666667"/>
      <point x="653.8666666666666" y="111.60000000000001"/>
      <point x="653.8666666666666" y="164.4" type="curve" smooth="yes"/>
      <point x="653.8666666666666" y="1312.5333333333333" type="line"/>
      <point x="695.8666666666666" y="1312.5333333333333" type="line" smooth="yes"/>
      <point x="931.2666666666667" y="1312.5333333333333"/>
      <point x="1082.9333333333334" y="1081.1194594594594"/>
      <point x="1082.9333333333334" y="647.8666666666667" type="curve" smooth="yes"/>
      <point x="1082.9333333333334" y="242.4159744408946"/>
      <point x="950.8" y="87.46666666666667"/>
    </contour>
  </outline>
</glyph>
<glyph name="E" format="2">
  <advance width="1329.8666666666666"/>
  <unicode hex="0045"/>
  <anchor x="674.8" y="1467.6" name="center"/>
  <outline>
    <contour>
      <point x="531.0666666666666" y="769.3333333333334" type="line"/>
      <point x="531.0666666666666" y="683.4666666666667" type="line"/>
      <point x="776.6666666666667" y="683.4666666666667" type="line" smooth="yes"/>
      <point x="888.5333333333333" y="683.4666666666667"/>
      <point x="938.0" y="656.0"/>
      <point x="1027.1999999999998" y="537.8666666666667" type="curve" smooth="yes"/>
      <point x="1043.1999999999998" y="516.5333333333334"/>
      <point x="1063.2" y="512.6666666666666"/>
      <point x="1084.8000000000002" y="520.5333333333333" type="curve" smooth="yes"/>
      <point x="1106.9333333333334" y="528.4"/>
      <point x="1114.8" y="546.1333333333333"/>
      <point x="1107.4666666666667" y="576.0" type="curve" smooth="yes"/>
      <point x="1009.8666666666666" y="929.7333333333333" type="line" smooth="yes"/>
      <point x="1004.1333333333332" y="953.2"/>
      <point x="989.0666666666666" y="966.8"/>
      <point x="968.5333333333334" y="966.8" type="curve" smooth="yes"/>
      <point x="949.0666666666667" y="966.8"/>
      <point x="932.8000000000001" y="955.7333333333333"/>
      <point x="924.9333333333333" y="927.0666666666667" type="curve" smooth="yes"/>
      <point x="896.0" y="804.1333333333333"/>
      <point x="856.5333333333334" y="769.3333333333334"/>
      <point x="752.5333333333333" y="769.3333333333334" type="curve" smooth="yes"/>
    </contour>
    <contour>
      <point x="76.4" y="1360.0" type="curve" smooth="yes"/>
      <point x="76.4" y="1338.5333333333333"/>
      <point x="86.26666666666667" y="1324.2666666666667"/>
      <point x="111.6" y="1315.8666666666668" type="curve" smooth="yes"/>
      <point x="158.0" y="1303.7333333333333" type="line" smooth="yes"/>
      <point x="190.13333333333333" y="1294.4666666666667"/>
      <point x="206.66666666666669" y="1279.6"/>
      <point x="206.66666666666669" y="1254.5333333333333" type="curve" smooth="yes"/>
      <point x="206.66666666666669" y="145.46666666666664" type="line" smooth="yes"/>
      <point x="206.66666666666669" y="120.4"/>
      <point x="190.13333333333333" y="105.53333333333333"/>
      <point x="158.0" y="96.26666666666668" type="curve" smooth="yes"/>
      <point x="111.6" y="84.13333333333335" type="line" smooth="yes"/>
      <point x="86.26666666666667" y="75.73333333333332"/>
      <point x="76.4" y="61.466666666666654"/>
      <point x="76.4" y="40.00000000000001" type="curve" smooth="yes"/>
      <point x="76.4" y="15.733333333333333"/>
      <point x="92.66666666666667" y="0.0"/>
      <point x="127.86666666666665" y="0.0" type="curve" smooth="yes"/>
      <point x="988.2666666666667" y="0.0" type="line" smooth="yes"/>
      <point x="1060.1333333333334" y="0.0"/>
      <point x="1098.9333333333332" y="-29.46666666666667"/>
      <point x="1135.7333333333333" y="-29.46666666666667" type="curve" smooth="yes"/>
      <point x="1172.2666666666667" y="-29.46666666666667"/>
      <point x="1187.0666666666666" y="-8.933333333333334"/>
      <point x="1200.1333333333332" y="39.333333333333336" type="curve" smooth="yes"/>
      <point x="1304.8" y="452.8" type="line" smooth="yes"/>
      <point x="1313.7333333333333" y="485.5999999999999"/>
      <point x="1300.0" y="506.1333333333333"/>
      <point x="1273.0666666666668" y="512.4000000000001" type="curve" smooth="yes"/>
      <point x="1248.2666666666667" y="517.6"/>
      <point x="1227.7333333333333" y="509.2"/>
      <point x="1214.2666666666667" y="482.53333333333336" type="curve" smooth="yes"/>
      <point x="1034.8" y="158.66666666666666"/>
      <point x="921.7333333333333" y="87.46666666666667"/>
      <point x="782.9333333333333" y="87.46666666666667" type="curve" smooth="yes"/>
      <point x="740.1333333333333" y="87.46666666666667" type="line" smooth="yes"/>
      <point x="684.6666666666666" y="87.46666666666667"/>
      <point x="653.8666666666666" y="116.26666666666664"/>
      <point x="653.8666666666666" y="175.86666666666667" type="curve" smooth="yes"/>
      <point x="653.8666666666666" y="1312.5333333333333" type="line"/>
      <point x="759.4666666666667" y="1312.5333333333333" type="line" smooth="yes"/>
      <point x="903.2" y="1312.5333333333333"/>
      <point x="1001.8666666666667" y="1256.6666666666665"/>
      <point x="1179.3333333333335" y="985.4666666666666" type="curve" smooth="yes"/>
      <point x="1194.9333333333334" y="957.7333333333333"/>
      <point x="1217.6000000000001" y="946.6666666666666"/>
      <point x="1245.0666666666668" y="956.6666666666666" type="curve" smooth="yes"/>
      <point x="1268.8" y="965.6"/>
      <point x="1277.7333333333333" y="984.5333333333333"/>
      <point x="1269.3333333333333" y="1015.7333333333332" type="curve" smooth="yes"/>
      <point x="1178.2666666666667" y="1360.6666666666667" type="line" smooth="yes"/>
      <point x="1164.1333333333334" y="1410.5333333333335"/>
      <point x="1149.8666666666668" y="1429.4666666666667"/>
      <point x="1116.0" y="1429.4666666666667" type="curve" smooth="yes"/>
      <point x="1074.9333333333334" y="1429.4666666666667"/>
      <point x="1037.7333333333331" y="1400.0"/>
      <point x="965.8666666666668" y="1400.0" type="curve" smooth="yes"/>
      <point x="127.86666666666665" y="1400.0" type="line" smooth="yes"/>
      <point x="92.66666666666667" y="1400.0"/>
      <point x="76.4" y="1384.2666666666667"/>
    </contour>
  </outline>
</glyph>
<glyph name="F" format="2">
  <advance width="1235.8666666666666"/>
  <unicode hex="0046"/>
  <outline>
    <contour>
      <point x="928.4000000000001" y="1400.0" type="curve" smooth="yes"/>
      <point x="127.86666666666665" y="1400.0" type="line" smooth="yes"/>
      <point x="92.66666666666667" y="1400.0"/>
      <point x="76.4" y="1384.2666666666667"/>
      <point x="76.4" y="1360.0" type="curve" smooth="yes"/>
      <point x="76.4" y="1338.5333333333333"/>
      <point x="86.26666666666667" y="1324.2666666666667"/>
      <point x="111.6" y="1315.8666666666668" type="curve" smooth="yes"/>
      <point x="158.0" y="1303.7333333333333" type="line" smooth="yes"/>
      <point x="190.13333333333333" y="1294.4666666666667"/>
      <point x="206.66666666666669" y="1279.6"/>
      <point x="206.66666666666669" y="1254.5333333333333" type="curve" smooth="yes"/>
      <point x="206.66666666666669" y="145.46666666666664" type="line" smooth="yes"/>
      <point x="206.66666666666669" y="120.4"/>
      <point x="190.13333333333333" y="105.53333333333333"/>
      <point x="158.0" y="96.26666666666668" type="curve" smooth="yes"/>
      <point x="111.6" y="84.13333333333335" type="line" smooth="yes"/>
      <point x="86.26666666666667" y="75.73333333333332"/>
      <point x="76.4" y="61.466666666666654"/>
      <point x="76.4" y="40.00000000000001" type="curve" smooth="yes"/>
      <point x="76.4" y="15.733333333333333"/>
      <point x="92.66666666666667" y="0.0"/>
      <point x="127.86666666666665" y="0.0" type="curve" smooth="yes"/>
      <point x="772.0" y="0.0" type="line" smooth="yes"/>
      <point x="807.1999999999999" y="0.0"/>
      <point x="823.4666666666667" y="15.733333333333333"/>
      <point x="823.4666666666667" y="40.00000000000001" type="curve" smooth="yes"/>
      <point x="823.4666666666667" y="66.26666666666668"/>
      <point x="812.0" y="79.4"/>
      <point x="784.0" y="84.66666666666666" type="curve" smooth="yes"/>
      <point x="702.5333333333334" y="96.26666666666668" type="line" smooth="yes"/>
      <point x="668.8000000000001" y="101.93333333333334"/>
      <point x="653.8666666666666" y="119.86666666666669"/>
      <point x="653.8666666666666" y="145.4666666666667" type="curve" smooth="yes"/>
      <point x="653.8666666666666" y="1312.5333333333333" type="line"/>
      <point x="732.9333333333333" y="1312.5333333333333" type="line" smooth="yes"/>
      <point x="875.5999999999999" y="1312.5333333333333"/>
      <point x="986.1333333333333" y="1242.1333333333332"/>
      <point x="1141.3333333333333" y="982.8" type="curve" smooth="yes"/>
      <point x="1156.4" y="954.5333333333333"/>
      <point x="1178.0" y="949.3333333333334"/>
      <point x="1198.5333333333333" y="952.9333333333334" type="curve" smooth="yes"/>
      <point x="1223.8666666666666" y="957.6"/>
      <point x="1240.2666666666667" y="976.0"/>
      <point x="1232.9333333333332" y="1003.4666666666666" type="curve" smooth="yes"/>
      <point x="1140.2666666666667" y="1360.6666666666667" type="line" smooth="yes"/>
      <point x="1127.2" y="1409.4666666666667"/>
      <point x="1111.8666666666666" y="1426.8"/>
      <point x="1075.8666666666666" y="1426.8" type="curve" smooth="yes"/>
      <point x="1043.8666666666666" y="1426.8"/>
      <point x="1000.2666666666667" y="1400.0"/>
    </contour>
    <contour>
      <point x="521.8666666666667" y="733.8666666666667" type="line"/>
      <point x="521.8666666666667" y="648.0" type="line"/>
      <point x="778.5333333333333" y="648.0" type="line" smooth="yes"/>
      <point x="887.7333333333333" y="648.0"/>
      <point x="932.5333333333333" y="617.0666666666667"/>
      <point x="1018.1333333333332" y="506.66666666666663" type="curve" smooth="yes"/>
      <point x="1037.3333333333333" y="482.1333333333333"/>
      <point x="1056.2666666666667" y="477.20000000000005"/>
      <point x="1078.4" y="485.6" type="curve" smooth="yes"/>
      <point x="1098.3999999999999" y="493.4666666666666"/>
      <point x="1108.4" y="509.6"/>
      <point x="1101.0666666666666" y="538.9333333333334" type="curve" smooth="yes"/>
      <point x="1022.1333333333334" y="894.2666666666667" type="line" smooth="yes"/>
      <point x="1016.4" y="918.2666666666667"/>
      <point x="999.7333333333335" y="929.1999999999999"/>
      <point x="978.6666666666667" y="929.1999999999999" type="curve" smooth="yes"/>
      <point x="959.7333333333333" y="929.1999999999999"/>
      <point x="944.5333333333333" y="920.8"/>
      <point x="936.6666666666666" y="894.8000000000001" type="curve" smooth="yes"/>
      <point x="905.0666666666666" y="768.6666666666666"/>
      <point x="861.8666666666667" y="733.8666666666667"/>
      <point x="751.7333333333333" y="733.8666666666667" type="curve" smooth="yes"/>
    </contour>
  </outline>
</glyph>
<glyph name="G" format="2">
  <advance width="1499.5333333333333"/>
  <unicode hex="0047"/>
  <anchor x="767.2" y="1511.3333333333333" name="center"/>
  <outline>
    <contour>
      <point x="1355.0" y="22.66666666666667" type="curve" smooth="yes"/>
      <point x="1355.0" y="539.3333333333333" type="line" smooth="yes"/>
      <point x="1355.0" y="564.4"/>
      <point x="1367.8000000000002" y="576.6"/>
      <point x="1390.6" y="584.8" type="curve" smooth="yes"/>
      <point x="1419.6666666666667" y="594.2666666666667" type="line" smooth="yes"/>
      <point x="1443.3999999999999" y="603.6666666666666"/>
      <point x="1454.8666666666668" y="614.2666666666667"/>
      <point x="1454.8666666666668" y="634.6666666666666" type="curve" smooth="yes"/>
      <point x="1454.8666666666668" y="656.8000000000001"/>
      <point x="1438.6" y="672.5333333333333"/>
      <point x="1402.8666666666668" y="672.5333333333333" type="curve" smooth="yes"/>
      <point x="856.4666666666667" y="672.5333333333333" type="line" smooth="yes"/>
      <point x="821.2666666666667" y="672.5333333333333"/>
      <point x="805.0" y="657.3333333333334"/>
      <point x="805.0" y="634.1333333333333" type="curve" smooth="yes"/>
      <point x="805.0" y="612.6666666666666"/>
      <point x="820.1999999999999" y="600.0"/>
      <point x="847.6666666666666" y="592.6666666666666" type="curve" smooth="yes"/>
      <point x="906.6" y="581.0666666666667" type="line" smooth="yes"/>
      <point x="942.4666666666666" y="572.8"/>
      <point x="955.2666666666667" y="561.7333333333333"/>
      <point x="955.2666666666667" y="539.3333333333333" type="curve" smooth="yes"/>
      <point x="955.2666666666667" y="227.2" type="line" smooth="yes"/>
      <point x="955.2666666666667" y="163.06666666666666"/>
      <point x="911.3333333333333" y="109.46666666666665"/>
      <point x="844.8666666666667" y="109.46666666666665" type="curve" smooth="yes"/>
      <point x="659.0" y="109.46666666666665"/>
      <point x="503.53333333333336" y="330.5333333333333"/>
      <point x="503.53333333333336" y="745.2" type="curve" smooth="yes"/>
      <point x="503.53333333333336" y="1130.4666666666667"/>
      <point x="623.4666666666666" y="1337.0666666666668"/>
      <point x="829.1333333333333" y="1337.0666666666668" type="curve" smooth="yes"/>
      <point x="981.7333333333332" y="1337.0666666666668"/>
      <point x="1142.6666666666665" y="1242.7333333333333"/>
      <point x="1272.2" y="935.8666666666667" type="curve" smooth="yes"/>
      <point x="1285.6666666666667" y="907.0666666666667"/>
      <point x="1308.8666666666668" y="897.6"/>
      <point x="1334.7333333333333" y="904.4" type="curve" smooth="yes"/>
      <point x="1358.4666666666667" y="910.6666666666666"/>
      <point x="1373.2666666666667" y="932.2666666666667"/>
      <point x="1365.9333333333332" y="959.7333333333333" type="curve" smooth="yes"/>
      <point x="1276.4666666666667" y="1380.0" type="line" smooth="yes"/>
      <point x="1267.0666666666666" y="1417.4666666666665"/>
      <point x="1254.4666666666667" y="1428.5333333333333"/>
      <point x="1235.0" y="1428.5333333333333" type="curve" smooth="yes"/>
      <point x="1185.2666666666667" y="1428.5333333333333"/>
      <point x="1118.7333333333333" y="1361.4666666666667"/>
      <point x="1065.9333333333332" y="1361.4666666666667" type="curve" smooth="yes"/>
      <point x="1026.8000000000002" y="1361.4666666666667"/>
      <point x="953.2666666666667" y="1430.6666666666667"/>
      <point x="782.6" y="1430.6666666666667" type="curve" smooth="yes"/>
      <point x="351.33333333333337" y="1430.6666666666667"/>
      <point x="50.199999999999996" y="1115.6666666666667"/>
      <point x="50.199999999999996" y="674.8" type="curve" smooth="yes"/>
      <point x="50.199999999999996" y="246.73333333333332"/>
      <point x="309.1333333333333" y="-30.133333333333333"/>
      <point x="712.7333333333332" y="-30.133333333333333" type="curve" smooth="yes"/>
      <point x="905.2666666666667" y="-30.133333333333333"/>
      <point x="986.9333333333334" y="83.46666666666667"/>
      <point x="1036.4666666666667" y="83.46666666666667" type="curve" smooth="yes"/>
      <point x="1103.8666666666668" y="83.46666666666667"/>
      <point x="1239.8666666666666" y="-31.599999999999998"/>
      <point x="1306.3333333333335" y="-31.599999999999998" type="curve" smooth="yes"/>
      <point x="1339.2666666666669" y="-31.599999999999998"/>
      <point x="1355.0" y="-15.466666666666669"/>
    </contour>
  </outline>
</glyph>
<glyph name="H" format="2">
  <advance width="1712.1333333333332"/>
  <unicode hex="0048"/>
  <outline>
    <contour>
      <point x="412.8" y="704.8" type="line"/>
      <point x="412.8" y="614.1333333333334" type="line"/>
      <point x="1222.9333333333332" y="614.1333333333334" type="line"/>
      <point x="1222.9333333333332" y="704.8" type="line"/>
    </contour>
    <contour>
      <point x="658.5333333333333" y="145.46666666666664" type="curve" smooth="yes"/>
      <point x="658.5333333333333" y="1254.5333333333333" type="line" smooth="yes"/>
      <point x="658.5333333333333" y="1279.6"/>
      <point x="675.0666666666666" y="1294.4666666666667"/>
      <point x="707.1999999999999" y="1303.7333333333333" type="curve" smooth="yes"/>
      <point x="753.6" y="1315.8666666666668" type="line" smooth="yes"/>
      <point x="778.9333333333334" y="1324.2666666666667"/>
      <point x="788.8" y="1338.5333333333333"/>
      <point x="788.8" y="1360.0" type="curve" smooth="yes"/>
      <point x="788.8" y="1384.2666666666667"/>
      <point x="772.5333333333333" y="1400.0"/>
      <point x="737.3333333333334" y="1400.0" type="curve" smooth="yes"/>
      <point x="132.5333333333333" y="1400.0" type="line" smooth="yes"/>
      <point x="97.33333333333333" y="1400.0"/>
      <point x="81.06666666666666" y="1384.2666666666667"/>
      <point x="81.06666666666666" y="1360.0" type="curve" smooth="yes"/>
      <point x="81.06666666666666" y="1338.5333333333333"/>
      <point x="90.93333333333334" y="1324.2666666666667"/>
      <point x="116.26666666666665" y="1315.8666666666668" type="curve" smooth="yes"/>
      <point x="162.66666666666666" y="1303.7333333333333" type="line" smooth="yes"/>
      <point x="194.8" y="1294.4666666666667"/>
      <point x="211.33333333333334" y="1279.6"/>
      <point x="211.33333333333334" y="1254.5333333333333" type="curve" smooth="yes"/>
      <point x="211.33333333333334" y="145.46666666666664" type="line" smooth="yes"/>
      <point x="211.33333333333334" y="120.4"/>
      <point x="194.8" y="105.53333333333333"/>
      <point x="162.66666666666666" y="96.26666666666668" type="curve" smooth="yes"/>
      <point x="116.26666666666665" y="84.13333333333335" type="line" smooth="yes"/>
      <point x="90.93333333333334" y="75.73333333333332"/>
      <point x="81.06666666666666" y="61.466666666666654"/>
      <point x="81.06666666666666" y="40.00000000000001" type="curve" smooth="yes"/>
      <point x="81.06666666666666" y="15.733333333333333"/>
      <point x="97.33333333333333" y="0.0"/>
      <point x="132.5333333333333" y="0.0" type="curve" smooth="yes"/>
      <point x="737.3333333333334" y="0.0" type="line" smooth="yes"/>
      <point x="772.5333333333333" y="0.0"/>
      <point x="788.8" y="15.733333333333333"/>
      <point x="788.8" y="40.00000000000001" type="curve" smooth="yes"/>
      <point x="788.8" y="61.466666666666654"/>
      <point x="778.9333333333334" y="75.73333333333332"/>
      <point x="753.6" y="84.13333333333335" type="curve" smooth="yes"/>
      <point x="707.1999999999999" y="96.26666666666668" type="line" smooth="yes"/>
      <point x="675.0666666666666" y="105.53333333333333"/>
      <point x="658.5333333333333" y="120.4"/>
    </contour>
    <contour>
      <point x="1500.8" y="145.46666666666664" type="curve" smooth="yes"/>
      <point x="1500.8" y="1254.5333333333333" type="line" smooth="yes"/>
      <point x="1500.8" y="1279.6"/>
      <point x="1517.3333333333333" y="1294.4666666666667"/>
      <point x="1549.4666666666665" y="1303.7333333333333" type="curve" smooth="yes"/>
      <point x="1595.8666666666668" y="1315.8666666666668" type="line" smooth="yes"/>
      <point x="1621.2" y="1324.2666666666667"/>
      <point x="1631.0666666666666" y="1338.5333333333333"/>
      <point x="1631.0666666666666" y="1360.0" type="curve" smooth="yes"/>
      <point x="1631.0666666666666" y="1384.2666666666667"/>
      <point x="1614.8" y="1400.0"/>
      <point x="1579.6" y="1400.0" type="curve" smooth="yes"/>
      <point x="974.8" y="1400.0" type="line" smooth="yes"/>
      <point x="939.6" y="1400.0"/>
      <point x="923.3333333333333" y="1384.2666666666667"/>
      <point x="923.3333333333333" y="1360.0" type="curve" smooth="yes"/>
      <point x="923.3333333333333" y="1338.5333333333333"/>
      <point x="933.2" y="1324.2666666666667"/>
      <point x="958.5333333333334" y="1315.8666666666668" type="curve" smooth="yes"/>
      <point x="1004.9333333333333" y="1303.7333333333333" type="line" smooth="yes"/>
      <point x="1037.0666666666666" y="1294.4666666666667"/>
      <point x="1053.6000000000001" y="1279.6"/>
      <point x="1053.6000000000001" y="1254.5333333333333" type="curve" smooth="yes"/>
      <point x="1053.6000000000001" y="145.46666666666664" type="line" smooth="yes"/>
      <point x="1053.6000000000001" y="120.4"/>
      <point x="1037.0666666666666" y="105.53333333333333"/>
      <point x="1004.9333333333333" y="96.26666666666668" type="curve" smooth="yes"/>
      <point x="958.5333333333334" y="84.13333333333335" type="line" smooth="yes"/>
      <point x="933.2" y="75.73333333333332"/>
      <point x="923.3333333333333" y="61.466666666666654"/>
      <point x="923.3333333333333" y="40.00000000000001" type="curve" smooth="yes"/>
      <point x="923.3333333333333" y="15.733333333333333"/>
      <point x="939.6" y="0.0"/>
      <point x="974.8" y="0.0" type="curve" smooth="yes"/>
      <point x="1579.6" y="0.0" type="line" smooth="yes"/>
      <point x="1614.8" y="0.0"/>
      <point x="1631.0666666666666" y="15.733333333333333"/>
      <point x="1631.0666666666666" y="40.00000000000001" type="curve" smooth="yes"/>
      <point x="1631.0666666666666" y="61.466666666666654"/>
      <point x="1621.2" y="75.73333333333332"/>
      <point x="1595.8666666666668" y="84.13333333333335" type="curve" smooth="yes"/>
      <point x="1549.4666666666665" y="96.26666666666668" type="line" smooth="yes"/>
      <point x="1517.3333333333333" y="105.53333333333333"/>
      <point x="1500.8" y="120.4"/>
    </contour>
  </outline>
</glyph>
<glyph name="I" format="2">
  <advance width="860.5333333333333"/>
  <unicode hex="0049"/>
  <outline>
    <contour>
      <point x="653.8666666666666" y="145.46666666666664" type="curve" smooth="yes"/>
      <point x="653.8666666666666" y="1254.5333333333333" type="line" smooth="yes"/>
      <point x="653.8666666666666" y="1279.6"/>
      <point x="670.4" y="1294.4666666666667"/>
      <point x="702.5333333333333" y="1303.7333333333333" type="curve" smooth="yes"/>
      <point x="748.9333333333333" y="1315.8666666666668" type="line" smooth="yes"/>
      <point x="774.2666666666667" y="1324.2666666666667"/>
      <point x="784.1333333333333" y="1338.5333333333333"/>
      <point x="784.1333333333333" y="1360.0" type="curve" smooth="yes"/>
      <point x="784.1333333333333" y="1384.2666666666667"/>
      <point x="767.8666666666667" y="1400.0"/>
      <point x="732.6666666666666" y="1400.0" type="curve" smooth="yes"/>
      <point x="127.86666666666665" y="1400.0" type="line" smooth="yes"/>
      <point x="92.66666666666667" y="1400.0"/>
      <point x="76.4" y="1384.2666666666667"/>
      <point x="76.4" y="1360.0" type="curve" smooth="yes"/>
      <point x="76.4" y="1338.5333333333333"/>
      <point x="86.26666666666667" y="1324.2666666666667"/>
      <point x="111.6" y="1315.8666666666668" type="curve" smooth="yes"/>
      <point x="158.0" y="1303.7333333333333" type="line" smooth="yes"/>
      <point x="190.13333333333333" y="1294.4666666666667"/>
      <point x="206.66666666666669" y="1279.6"/>
      <point x="206.66666666666669" y="1254.5333333333333" type="curve" smooth="yes"/>
      <point x="206.66666666666669" y="145.46666666666664" type="line" smooth="yes"/>
      <point x="206.66666666666669" y="120.4"/>
      <point x="190.13333333333333" y="105.53333333333333"/>
      <point x="158.0" y="96.26666666666668" type="curve" smooth="yes"/>
      <point x="111.6" y="84.13333333333335" type="line" smooth="yes"/>
      <point x="86.26666666666667" y="75.73333333333332"/>
      <point x="76.4" y="61.466666666666654"/>
      <point x="76.4" y="40.00000000000001" type="curve" smooth="yes"/>
      <point x="76.4" y="15.733333333333333"/>
      <point x="92.66666666666667" y="0.0"/>
      <point x="127.86666666666665" y="0.0" type="curve" smooth="yes"/>
      <point x="732.6666666666666" y="0.0" type="line" smooth="yes"/>
      <point x="767.8666666666667" y="0.0"/>
      <point x="784.1333333333333" y="15.733333333333333"/>
      <point x="784.1333333333333" y="40.00000000000001" type="curve" smooth="yes"/>
      <point x="784.1333333333333" y="61.466666666666654"/>
      <point x="774.2666666666667" y="75.73333333333332"/>
      <point x="748.9333333333333" y="84.13333333333335" type="curve" smooth="yes"/>
      <point x="702.5333333333333" y="96.26666666666668" type="line" smooth="yes"/>
      <point x="670.4" y="105.53333333333333"/>
      <point x="653.8666666666666" y="120.4"/>
    </contour>
  </outline>
</glyph>
<glyph name="J" format="2">
  <advance width="1061.2"/>
  <unicode hex="004A"/>
  <anchor x="624.1333333333333" y="1463.4666666666667" name="center"/>
  <outline>
    <contour>
      <point x="953.0666666666667" y="287.6" type="curve" smooth="yes"/>
      <point x="953.0666666666667" y="445.2666666666667"/>
      <point x="851.7333333333333" y="518.9333333333334"/>
      <point x="851.7333333333333" y="733.3333333333334" type="curve" smooth="yes"/>
      <point x="851.7333333333333" y="1252.2" type="line" smooth="yes"/>
      <point x="851.7333333333333" y="1279.1333333333332"/>
      <point x="867.3333333333334" y="1293.0666666666668"/>
      <point x="899.0" y="1303.2666666666667" type="curve" smooth="yes"/>
      <point x="936.5333333333333" y="1314.9333333333334" type="line" smooth="yes"/>
      <point x="968.4" y="1325.2"/>
      <point x="980.1333333333332" y="1338.0666666666666"/>
      <point x="980.1333333333332" y="1360.0" type="curve" smooth="yes"/>
      <point x="980.1333333333332" y="1384.7333333333333"/>
      <point x="963.4000000000001" y="1400.0"/>
      <point x="926.3333333333334" y="1400.0" type="curve" smooth="yes"/>
      <point x="313.93333333333334" y="1400.0" type="line" smooth="yes"/>
      <point x="280.1333333333333" y="1400.0"/>
      <point x="261.06666666666666" y="1384.7333333333333"/>
      <point x="261.06666666666666" y="1359.0666666666668" type="curve" smooth="yes"/>
      <point x="261.06666666666666" y="1332.8"/>
      <point x="273.4666666666667" y="1320.1333333333334"/>
      <point x="303.3333333333333" y="1313.9333333333334" type="curve" smooth="yes"/>
      <point x="361.93333333333334" y="1302.8" type="line" smooth="yes"/>
      <point x="394.26666666666665" y="1296.6666666666667"/>
      <point x="405.4666666666667" y="1276.8666666666668"/>
      <point x="405.4666666666667" y="1244.7333333333331" type="curve" smooth="yes"/>
      <point x="405.4666666666667" y="716.4" type="line" smooth="yes"/>
      <point x="405.4666666666667" y="427.6459082675857"/>
      <point x="587.2" y="320.86890762763414"/>
      <point x="587.2" y="172.93333333333334" type="curve" smooth="yes"/>
      <point x="587.2" y="88.42344001842044"/>
      <point x="547.1280528052805" y="40.26666666666666"/>
      <point x="484.26666666666665" y="40.26666666666666" type="curve" smooth="yes"/>
      <point x="418.0" y="40.26666666666666"/>
      <point x="389.2" y="82.16524216524215"/>
      <point x="389.2" y="150.66666666666666" type="curve" smooth="yes"/>
      <point x="389.2" y="249.06666666666666" type="line" smooth="yes"/>
      <point x="389.2" y="379.1573643410853"/>
      <point x="313.98781362007173" y="453.4666666666667"/>
      <point x="215.73333333333335" y="453.4666666666667" type="curve" smooth="yes"/>
      <point x="96.53639143730886" y="453.4666666666667"/>
      <point x="25.333333333333332" y="371.7142857142857"/>
      <point x="25.333333333333332" y="249.73333333333335" type="curve" smooth="yes"/>
      <point x="25.333333333333332" y="78.24444444444444"/>
      <point x="187.21627118644068" y="-33.199999999999996"/>
      <point x="465.59999999999997" y="-33.199999999999996" type="curve" smooth="yes"/>
      <point x="767.7829097070927" y="-33.199999999999996"/>
      <point x="953.0666666666667" y="94.46016260162601"/>
    </contour>
  </outline>
</glyph>
<glyph name="K" format="2">
  <advance width="1626.9333333333334"/>
  <unicode hex="004B"/>
  <anchor x="866.4666666666667" y="1471.6666666666665" name="center"/>
  <outline>
    <contour>
      <point x="553.9999999999999" y="571.2" type="line"/>
      <point x="591.7333333333333" y="488.53333333333336" type="line"/>
      <point x="1161.7333333333333" y="1025.2" type="line" smooth="yes"/>
      <point x="1400.0" y="1253.2"/>
      <point x="1453.1333333333334" y="1289.4666666666667"/>
      <point x="1507.8666666666666" y="1314.8" type="curve" smooth="yes"/>
      <point x="1542.1333333333334" y="1329.5333333333333"/>
      <point x="1553.4666666666667" y="1338.1866666666667"/>
      <point x="1553.4666666666667" y="1360.4666666666665" type="curve" smooth="yes"/>
      <point x="1553.4666666666667" y="1384.5"/>
      <point x="1537.6666666666667" y="1400.0"/>
      <point x="1502.9333333333334" y="1400.0" type="curve" smooth="yes"/>
      <point x="1036.2666666666667" y="1400.0" type="line" smooth="yes"/>
      <point x="1001.5333333333333" y="1400.0"/>
      <point x="985.7333333333333" y="1384.2666666666667"/>
      <point x="985.7333333333333" y="1360.0" type="curve" smooth="yes"/>
      <point x="985.7333333333333" y="1339.0"/>
      <point x="995.6666666666666" y="1326.8666666666668"/>
      <point x="1018.5333333333333" y="1316.9333333333334" type="curve" smooth="yes"/>
      <point x="1043.3333333333333" y="1307.2" type="line" smooth="yes"/>
      <point x="1151.2666666666667" y="1269.1333333333334"/>
      <point x="1158.5333333333333" y="1158.3333333333335"/>
      <point x="1030.5333333333333" y="1032.6000000000001" type="curve" smooth="yes"/>
    </contour>
    <contour>
      <point x="725.8000000000001" y="699.8666666666667" type="line"/>
      <point x="998.7333333333333" y="167.26666666666665" type="line" smooth="yes"/>
      <point x="1026.5333333333333" y="114.6"/>
      <point x="1019.9333333333334" y="96.79999999999998"/>
      <point x="1000.6" y="91.06666666666668" type="curve" smooth="yes"/>
      <point x="964.8" y="82.00000000000001" type="line" smooth="yes"/>
      <point x="947.6666666666666" y="76.20000000000002"/>
      <point x="936.2666666666667" y="62.46666666666668"/>
      <point x="936.2666666666667" y="41.00000000000001" type="curve" smooth="yes"/>
      <point x="936.2666666666667" y="15.26666666666667"/>
      <point x="952.5333333333333" y="0.0"/>
      <point x="987.2666666666667" y="0.0" type="curve" smooth="yes"/>
      <point x="1568.6" y="0.0" type="line" smooth="yes"/>
      <point x="1603.3333333333333" y="0.0"/>
      <point x="1619.6" y="15.26666666666667"/>
      <point x="1619.6" y="40.00000000000001" type="curve" smooth="yes"/>
      <point x="1619.6" y="59.46666666666667"/>
      <point x="1610.7333333333333" y="75.80000000000001"/>
      <point x="1588.2666666666667" y="86.4" type="curve" smooth="yes"/>
      <point x="1557.6666666666667" y="92.60000000000001"/>
      <point x="1538.8666666666666" y="112.33333333333334"/>
      <point x="1506.4" y="172.33333333333334" type="curve" smooth="yes"/>
      <point x="1059.9333333333334" y="998.6666666666667" type="line"/>
    </contour>
    <contour>
      <point x="653.8666666666666" y="145.46666666666664" type="curve" smooth="yes"/>
      <point x="653.8666666666666" y="1254.5333333333333" type="line" smooth="yes"/>
      <point x="653.8666666666666" y="1279.6"/>
      <point x="670.4" y="1294.4666666666667"/>
      <point x="702.5333333333333" y="1303.7333333333333" type="curve" smooth="yes"/>
      <point x="748.9333333333333" y="1315.8666666666668" type="line" smooth="yes"/>
      <point x="774.2666666666667" y="1324.2666666666667"/>
      <point x="784.1333333333333" y="1338.5333333333333"/>
      <point x="784.1333333333333" y="1360.0" type="curve" smooth="yes"/>
      <point x="784.1333333333333" y="1384.2666666666667"/>
      <point x="767.8666666666667" y="1400.0"/>
      <point x="732.6666666666666" y="1400.0" type="curve" smooth="yes"/>
      <point x="127.86666666666665" y="1400.0" type="line" smooth="yes"/>
      <point x="92.66666666666667" y="1400.0"/>
      <point x="76.4" y="1384.2666666666667"/>
      <point x="76.4" y="1360.0" type="curve" smooth="yes"/>
      <point x="76.4" y="1338.5333333333333"/>
      <point x="86.26666666666667" y="1324.2666666666667"/>
      <point x="111.6" y="1315.8666666666668" type="curve" smooth="yes"/>
      <point x="158.0" y="1303.7333333333333" type="line" smooth="yes"/>
      <point x="190.13333333333333" y="1294.4666666666667"/>
      <point x="206.66666666666669" y="1279.6"/>
      <point x="206.66666666666669" y="1254.5333333333333" type="curve" smooth="yes"/>
      <point x="206.66666666666669" y="145.46666666666664" type="line" smooth="yes"/>
      <point x="206.66666666666669" y="120.4"/>
      <point x="190.13333333333333" y="105.53333333333333"/>
      <point x="158.0" y="96.26666666666668" type="curve" smooth="yes"/>
      <point x="111.6" y="84.13333333333335" type="line" smooth="yes"/>
      <point x="86.26666666666667" y="75.73333333333332"/>
      <point x="76.4" y="61.466666666666654"/>
      <point x="76.4" y="40.00000000000001" type="curve" smooth="yes"/>
      <point x="76.4" y="15.733333333333333"/>
      <point x="92.66666666666667" y="0.0"/>
      <point x="127.86666666666665" y="0.0" type="curve" smooth="yes"/>
      <point x="722.0" y="0.0" type="line" smooth="yes"/>
      <point x="757.1999999999999" y="0.0"/>
      <point x="773.4666666666667" y="15.733333333333333"/>
      <point x="773.4666666666667" y="40.00000000000001" type="curve" smooth="yes"/>
      <point x="773.4666666666667" y="61.46666666666666"/>
      <point x="765.7333333333333" y="72.53333333333333"/>
      <point x="738.2666666666667" y="84.13333333333333" type="curve" smooth="yes"/>
      <point x="697.1999999999999" y="96.26666666666667" type="line" smooth="yes"/>
      <point x="667.1999999999999" y="106.60000000000001"/>
      <point x="653.8666666666666" y="120.39999999999998"/>
    </contour>
  </outline>
</glyph>
<glyph name="L" format="2">
  <advance width="1270.5333333333333"/>
  <unicode hex="004C"/>
  <anchor x="881.2666666666667" y="1368.2666666666667" name="right"/>
  <anchor x="437.4666666666667" y="1486.0" name="center"/>
  <outline>
    <contour>
      <point x="748.9333333333333" y="1315.8666666666668" type="line" smooth="yes"/>
      <point x="774.2666666666667" y="1324.2666666666667"/>
      <point x="784.1333333333333" y="1338.5333333333333"/>
      <point x="784.1333333333333" y="1360.0" type="curve" smooth="yes"/>
      <point x="784.1333333333333" y="1384.2666666666667"/>
      <point x="767.8666666666667" y="1400.0"/>
      <point x="732.6666666666666" y="1400.0" type="curve" smooth="yes"/>
      <point x="127.86666666666665" y="1400.0" type="line" smooth="yes"/>
      <point x="92.66666666666667" y="1400.0"/>
      <point x="76.4" y="1384.2666666666667"/>
      <point x="76.4" y="1360.0" type="curve" smooth="yes"/>
      <point x="76.4" y="1338.5333333333333"/>
      <point x="86.26666666666667" y="1324.2666666666667"/>
      <point x="111.6" y="1315.8666666666668" type="curve" smooth="yes"/>
      <point x="158.0" y="1303.7333333333333" type="line" smooth="yes"/>
      <point x="190.13333333333333" y="1294.4666666666667"/>
      <point x="206.66666666666669" y="1279.6"/>
      <point x="206.66666666666669" y="1254.5333333333333" type="curve" smooth="yes"/>
      <point x="206.66666666666669" y="145.46666666666664" type="line" smooth="yes"/>
      <point x="206.66666666666669" y="120.4"/>
      <point x="190.13333333333333" y="105.53333333333333"/>
      <point x="158.0" y="96.26666666666668" type="curve" smooth="yes"/>
      <point x="111.6" y="84.13333333333335" type="line" smooth="yes"/>
      <point x="86.26666666666667" y="75.73333333333332"/>
      <point x="76.4" y="61.466666666666654"/>
      <point x="76.4" y="40.00000000000001" type="curve" smooth="yes"/>
      <point x="76.4" y="15.733333333333333"/>
      <point x="92.66666666666667" y="0.0"/>
      <point x="127.86666666666665" y="0.0" type="curve" smooth="yes"/>
      <point x="944.2666666666667" y="0.0" type="line" smooth="yes"/>
      <point x="1016.1333333333333" y="0.0"/>
      <point x="1060.2666666666669" y="-29.46666666666667"/>
      <point x="1091.7333333333333" y="-29.46666666666667" type="curve" smooth="yes"/>
      <point x="1127.7333333333333" y="-29.46666666666667"/>
      <point x="1143.0666666666666" y="-10.4"/>
      <point x="1156.1333333333334" y="39.333333333333336" type="curve" smooth="yes"/>
      <point x="1255.2" y="469.3333333333333" type="line" smooth="yes"/>
      <point x="1264.1333333333332" y="502.6666666666667"/>
      <point x="1252.0" y="520.5333333333334"/>
      <point x="1225.2" y="528.4000000000001" type="curve" smooth="yes"/>
      <point x="1199.8666666666668" y="536.2666666666667"/>
      <point x="1178.8" y="527.8666666666667"/>
      <point x="1165.1999999999998" y="499.06666666666666" type="curve" smooth="yes"/>
      <point x="1070.2" y="318.93333333333334" type="line" smooth="yes"/>
      <point x="971.4666666666666" y="130.8"/>
      <point x="888.1333333333333" y="87.46666666666667"/>
      <point x="786.4" y="87.46666666666667" type="curve" smooth="yes"/>
      <point x="718.2666666666667" y="87.46666666666667" type="line" smooth="yes"/>
      <point x="677.2" y="87.46666666666667"/>
      <point x="653.8666666666666" y="102.26666666666665"/>
      <point x="653.8666666666666" y="148.0" type="curve" smooth="yes"/>
      <point x="653.8666666666666" y="1254.5333333333333" type="line" smooth="yes"/>
      <point x="653.8666666666666" y="1279.6"/>
      <point x="670.4" y="1294.4666666666667"/>
      <point x="702.5333333333333" y="1303.7333333333333" type="curve" smooth="yes"/>
    </contour>
  </outline>
</glyph>
<glyph name="M" format="2">
  <advance width="1853.5333333333333"/>
  <unicode hex="004D"/>
  <anchor x="856.8" y="1481.2" name="center"/>
  <outline>
    <contour>
      <point x="985.9333333333333" y="569.0" type="line"/>
      <point x="704.0666666666667" y="1314.6666666666667" type="line" smooth="yes"/>
      <point x="678.0" y="1382.3999999999999"/>
      <point x="649.4" y="1400.0"/>
      <point x="598.1333333333333" y="1400.0" type="curve" smooth="yes"/>
      <point x="173.53333333333333" y="1400.0" type="line" smooth="yes"/>
      <point x="138.86666666666667" y="1400.0"/>
      <point x="122.06666666666668" y="1384.2666666666667"/>
      <point x="122.06666666666668" y="1360.0" type="curve" smooth="yes"/>
      <point x="122.06666666666668" y="1336.9333333333334"/>
      <point x="133.0" y="1323.7333333333333"/>
      <point x="157.26666666666668" y="1315.8666666666668" type="curve" smooth="yes"/>
      <point x="202.73333333333335" y="1303.7333333333333" type="line" smooth="yes"/>
      <point x="244.26666666666665" y="1291.4666666666667"/>
      <point x="254.93333333333337" y="1246.4666666666667"/>
      <point x="247.06666666666666" y="1147.0" type="curve" smooth="yes"/>
      <point x="173.0" y="231.66666666666666" type="line" smooth="yes"/>
      <point x="167.06666666666666" y="159.79999999999998"/>
      <point x="117.2" y="115.73333333333335"/>
      <point x="59.866666666666674" y="93.86666666666667" type="curve" smooth="yes"/>
      <point x="39.8" y="85.73333333333335" type="line" smooth="yes"/>
      <point x="18.33333333333333" y="75.73333333333335"/>
      <point x="3.266666666666662" y="64.66666666666667"/>
      <point x="3.266666666666662" y="40.00000000000001" type="curve" smooth="yes"/>
      <point x="3.266666666666662" y="15.733333333333336"/>
      <point x="18.53333333333334" y="0.0"/>
      <point x="53.26666666666667" y="0.0" type="curve" smooth="yes"/>
      <point x="385.1333333333333" y="0.0" type="line" smooth="yes"/>
      <point x="419.3333333333333" y="0.0"/>
      <point x="434.6666666666667" y="16.800000000000004"/>
      <point x="434.6666666666667" y="41.60000000000001" type="curve" smooth="yes"/>
      <point x="434.6666666666667" y="59.93333333333332"/>
      <point x="426.2666666666667" y="71.53333333333332"/>
      <point x="410.3333333333333" y="79.33333333333331" type="curve" smooth="yes"/>
      <point x="386.0666666666666" y="90.66666666666669" type="line" smooth="yes"/>
      <point x="316.5333333333333" y="118.66666666666667"/>
      <point x="264.5333333333333" y="160.60000000000002"/>
      <point x="270.0" y="229.2666666666667" type="curve" smooth="yes"/>
      <point x="351.1333333333333" y="1239.3333333333335" type="line"/>
      <point x="275.5333333333333" y="1210.8000000000002" type="line"/>
      <point x="692.1333333333333" y="115.73333333333332" type="line" smooth="yes"/>
      <point x="721.3333333333334" y="41.266666666666666"/>
      <point x="744.8666666666667" y="34.13333333333333"/>
      <point x="780.6666666666667" y="34.13333333333333" type="curve" smooth="yes"/>
      <point x="813.2666666666667" y="34.13333333333333"/>
      <point x="836.6666666666666" y="44.6"/>
      <point x="860.6" y="112.0" type="curve" smooth="yes"/>
      <point x="1250.0" y="1243.7333333333333" type="line"/>
      <point x="1170.3333333333335" y="1225.7333333333333" type="line"/>
      <point x="1247.6" y="165.33333333333331" type="line" smooth="yes"/>
      <point x="1250.6" y="122.26666666666665"/>
      <point x="1239.0666666666666" y="106.53333333333335"/>
      <point x="1201.4" y="96.26666666666668" type="curve" smooth="yes"/>
      <point x="1155.4" y="84.13333333333335" type="line" smooth="yes"/>
      <point x="1129.0" y="75.73333333333332"/>
      <point x="1120.2" y="60.93333333333332"/>
      <point x="1120.2" y="40.00000000000001" type="curve" smooth="yes"/>
      <point x="1120.2" y="15.733333333333336"/>
      <point x="1136.4666666666667" y="0.0"/>
      <point x="1172.2" y="0.0" type="curve" smooth="yes"/>
      <point x="1765.6666666666667" y="0.0" type="line" smooth="yes"/>
      <point x="1799.8666666666668" y="0.0"/>
      <point x="1816.6666666666667" y="17.86666666666667"/>
      <point x="1816.6666666666667" y="42.13333333333334" type="curve" smooth="yes"/>
      <point x="1816.6666666666667" y="63.59999999999999"/>
      <point x="1805.7333333333333" y="77.33333333333331"/>
      <point x="1784.6" y="84.13333333333335" type="curve" smooth="yes"/>
      <point x="1738.6666666666667" y="96.26666666666668" type="line" smooth="yes"/>
      <point x="1704.7333333333333" y="105.46666666666668"/>
      <point x="1695.5333333333333" y="117.19999999999999"/>
      <point x="1692.5333333333333" y="163.86666666666665" type="curve" smooth="yes"/>
      <point x="1618.3333333333333" y="1229.3333333333333" type="line" smooth="yes"/>
      <point x="1615.3333333333333" y="1272.1333333333334"/>
      <point x="1627.7333333333333" y="1292.9333333333332"/>
      <point x="1664.6000000000001" y="1303.7333333333333" type="curve" smooth="yes"/>
      <point x="1710.5333333333333" y="1315.8666666666668" type="line" smooth="yes"/>
      <point x="1732.7333333333333" y="1323.1999999999998"/>
      <point x="1744.7333333333333" y="1336.9333333333332"/>
      <point x="1744.7333333333333" y="1360.0" type="curve" smooth="yes"/>
      <point x="1744.7333333333333" y="1384.2666666666667"/>
      <point x="1728.4666666666667" y="1400.0"/>
      <point x="1693.7333333333333" y="1400.0" type="curve" smooth="yes"/>
      <point x="1274.0" y="1400.0" type="line" smooth="yes"/>
      <point x="1217.2" y="1400.0"/>
      <point x="1189.5333333333333" y="1378.6666666666667"/>
      <point x="1164.1333333333332" y="1308.4" type="curve" smooth="yes"/>
      <point x="895.9333333333333" y="535.4" type="line"/>
    </contour>
  </outline>
</glyph>
<glyph name="N" format="2">
  <advance width="1460.5333333333333"/>
  <unicode hex="004E"/>
  <anchor x="793.3333333333334" y="1509.5333333333333" name="center"/>
  <outline>
    <contour>
      <point x="486.53333333333336" y="40.00000000000001" type="curve" smooth="yes"/>
      <point x="486.53333333333336" y="61.533333333333324"/>
      <point x="476.59999999999997" y="74.19999999999999"/>
      <point x="450.0" y="85.73333333333335" type="curve" smooth="yes"/>
      <point x="429.4666666666667" y="93.86666666666667" type="line" smooth="yes"/>
      <point x="354.1333333333333" y="123.06666666666668"/>
      <point x="312.0" y="167.39999999999998"/>
      <point x="312.0" y="258.53333333333336" type="curve" smooth="yes"/>
      <point x="312.0" y="1200.1333333333332" type="line"/>
      <point x="208.26666666666668" y="1152.6666666666665" type="line"/>
      <point x="855.4666666666667" y="105.86666666666666" type="line" smooth="yes"/>
      <point x="881.8" y="67.60000000000001"/>
      <point x="886.2666666666667" y="52.266666666666666"/>
      <point x="886.2666666666667" y="35.733333333333334" type="curve" smooth="yes"/>
      <point x="886.2666666666667" y="12.933333333333335"/>
      <point x="899.8666666666667" y="0.0"/>
      <point x="928.0" y="0.0" type="curve" smooth="yes"/>
      <point x="1340.4" y="0.0" type="line" smooth="yes"/>
      <point x="1369.6" y="0.0"/>
      <point x="1388.0" y="16.26666666666667"/>
      <point x="1388.0" y="40.00000000000001" type="curve" smooth="yes"/>
      <point x="1388.0" y="56.13333333333334"/>
      <point x="1385.5333333333333" y="70.33333333333334"/>
      <point x="1358.5333333333333" y="110.26666666666668" type="curve" smooth="yes"/>
      <point x="1290.0" y="217.2" type="line" smooth="yes"/>
      <point x="1274.4" y="239.9333333333333"/>
      <point x="1267.8666666666668" y="267.3333333333333"/>
      <point x="1267.8666666666668" y="304.5333333333333" type="curve" smooth="yes"/>
      <point x="1267.8666666666668" y="1140.4666666666667" type="line" smooth="yes"/>
      <point x="1267.8666666666668" y="1235.7333333333333"/>
      <point x="1312.7333333333333" y="1279.6"/>
      <point x="1385.3333333333333" y="1306.1333333333334" type="curve" smooth="yes"/>
      <point x="1406.3999999999999" y="1314.2666666666667" type="line" smooth="yes"/>
      <point x="1431.6" y="1325.3333333333333"/>
      <point x="1442.9333333333334" y="1338.0"/>
      <point x="1442.9333333333334" y="1360.0" type="curve" smooth="yes"/>
      <point x="1442.9333333333334" y="1384.2666666666667"/>
      <point x="1427.1333333333334" y="1400.0"/>
      <point x="1392.3999999999999" y="1400.0" type="curve" smooth="yes"/>
      <point x="1047.3333333333335" y="1400.0" type="line" smooth="yes"/>
      <point x="1013.1333333333333" y="1400.0"/>
      <point x="997.3333333333333" y="1384.2666666666667"/>
      <point x="997.3333333333333" y="1360.0" type="curve" smooth="yes"/>
      <point x="997.3333333333333" y="1339.0"/>
      <point x="1007.2666666666667" y="1326.3333333333333"/>
      <point x="1033.8666666666666" y="1314.2666666666667" type="curve" smooth="yes"/>
      <point x="1054.4" y="1306.1333333333334" type="line" smooth="yes"/>
      <point x="1130.6666666666665" y="1277.4666666666667"/>
      <point x="1171.8666666666666" y="1233.1333333333332"/>
      <point x="1171.8666666666666" y="1140.4666666666667" type="curve" smooth="yes"/>
      <point x="1171.8666666666666" y="214.53333333333336" type="line"/>
      <point x="1213.2" y="331.3333333333333" type="line"/>
      <point x="589.0666666666666" y="1359.3333333333335" type="line" smooth="yes"/>
      <point x="568.0666666666666" y="1390.1333333333334"/>
      <point x="549.3333333333334" y="1400.0"/>
      <point x="518.2666666666667" y="1400.0" type="curve" smooth="yes"/>
      <point x="120.13333333333334" y="1400.0" type="line" smooth="yes"/>
      <point x="91.86666666666667" y="1400.0"/>
      <point x="74.93333333333334" y="1386.2666666666667"/>
      <point x="74.93333333333334" y="1363.4666666666665" type="curve" smooth="yes"/>
      <point x="74.93333333333334" y="1347.3333333333333"/>
      <point x="84.86666666666667" y="1331.1333333333334"/>
      <point x="104.13333333333334" y="1303.1999999999998" type="curve" smooth="yes"/>
      <point x="190.0" y="1167.0666666666666" type="line" smooth="yes"/>
      <point x="212.8" y="1134.6"/>
      <point x="216.0" y="1124.1333333333334"/>
      <point x="216.0" y="1089.9999999999998" type="curve" smooth="yes"/>
      <point x="216.0" y="259.53333333333336" type="line" smooth="yes"/>
      <point x="216.0" y="164.79999999999998"/>
      <point x="171.13333333333335" y="120.93333333333334"/>
      <point x="98.53333333333333" y="93.86666666666667" type="curve" smooth="yes"/>
      <point x="77.46666666666665" y="85.73333333333335" type="line" smooth="yes"/>
      <point x="52.266666666666666" y="75.19999999999999"/>
      <point x="40.93333333333334" y="62.533333333333324"/>
      <point x="40.93333333333334" y="40.00000000000001" type="curve" smooth="yes"/>
      <point x="40.93333333333334" y="16.26666666666667"/>
      <point x="56.733333333333334" y="0.5333333333333333"/>
      <point x="91.46666666666668" y="0.0" type="curve" smooth="yes"/>
      <point x="436.5333333333333" y="0.0" type="line" smooth="yes"/>
      <point x="470.7333333333333" y="0.5333333333333333"/>
      <point x="486.53333333333336" y="16.26666666666667"/>
    </contour>
  </outline>
</glyph>
<glyph name="O" format="2">
  <advance width="1554.4"/>
  <unicode hex="004F"/>
  <outline>
    <contour>
      <point x="764.9333333333333" y="1430.6666666666667" type="curve" smooth="yes"/>
      <point x="333.8304526748971" y="1430.6666666666667"/>
      <point x="51.199999999999996" y="1120.8"/>
      <point x="51.199999999999996" y="708.5333333333334" type="curve" smooth="yes"/>
      <point x="51.199999999999996" y="259.4666666666667"/>
      <point x="333.3333333333333" y="-30.666666666666664"/>
      <point x="789.0" y="-30.666666666666664" type="curve" smooth="yes"/>
      <point x="1224.5333333333335" y="-30.666666666666664"/>
      <point x="1503.2" y="278.26666666666665"/>
      <point x="1503.2" y="699.8666666666667" type="curve" smooth="yes"/>
      <point x="1503.2" y="1137.7333333333333"/>
      <point x="1221.2840809146878" y="1430.6666666666667"/>
    </contour>
    <contour>
      <point x="1048.1333333333332" y="397.8666666666667" type="curve" smooth="yes"/>
      <point x="1048.1333333333332" y="166.91747052518758"/>
      <point x="995.0" y="58.06666666666665"/>
      <point x="881.8" y="58.06666666666665" type="curve" smooth="yes"/>
      <point x="704.4" y="58.06666666666665"/>
      <point x="508.4" y="535.8748022598869"/>
      <point x="508.4" y="1011.4666666666666" type="curve" smooth="yes"/>
      <point x="508.4" y="1227.4825294748125"/>
      <point x="565.8" y="1341.9333333333332"/>
      <point x="674.2666666666667" y="1341.9333333333332" type="curve" smooth="yes"/>
      <point x="851.1999999999999" y="1341.9333333333332"/>
      <point x="1048.1333333333332" y="866.9470163435956"/>
    </contour>
  </outline>
</glyph>
<glyph name="P" format="2">
  <advance width="1457.4666666666665"/>
  <unicode hex="0050"/>
  <outline>
    <contour>
      <point x="1415.6" y="863.3333333333333" type="curve" smooth="yes"/>
      <point x="1415.6" y="1179.6897196261682"/>
      <point x="1142.9333333333334" y="1400.0"/>
      <point x="691.8666666666667" y="1400.0" type="curve" smooth="yes"/>
      <point x="127.39999999999998" y="1400.0" type="line" smooth="yes"/>
      <point x="92.2" y="1400.0"/>
      <point x="76.4" y="1384.7333333333331"/>
      <point x="76.4" y="1359.5333333333333" type="curve" smooth="yes"/>
      <point x="76.4" y="1339.0"/>
      <point x="84.86666666666666" y="1324.7333333333333"/>
      <point x="109.26666666666665" y="1316.3333333333333" type="curve" smooth="yes"/>
      <point x="159.86666666666665" y="1303.2666666666667" type="line" smooth="yes"/>
      <point x="191.06666666666666" y="1294.0"/>
      <point x="206.66666666666669" y="1277.2666666666667"/>
      <point x="206.66666666666669" y="1251.2666666666667" type="curve" smooth="yes"/>
      <point x="206.66666666666669" y="145.46666666666664" type="line" smooth="yes"/>
      <point x="206.66666666666669" y="121.33333333333333"/>
      <point x="191.06666666666666" y="106.0"/>
      <point x="159.39999999999998" y="96.73333333333335" type="curve" smooth="yes"/>
      <point x="110.66666666666666" y="84.13333333333335" type="line" smooth="yes"/>
      <point x="85.8" y="75.73333333333332"/>
      <point x="76.4" y="61.466666666666654"/>
      <point x="76.4" y="40.46666666666667" type="curve" smooth="yes"/>
      <point x="76.4" y="15.733333333333333"/>
      <point x="92.66666666666667" y="0.0"/>
      <point x="127.86666666666665" y="0.0" type="curve" smooth="yes"/>
      <point x="749.1333333333333" y="0.0" type="line" smooth="yes"/>
      <point x="784.3333333333333" y="0.0"/>
      <point x="800.1333333333333" y="15.733333333333333"/>
      <point x="800.1333333333333" y="40.00000000000001" type="curve" smooth="yes"/>
      <point x="800.1333333333333" y="65.80000000000001"/>
      <point x="788.6666666666666" y="78.93333333333334"/>
      <point x="762.5333333333333" y="84.19999999999999" type="curve" smooth="yes"/>
      <point x="702.5333333333334" y="96.26666666666668" type="line" smooth="yes"/>
      <point x="668.3333333333334" y="103.33333333333334"/>
      <point x="653.8666666666666" y="119.86666666666669"/>
      <point x="653.8666666666666" y="146.86666666666665" type="curve" smooth="yes"/>
      <point x="653.8666666666666" y="1313.0666666666666" type="line"/>
      <point x="684.4" y="1313.0666666666666" type="line" smooth="yes"/>
      <point x="850.0" y="1313.0666666666666"/>
      <point x="982.5333333333333" y="1154.6964129483813"/>
      <point x="982.5333333333333" y="873.0" type="curve" smooth="yes"/>
      <point x="982.5333333333333" y="634.3407407407407"/>
      <point x="862.0" y="524.1333333333333"/>
      <point x="728.4666666666666" y="524.1333333333333" type="curve" smooth="yes"/>
      <point x="644.2666666666667" y="524.1333333333333"/>
      <point x="587.8666666666667" y="547.0666666666666"/>
      <point x="504.4" y="606.2666666666668" type="curve"/>
      <point x="494.5333333333333" y="530.3333333333333" type="line"/>
      <point x="586.0" y="466.46666666666664"/>
      <point x="693.0" y="429.06666666666666"/>
      <point x="861.3333333333334" y="429.06666666666666" type="curve" smooth="yes"/>
      <point x="1198.4" y="429.06666666666666"/>
      <point x="1415.6" y="596.544259699129"/>
    </contour>
  </outline>
</glyph>
<glyph name="Q" format="2">
  <advance width="1572.1333333333334"/>
  <unicode hex="0051"/>
  <outline>
    <contour>
      <point x="766.6666666666666" y="1430.6666666666667" type="curve" smooth="yes"/>
      <point x="330.6666666666667" y="1430.6666666666667"/>
      <point x="45.46666666666666" y="1120.8"/>
      <point x="45.46666666666666" y="708.5333333333334" type="curve" smooth="yes"/>
      <point x="45.46666666666666" y="255.73333333333335"/>
      <point x="325.73333333333335" y="-30.666666666666664"/>
      <point x="791.2" y="-30.666666666666664" type="curve" smooth="yes"/>
      <point x="1230.9333333333334" y="-30.666666666666664"/>
      <point x="1512.4" y="278.2666666666667"/>
      <point x="1512.4" y="699.8666666666667" type="curve" smooth="yes"/>
      <point x="1512.4" y="1137.7333333333333"/>
      <point x="1221.8666666666668" y="1430.6666666666667"/>
    </contour>
    <contour>
      <point x="1053.7333333333333" y="397.8666666666667" type="curve" smooth="yes"/>
      <point x="1053.7333333333333" y="164.26666666666668"/>
      <point x="1000.1333333333332" y="53.866666666666646"/>
      <point x="886.0" y="53.866666666666646" type="curve" smooth="yes"/>
      <point x="706.2666666666667" y="53.866666666666646"/>
      <point x="508.4" y="534.2666666666667"/>
      <point x="508.4" y="1011.4666666666666" type="curve" smooth="yes"/>
      <point x="508.4" y="1230.1333333333332"/>
      <point x="566.2666666666667" y="1346.1333333333332"/>
      <point x="676.1333333333333" y="1346.1333333333332" type="curve" smooth="yes"/>
      <point x="854.9333333333333" y="1346.1333333333332"/>
      <point x="1053.7333333333333" y="869.0666666666667"/>
    </contour>
    <contour>
      <point x="809.0" y="361.26666666666665" type="curve" smooth="yes"/>
      <point x="922.5637392681285" y="-126.47943577229124"/>
      <point x="1090.797511035257" y="-306.4"/>
      <point x="1322.2666666666667" y="-306.4" type="curve" smooth="yes"/>
      <point x="1395.5333333333333" y="-306.4"/>
      <point x="1435.1333333333334" y="-285.26666666666665"/>
      <point x="1454.2666666666667" y="-244.0" type="curve" smooth="yes"/>
      <point x="1534.5333333333333" y="-87.13333333333335" type="line" smooth="yes"/>
      <point x="1545.9801411344306" y="-62.85705673202584"/>
      <point x="1549.2714394637042" y="-47.126536836402295"/>
      <point x="1546.1333333333334" y="-34.66666666666667" type="curve" smooth="yes"/>
      <point x="1542.8666666666666" y="-17.866666666666667"/>
      <point x="1532.2" y="-11.266666666666666"/>
      <point x="1515.0666666666668" y="-15.933333333333332" type="curve" smooth="yes"/>
      <point x="1478.4666666666667" y="-28.53333333333333"/>
      <point x="1453.3333333333333" y="-64.53333333333333"/>
      <point x="1336.6" y="-64.53333333333333" type="curve" smooth="yes"/>
      <point x="1106.7333333333333" y="-64.53333333333333"/>
      <point x="985.6862656336693" y="12.547201923459241"/>
      <point x="888.8666666666666" y="384.1333333333333" type="curve" smooth="yes"/>
      <point x="879.9003142125899" y="414.9723278530456"/>
      <point x="862.5999999999999" y="434.73333333333335"/>
      <point x="833.6" y="426.26666666666665" type="curve" smooth="yes"/>
      <point x="805.7333333333333" y="418.3333333333333"/>
      <point x="800.6" y="392.6666666666667"/>
    </contour>
  </outline>
</glyph>
<glyph name="R" format="2">
  <advance width="1569.2"/>
  <unicode hex="0052"/>
  <anchor x="772.6666666666666" y="1476.0" name="center"/>
  <outline>
    <contour>
      <point x="1460.0" y="903.8666666666667" type="curve" smooth="yes"/>
      <point x="1460.0" y="1203.3333333333333"/>
      <point x="1180.6666666666665" y="1400.0"/>
      <point x="703.4666666666666" y="1400.0" type="curve" smooth="yes"/>
      <point x="127.86666666666665" y="1400.0" type="line" smooth="yes"/>
      <point x="92.66666666666667" y="1400.0"/>
      <point x="76.4" y="1384.2666666666667"/>
      <point x="76.4" y="1360.0" type="curve" smooth="yes"/>
      <point x="76.4" y="1338.5333333333333"/>
      <point x="86.26666666666667" y="1324.2666666666667"/>
      <point x="111.6" y="1315.8666666666668" type="curve" smooth="yes"/>
      <point x="158.0" y="1303.7333333333333" type="line" smooth="yes"/>
      <point x="190.13333333333333" y="1294.4666666666667"/>
      <point x="206.66666666666669" y="1279.6"/>
      <point x="206.66666666666669" y="1254.5333333333333" type="curve" smooth="yes"/>
      <point x="206.66666666666669" y="155.73333333333332" type="line" smooth="yes"/>
      <point x="206.66666666666669" y="123.2"/>
      <point x="191.06666666666666" y="106.0"/>
      <point x="158.0" y="96.26666666666668" type="curve" smooth="yes"/>
      <point x="111.6" y="84.13333333333335" type="line" smooth="yes"/>
      <point x="86.26666666666667" y="75.73333333333332"/>
      <point x="76.4" y="61.466666666666654"/>
      <point x="76.4" y="40.00000000000001" type="curve" smooth="yes"/>
      <point x="76.4" y="15.733333333333333"/>
      <point x="92.66666666666667" y="0.0"/>
      <point x="127.86666666666665" y="0.0" type="curve" smooth="yes"/>
      <point x="722.0" y="0.0" type="line" smooth="yes"/>
      <point x="757.2" y="0.0"/>
      <point x="773.4666666666667" y="15.733333333333334"/>
      <point x="773.4666666666667" y="40.00000000000001" type="curve" smooth="yes"/>
      <point x="773.4666666666667" y="61.46666666666667"/>
      <point x="765.7333333333332" y="72.53333333333333"/>
      <point x="738.2666666666667" y="84.13333333333333" type="curve" smooth="yes"/>
      <point x="697.1999999999999" y="96.26666666666667" type="line" smooth="yes"/>
      <point x="666.2666666666667" y="107.06666666666666"/>
      <point x="653.8666666666666" y="123.19999999999997"/>
      <point x="653.8666666666666" y="155.73333333333332" type="curve" smooth="yes"/>
      <point x="653.8666666666666" y="1319.4666666666667" type="line"/>
      <point x="694.2666666666667" y="1319.4666666666667" type="line" smooth="yes"/>
      <point x="866.8102564102564" y="1319.4666666666667"/>
      <point x="1006.5333333333333" y="1136.3999999999999"/>
      <point x="1006.5333333333333" y="884.5333333333333" type="curve" smooth="yes"/>
      <point x="1006.5333333333333" y="672.2983213429256"/>
      <point x="914.5333333333333" y="583.1999999999999"/>
      <point x="766.2666666666667" y="583.1999999999999" type="curve" smooth="yes"/>
      <point x="678.6" y="583.1999999999999"/>
      <point x="627.2" y="601.6666666666666"/>
      <point x="570.9333333333333" y="645.7333333333333" type="curve"/>
      <point x="564.8" y="568.6666666666666" type="line"/>
      <point x="634.7333333333332" y="521.6"/>
      <point x="712.6666666666666" y="490.8"/>
      <point x="864.1333333333333" y="490.8" type="curve" smooth="yes"/>
      <point x="950.5333333333333" y="490.8"/>
      <point x="1009.6868963921901" y="510.2407832825043"/>
      <point x="1089.4666666666667" y="524.6" type="curve" smooth="yes"/>
      <point x="1320.919317900265" y="566.5179112048095"/>
      <point x="1460.0" y="713.4666666666667"/>
    </contour>
    <contour>
      <point x="772.9333333333333" y="531.3333333333334" type="line"/>
      <point x="970.4" y="151.06666666666666" type="line" smooth="yes"/>
      <point x="991.6" y="111.06666666666668"/>
      <point x="981.6" y="98.46666666666667"/>
      <point x="952.0" y="81.86666666666667" type="curve" smooth="yes"/>
      <point x="934.4" y="72.39999999999999" type="line" smooth="yes"/>
      <point x="918.0666666666667" y="62.06666666666668"/>
      <point x="911.4666666666667" y="54.0"/>
      <point x="911.4666666666667" y="40.00000000000001" type="curve" smooth="yes"/>
      <point x="911.4666666666667" y="14.666666666666664"/>
      <point x="928.2666666666668" y="0.0"/>
      <point x="960.8" y="0.0" type="curve" smooth="yes"/>
      <point x="1494.1333333333332" y="0.0" type="line" smooth="yes"/>
      <point x="1529.3333333333333" y="0.0"/>
      <point x="1545.6" y="15.733333333333336"/>
      <point x="1545.6" y="40.00000000000001" type="curve" smooth="yes"/>
      <point x="1545.6" y="61.466666666666654"/>
      <point x="1535.7333333333333" y="72.66666666666669"/>
      <point x="1512.5333333333333" y="83.06666666666668" type="curve" smooth="yes"/>
      <point x="1482.9333333333334" y="95.26666666666668"/>
      <point x="1467.0" y="111.26666666666668"/>
      <point x="1446.2666666666667" y="147.20000000000002" type="curve" smooth="yes"/>
      <point x="1197.2" y="578.5333333333334" type="line"/>
    </contour>
  </outline>
</glyph>
<glyph name="S" format="2">
  <advance width="1245.2"/>
  <unicode hex="0053"/>
  <anchor x="626.6666666666666" y="1492.3333333333333" name="center"/>
  <outline>
    <contour>
      <point x="650.9333333333334" y="-25.333333333333332" type="curve" smooth="yes"/>
      <point x="987.4666666666666" y="-25.333333333333332"/>
      <point x="1188.1333333333334" y="167.86666666666665"/>
      <point x="1188.1333333333334" y="411.6" type="curve" smooth="yes"/>
      <point x="1188.1333333333334" y="633.7333333333333"/>
      <point x="1072.6666666666667" y="769.4666666666667"/>
      <point x="746.6666666666666" y="882.0" type="curve" smooth="yes"/>
      <point x="507.26211033932105" y="965.045316237525"/>
      <point x="454.93333333333334" y="1038.3087719298246"/>
      <point x="454.93333333333334" y="1152.0" type="curve" smooth="yes"/>
      <point x="454.93333333333334" y="1260.8"/>
      <point x="522.9333333333333" y="1334.1333333333334"/>
      <point x="629.3333333333334" y="1334.1333333333334" type="curve" smooth="yes"/>
      <point x="766.8" y="1334.1333333333334"/>
      <point x="915.6" y="1252.2666666666667"/>
      <point x="1097.7333333333331" y="937.7333333333333" type="curve" smooth="yes"/>
      <point x="1111.3333333333335" y="912.0"/>
      <point x="1132.8" y="900.0"/>
      <point x="1158.6666666666667" y="908.9333333333333" type="curve" smooth="yes"/>
      <point x="1184.0" y="917.8666666666667"/>
      <point x="1195.0" y="941.6"/>
      <point x="1186.6666666666665" y="973.3333333333333" type="curve" smooth="yes"/>
      <point x="1086.9333333333334" y="1369.4666666666667" type="line" smooth="yes"/>
      <point x="1074.3333333333333" y="1415.6000000000001"/>
      <point x="1054.6666666666667" y="1430.1333333333334"/>
      <point x="1028.5333333333335" y="1430.1333333333334" type="curve" smooth="yes"/>
      <point x="976.4000000000001" y="1430.1333333333334"/>
      <point x="908.4" y="1363.8666666666668"/>
      <point x="864.5333333333333" y="1363.8666666666668" type="curve" smooth="yes"/>
      <point x="816.1333333333333" y="1363.8666666666668"/>
      <point x="738.6666666666667" y="1423.2"/>
      <point x="585.8666666666667" y="1423.2" type="curve" smooth="yes"/>
      <point x="267.46666666666664" y="1423.2"/>
      <point x="60.93333333333333" y="1241.8666666666666"/>
      <point x="60.93333333333333" y="985.7333333333333" type="curve" smooth="yes"/>
      <point x="60.93333333333333" y="744.4228571428571"/>
      <point x="181.13085463647656" y="597.9784758903631"/>
      <point x="503.8666666666666" y="497.20000000000005" type="curve" smooth="yes"/>
      <point x="751.8666666666667" y="421.73333333333335"/>
      <point x="810.6666666666666" y="353.4666666666667"/>
      <point x="810.6666666666666" y="236.93333333333334" type="curve" smooth="yes"/>
      <point x="810.6666666666666" y="120.93333333333334"/>
      <point x="734.0" y="63.733333333333334"/>
      <point x="616.0" y="63.733333333333334" type="curve" smooth="yes"/>
      <point x="494.66666666666663" y="63.733333333333334"/>
      <point x="371.4666666666667" y="137.4666666666667"/>
      <point x="201.20000000000002" y="455.6" type="curve" smooth="yes"/>
      <point x="185.46666666666664" y="484.5333333333333"/>
      <point x="165.06666666666666" y="495.46666666666664"/>
      <point x="139.2" y="486.0" type="curve" smooth="yes"/>
      <point x="114.93333333333334" y="477.06666666666666"/>
      <point x="104.4" y="459.73333333333335"/>
      <point x="108.53333333333333" y="433.8666666666667" type="curve" smooth="yes"/>
      <point x="169.73333333333335" y="20.53333333333333" type="line" smooth="yes"/>
      <point x="175.46666666666667" y="-15.866666666666667"/>
      <point x="197.86666666666667" y="-32.26666666666666"/>
      <point x="224.4" y="-32.26666666666666" type="curve" smooth="yes"/>
      <point x="271.73333333333335" y="-32.26666666666666"/>
      <point x="341.4666666666667" y="52.133333333333326"/>
      <point x="388.1333333333333" y="52.133333333333326" type="curve" smooth="yes"/>
      <point x="423.8666666666667" y="52.133333333333326"/>
      <point x="499.3333333333333" y="-25.333333333333332"/>
    </contour>
  </outline>
</glyph>
<glyph name="T" format="2">
  <advance width="1424.8"/>
  <unicode hex="0054"/>
  <outline>
    <contour>
      <point x="307.8666666666667" y="1400.0" type="line" smooth="yes"/>
      <point x="235.46666666666664" y="1400.0"/>
      <point x="191.86666666666665" y="1426.8"/>
      <point x="160.39999999999998" y="1426.8" type="curve" smooth="yes"/>
      <point x="123.86666666666667" y="1426.8"/>
      <point x="108.06666666666666" y="1410.4"/>
      <point x="96.0" y="1360.6666666666667" type="curve" smooth="yes"/>
      <point x="32.93333333333334" y="974.0000000000001" type="line" smooth="yes"/>
      <point x="26.666666666666668" y="940.1333333333333"/>
      <point x="38.266666666666666" y="919.6"/>
      <point x="64.66666666666666" y="914.4" type="curve" smooth="yes"/>
      <point x="89.46666666666667" y="908.6666666666667"/>
      <point x="109.33333333333334" y="916.0"/>
      <point x="123.46666666666667" y="944.2666666666667" type="curve" smooth="yes"/>
      <point x="271.8120965720518" y="1234.3896428428175"/>
      <point x="358.9427609427609" y="1308.2666666666667"/>
      <point x="443.8666666666667" y="1308.2666666666667" type="curve" smooth="yes"/>
      <point x="488.8" y="1308.2666666666667" type="line"/>
      <point x="488.8" y="145.46666666666664" type="line" smooth="yes"/>
      <point x="488.8" y="120.4"/>
      <point x="472.26666666666665" y="105.53333333333333"/>
      <point x="440.1333333333333" y="96.26666666666668" type="curve" smooth="yes"/>
      <point x="393.73333333333335" y="84.13333333333335" type="line" smooth="yes"/>
      <point x="368.4" y="75.73333333333332"/>
      <point x="358.53333333333336" y="61.466666666666654"/>
      <point x="358.53333333333336" y="40.0" type="curve" smooth="yes"/>
      <point x="358.53333333333336" y="15.733333333333333"/>
      <point x="374.79999999999995" y="0.0"/>
      <point x="410.0" y="0.0" type="curve" smooth="yes"/>
      <point x="1014.8000000000001" y="0.0" type="line" smooth="yes"/>
      <point x="1050.0" y="0.0"/>
      <point x="1066.2666666666669" y="15.733333333333336"/>
      <point x="1066.2666666666669" y="40.00000000000001" type="curve" smooth="yes"/>
      <point x="1066.2666666666669" y="61.466666666666654"/>
      <point x="1056.3999999999999" y="75.73333333333332"/>
      <point x="1031.0666666666666" y="84.13333333333335" type="curve" smooth="yes"/>
      <point x="984.6666666666666" y="96.26666666666668" type="line" smooth="yes"/>
      <point x="952.5333333333333" y="105.53333333333333"/>
      <point x="936.0" y="120.4"/>
      <point x="936.0" y="145.46666666666664" type="curve" smooth="yes"/>
      <point x="936.0" y="1308.2666666666667" type="line"/>
      <point x="980.9333333333333" y="1308.2666666666667" type="line" smooth="yes"/>
      <point x="1070.4060606060607" y="1308.2666666666667"/>
      <point x="1156.6387978583182" y="1243.3425545510738"/>
      <point x="1301.3333333333335" y="944.2666666666667" type="curve" smooth="yes"/>
      <point x="1315.4666666666667" y="916.0"/>
      <point x="1335.3333333333333" y="908.6666666666667"/>
      <point x="1360.1333333333334" y="914.4" type="curve" smooth="yes"/>
      <point x="1386.5333333333333" y="919.6"/>
      <point x="1398.1333333333334" y="940.1333333333333"/>
      <point x="1391.8666666666668" y="974.0000000000001" type="curve" smooth="yes"/>
      <point x="1328.8" y="1360.6666666666667" type="line" smooth="yes"/>
      <point x="1316.7333333333333" y="1410.4"/>
      <point x="1300.9333333333332" y="1426.8"/>
      <point x="1264.4" y="1426.8" type="curve" smooth="yes"/>
      <point x="1232.9333333333334" y="1426.8"/>
      <point x="1189.3333333333333" y="1400.0"/>
      <point x="1116.9333333333334" y="1400.0" type="curve" smooth="yes"/>
    </contour>
  </outline>
</glyph>
<glyph name="U" format="2">
  <advance width="1452.9333333333332"/>
  <unicode hex="0055"/>
  <anchor x="850.0666666666666" y="1463.2666666666667" name="center"/>
  <outline>
    <contour>
      <point x="1189.0" y="621.8666666666666" type="line" smooth="yes"/>
      <point x="1193.0" y="565.6"/>
      <point x="1197.0" y="510.8"/>
      <point x="1197.0" y="411.59999999999997" type="curve" smooth="yes"/>
      <point x="1197.0" y="199.60000000000002"/>
      <point x="1062.2666666666667" y="72.13333333333333"/>
      <point x="867.8" y="72.13333333333333" type="curve" smooth="yes"/>
      <point x="719.2666666666667" y="72.13333333333333"/>
      <point x="619.6666666666666" y="169.73333333333335"/>
      <point x="619.6666666666666" y="416.66666666666663" type="curve" smooth="yes"/>
      <point x="619.6666666666666" y="469.7333333333333"/>
      <point x="619.7333333333333" y="549.0666666666667"/>
      <point x="625.6666666666666" y="641.3333333333333" type="curve" smooth="yes"/>
      <point x="665.2666666666667" y="1254.5333333333333" type="line" smooth="yes"/>
      <point x="666.8000000000001" y="1282.8"/>
      <point x="681.8" y="1297.1333333333334"/>
      <point x="713.4" y="1303.7333333333333" type="curve" smooth="yes"/>
      <point x="764.2" y="1313.7333333333333" type="line" smooth="yes"/>
      <point x="796.4666666666667" y="1321.0666666666666"/>
      <point x="810.6" y="1334.2666666666667"/>
      <point x="810.6" y="1359.4666666666665" type="curve" smooth="yes"/>
      <point x="810.6" y="1383.2"/>
      <point x="793.2666666666667" y="1400.0"/>
      <point x="761.8000000000001" y="1400.0" type="curve" smooth="yes"/>
      <point x="123.93333333333334" y="1400.0" type="line" smooth="yes"/>
      <point x="92.46666666666667" y="1400.0"/>
      <point x="75.13333333333333" y="1383.2"/>
      <point x="75.13333333333333" y="1359.4666666666665" type="curve" smooth="yes"/>
      <point x="75.13333333333333" y="1334.2666666666667"/>
      <point x="90.33333333333333" y="1320.0"/>
      <point x="121.53333333333333" y="1313.2" type="curve" smooth="yes"/>
      <point x="168.46666666666667" y="1303.7333333333333" type="line" smooth="yes"/>
      <point x="208.06666666666666" y="1295.5333333333333"/>
      <point x="222.39999999999998" y="1282.2666666666667"/>
      <point x="220.33333333333331" y="1254.0" type="curve" smooth="yes"/>
      <point x="180.2" y="640.8" type="line" smooth="yes"/>
      <point x="172.99999999999997" y="533.4666666666667"/>
      <point x="166.33333333333334" y="449.8666666666667"/>
      <point x="166.33333333333334" y="405.6" type="curve" smooth="yes"/>
      <point x="166.33333333333334" y="144.4"/>
      <point x="359.3333333333333" y="-30.666666666666664"/>
      <point x="767.5333333333333" y="-30.666666666666664" type="curve" smooth="yes"/>
      <point x="1144.4" y="-30.666666666666664"/>
      <point x="1296.0666666666666" y="165.86666666666667"/>
      <point x="1296.0666666666666" y="416.4" type="curve" smooth="yes"/>
      <point x="1296.0666666666666" y="489.8666666666666"/>
      <point x="1292.1333333333334" y="557.7333333333332"/>
      <point x="1286.0666666666668" y="629.1999999999999" type="curve" smooth="yes"/>
      <point x="1247.9333333333332" y="1138.6666666666667" type="line" smooth="yes"/>
      <point x="1241.4666666666667" y="1223.3333333333335"/>
      <point x="1281.4" y="1280.2666666666667"/>
      <point x="1367.6666666666667" y="1306.1333333333334" type="curve" smooth="yes"/>
      <point x="1392.3999999999999" y="1313.7333333333333" type="line" smooth="yes"/>
      <point x="1422.2666666666667" y="1323.2"/>
      <point x="1436.9333333333334" y="1335.2666666666667"/>
      <point x="1436.9333333333334" y="1359.4666666666665" type="curve" smooth="yes"/>
      <point x="1436.9333333333334" y="1383.2"/>
      <point x="1420.0666666666666" y="1400.0"/>
      <point x="1389.0666666666666" y="1400.0" type="curve" smooth="yes"/>
      <point x="1012.0000000000001" y="1400.0" type="line" smooth="yes"/>
      <point x="981.5333333333333" y="1400.0"/>
      <point x="964.6666666666666" y="1383.2"/>
      <point x="964.6666666666666" y="1359.4666666666665" type="curve" smooth="yes"/>
      <point x="964.6666666666666" y="1335.2666666666667"/>
      <point x="976.7333333333333" y="1322.0666666666668"/>
      <point x="1008.6666666666667" y="1313.2" type="curve" smooth="yes"/>
      <point x="1033.4666666666667" y="1306.1333333333334" type="line" smooth="yes"/>
      <point x="1110.8666666666666" y="1283.6666666666667"/>
      <point x="1146.0" y="1233.5333333333333"/>
      <point x="1152.4666666666667" y="1142.2" type="curve" smooth="yes"/>
    </contour>
  </outline>
</glyph>
<glyph name="V" format="2">
  <advance width="1403.2"/>
  <unicode hex="0056"/>
  <outline>
    <contour>
      <point x="984.3333333333333" y="1360.0" type="curve" smooth="yes"/>
      <point x="984.3333333333333" y="1339.0"/>
      <point x="995.3333333333334" y="1330.0666666666666"/>
      <point x="1017.1333333333332" y="1320.1333333333332" type="curve" smooth="yes"/>
      <point x="1041.4" y="1309.8666666666668" type="line" smooth="yes"/>
      <point x="1130.7333333333333" y="1275.9333333333334"/>
      <point x="1148.8" y="1214.8666666666668"/>
      <point x="1125.4" y="1137.0666666666666" type="curve" smooth="yes"/>
      <point x="822.3333333333334" y="139.73333333333332" type="line"/>
      <point x="905.0" y="236.13333333333333" type="line"/>
      <point x="599.5999999999999" y="1217.4666666666667" type="line" smooth="yes"/>
      <point x="582.8000000000001" y="1270.2666666666667"/>
      <point x="590.0" y="1293.2666666666667"/>
      <point x="626.4" y="1306.9333333333334" type="curve" smooth="yes"/>
      <point x="659.8666666666666" y="1319.6" type="line" smooth="yes"/>
      <point x="684.6666666666666" y="1330.0"/>
      <point x="695.0666666666667" y="1339.6"/>
      <point x="695.0666666666667" y="1360.0" type="curve" smooth="yes"/>
      <point x="695.0666666666667" y="1384.2666666666667"/>
      <point x="679.3333333333334" y="1400.0"/>
      <point x="643.6" y="1400.0" type="curve" smooth="yes"/>
      <point x="63.00000000000001" y="1400.0" type="line" smooth="yes"/>
      <point x="27.800000000000004" y="1400.0"/>
      <point x="11.533333333333333" y="1384.2666666666667"/>
      <point x="11.533333333333333" y="1360.0" type="curve" smooth="yes"/>
      <point x="11.533333333333333" y="1340.2"/>
      <point x="20.4" y="1327.8666666666668"/>
      <point x="41.93333333333334" y="1317.0666666666666" type="curve" smooth="yes"/>
      <point x="70.46666666666667" y="1304.0" type="line" smooth="yes"/>
      <point x="95.66666666666667" y="1291.6000000000001"/>
      <point x="107.86666666666667" y="1276.4"/>
      <point x="121.13333333333333" y="1236.6666666666667" type="curve" smooth="yes"/>
      <point x="454.73333333333335" y="198.53333333333333" type="line" smooth="yes"/>
      <point x="466.04042943661045" y="162.725030006506"/>
      <point x="475.79999999999995" y="129.93333333333334"/>
      <point x="475.79999999999995" y="109.26666666666667" type="curve" smooth="yes"/>
      <point x="475.79999999999995" y="40.8" type="line" smooth="yes"/>
      <point x="475.79999999999995" y="13.600000000000001"/>
      <point x="492.06666666666666" y="0.0"/>
      <point x="516.0666666666667" y="0.0" type="curve" smooth="yes"/>
      <point x="892.3333333333333" y="0.0" type="line" smooth="yes"/>
      <point x="916.8666666666666" y="0.0"/>
      <point x="933.2666666666667" y="14.133333333333331"/>
      <point x="933.2666666666667" y="39.199999999999996" type="curve" smooth="yes"/>
      <point x="933.2666666666667" y="108.66666666666666" type="line" smooth="yes"/>
      <point x="933.2666666666667" y="144.33333333333331"/>
      <point x="936.9999999999999" y="173.86666666666665"/>
      <point x="953.4000000000001" y="226.86666666666667" type="curve" smooth="yes"/>
      <point x="1224.0" y="1130.4" type="line" smooth="yes"/>
      <point x="1254.5333333333333" y="1233.4666666666667"/>
      <point x="1300.2666666666667" y="1284.4666666666667"/>
      <point x="1356.3333333333333" y="1308.9333333333334" type="curve" smooth="yes"/>
      <point x="1381.1333333333332" y="1320.1333333333332" type="line" smooth="yes"/>
      <point x="1403.5333333333333" y="1330.6"/>
      <point x="1413.9333333333334" y="1341.1333333333332"/>
      <point x="1413.9333333333334" y="1360.0" type="curve" smooth="yes"/>
      <point x="1413.9333333333334" y="1384.2666666666667"/>
      <point x="1398.1333333333332" y="1400.0"/>
      <point x="1363.4" y="1400.0" type="curve" smooth="yes"/>
      <point x="1034.3333333333335" y="1400.0" type="line" smooth="yes"/>
      <point x="999.6" y="1400.0"/>
      <point x="984.3333333333333" y="1384.2666666666667"/>
    </contour>
  </outline>
</glyph>
<glyph name="W" format="2">
  <advance width="2117.866666666667"/>
  <unicode hex="0057"/>
  <anchor x="1199.0" y="1489.8666666666666" name="center"/>
  <outline>
    <contour>
      <point x="1042.8666666666666" y="1082.0" type="line"/>
      <point x="764.9333333333334" y="106.66666666666666" type="line"/>
      <point x="856.5999999999999" y="183.5333333333333" type="line"/>
      <point x="591.7333333333333" y="1239.7333333333333" type="line" smooth="yes"/>
      <point x="580.8" y="1280.1333333333334"/>
      <point x="585.8666666666666" y="1304.9333333333334"/>
      <point x="613.3333333333333" y="1312.6666666666667" type="curve" smooth="yes"/>
      <point x="665.4666666666666" y="1325.0666666666666" type="line" smooth="yes"/>
      <point x="681.3333333333333" y="1330.3999999999999"/>
      <point x="691.7333333333333" y="1344.0666666666666"/>
      <point x="691.7333333333333" y="1361.4666666666665" type="curve" smooth="yes"/>
      <point x="691.7333333333333" y="1384.7333333333333"/>
      <point x="676.4666666666667" y="1400.0"/>
      <point x="643.1333333333333" y="1400.0" type="curve" smooth="yes"/>
      <point x="63.66666666666668" y="1400.0" type="line" smooth="yes"/>
      <point x="31.866666666666667" y="1400.0"/>
      <point x="16.06666666666667" y="1384.7333333333333"/>
      <point x="16.06666666666667" y="1361.4666666666665" type="curve" smooth="yes"/>
      <point x="16.06666666666667" y="1344.0666666666666"/>
      <point x="23.4" y="1329.2666666666667"/>
      <point x="40.73333333333334" y="1322.4" type="curve" smooth="yes"/>
      <point x="85.13333333333334" y="1307.8666666666668" type="line" smooth="yes"/>
      <point x="110.33333333333334" y="1298.0"/>
      <point x="121.66666666666667" y="1286.1333333333334"/>
      <point x="131.0" y="1251.2" type="curve" smooth="yes"/>
      <point x="410.93333333333334" y="164.79999999999998" type="line" smooth="yes"/>
      <point x="419.26666666666665" y="134.26666666666668"/>
      <point x="422.26666666666665" y="124.53333333333333"/>
      <point x="422.26666666666665" y="103.60000000000001" type="curve" smooth="yes"/>
      <point x="422.26666666666665" y="39.33333333333333" type="line" smooth="yes"/>
      <point x="422.26666666666665" y="13.600000000000001"/>
      <point x="438.13333333333327" y="0.0"/>
      <point x="460.66666666666663" y="0.0" type="curve" smooth="yes"/>
      <point x="838.0" y="0.0" type="line" smooth="yes"/>
      <point x="860.0" y="0.0"/>
      <point x="875.8666666666667" y="13.600000000000001"/>
      <point x="875.8666666666667" y="39.33333333333333" type="curve" smooth="yes"/>
      <point x="875.8666666666667" y="103.6" type="line" smooth="yes"/>
      <point x="875.8666666666667" y="136.26666666666665"/>
      <point x="880.4666666666667" y="157.46666666666667"/>
      <point x="888.4" y="180.53333333333333" type="curve" smooth="yes"/>
      <point x="1135.9333333333334" y="1064.2" type="line"/>
    </contour>
    <contour>
      <point x="1712.8" y="1360.0" type="curve" smooth="yes"/>
      <point x="1712.8" y="1342.1999999999998"/>
      <point x="1721.1333333333332" y="1330.6"/>
      <point x="1740.2666666666667" y="1322.2666666666667" type="curve" smooth="yes"/>
      <point x="1762.4" y="1313.6" type="line" smooth="yes"/>
      <point x="1841.2" y="1285.1333333333334"/>
      <point x="1866.6666666666667" y="1228.0"/>
      <point x="1849.6000000000001" y="1155.0" type="curve" smooth="yes"/>
      <point x="1602.6" y="106.66666666666666" type="line"/>
      <point x="1687.3333333333333" y="177.73333333333332" type="line"/>
      <point x="1421.4" y="1238.2666666666669" type="line" smooth="yes"/>
      <point x="1409.4" y="1284.0"/>
      <point x="1416.0666666666666" y="1301.9333333333334"/>
      <point x="1442.4666666666667" y="1310.1333333333334" type="curve" smooth="yes"/>
      <point x="1485.8666666666666" y="1322.0" type="line" smooth="yes"/>
      <point x="1506.8666666666666" y="1329.3999999999999"/>
      <point x="1516.7333333333333" y="1342.0"/>
      <point x="1516.7333333333333" y="1360.4666666666665" type="curve" smooth="yes"/>
      <point x="1516.7333333333333" y="1384.7333333333333"/>
      <point x="1501.4666666666665" y="1400.0"/>
      <point x="1468.1333333333334" y="1400.0" type="curve" smooth="yes"/>
      <point x="901.1999999999999" y="1400.0" type="line" smooth="yes"/>
      <point x="868.9333333333334" y="1400.0"/>
      <point x="852.1333333333333" y="1384.7333333333333"/>
      <point x="852.1333333333333" y="1360.4666666666665" type="curve" smooth="yes"/>
      <point x="852.1333333333333" y="1343.6"/>
      <point x="859.9333333333334" y="1332.5333333333335"/>
      <point x="879.7333333333332" y="1324.6666666666667" type="curve" smooth="yes"/>
      <point x="921.7333333333333" y="1310.1333333333334" type="line" smooth="yes"/>
      <point x="940.4666666666666" y="1302.9333333333334"/>
      <point x="947.6" y="1294.2666666666669"/>
      <point x="960.0666666666667" y="1250.7333333333333" type="curve" smooth="yes"/>
      <point x="1242.3333333333335" y="165.26666666666665" type="line" smooth="yes"/>
      <point x="1251.2" y="133.13333333333333"/>
      <point x="1253.7333333333333" y="122.39999999999999"/>
      <point x="1253.7333333333333" y="103.60000000000001" type="curve" smooth="yes"/>
      <point x="1253.7333333333333" y="39.33333333333333" type="line" smooth="yes"/>
      <point x="1253.7333333333333" y="13.600000000000001"/>
      <point x="1269.6" y="0.0"/>
      <point x="1291.6000000000001" y="0.0" type="curve" smooth="yes"/>
      <point x="1673.7333333333333" y="0.0" type="line" smooth="yes"/>
      <point x="1695.7333333333333" y="0.0"/>
      <point x="1711.6" y="13.600000000000001"/>
      <point x="1711.6" y="39.33333333333333" type="curve" smooth="yes"/>
      <point x="1711.6" y="103.6" type="line" smooth="yes"/>
      <point x="1711.6" y="130.93333333333334"/>
      <point x="1715.1333333333334" y="146.26666666666665"/>
      <point x="1724.1333333333332" y="180.53333333333333" type="curve" smooth="yes"/>
      <point x="1945.6666666666667" y="1142.0" type="line" smooth="yes"/>
      <point x="1966.8666666666668" y="1231.9333333333334"/>
      <point x="2016.0666666666668" y="1282.9333333333334"/>
      <point x="2073.6" y="1308.9333333333334" type="curve" smooth="yes"/>
      <point x="2097.866666666667" y="1320.1333333333332" type="line" smooth="yes"/>
      <point x="2122.4" y="1331.6666666666667"/>
      <point x="2130.6666666666665" y="1341.1333333333332"/>
      <point x="2130.6666666666665" y="1360.0" type="curve" smooth="yes"/>
      <point x="2130.6666666666665" y="1384.2666666666667"/>
      <point x="2114.8666666666663" y="1400.0"/>
      <point x="2080.6666666666665" y="1400.0" type="curve" smooth="yes"/>
      <point x="1762.8" y="1400.0" type="line" smooth="yes"/>
      <point x="1728.6" y="1400.0"/>
      <point x="1712.8" y="1384.2666666666667"/>
    </contour>
  </outline>
</glyph>
<glyph name="X" format="2">
  <advance width="1440.3333333333335"/>
  <unicode hex="0058"/>
  <outline>
    <contour>
      <point x="1287.4666666666667" y="166.93333333333334" type="curve" smooth="yes"/>
      <point x="670.6666666666667" y="1242.9333333333334" type="line" smooth="yes"/>
      <point x="647.155427732147" y="1282.283903380679"/>
      <point x="651.0" y="1300.4"/>
      <point x="683.0" y="1309.0666666666666" type="curve" smooth="yes"/>
      <point x="723.5333333333334" y="1318.5333333333333" type="line" smooth="yes"/>
      <point x="745.1333333333333" y="1324.8"/>
      <point x="752.3333333333334" y="1338.4666666666667"/>
      <point x="752.3333333333334" y="1360.0" type="curve" smooth="yes"/>
      <point x="752.3333333333334" y="1384.2"/>
      <point x="738.7333333333333" y="1400.0"/>
      <point x="703.0" y="1400.0" type="curve" smooth="yes"/>
      <point x="81.46666666666667" y="1400.0" type="line" smooth="yes"/>
      <point x="47.2" y="1400.0"/>
      <point x="30.000000000000004" y="1385.0666666666668"/>
      <point x="30.000000000000004" y="1360.0" type="curve" smooth="yes"/>
      <point x="30.000000000000004" y="1339.7583333333332"/>
      <point x="37.86666666666667" y="1327.9333333333332"/>
      <point x="63.39999999999999" y="1316.3333333333335" type="curve" smooth="yes"/>
      <point x="104.00000000000001" y="1302.9333333333334"/>
      <point x="123.91627617669202" y="1289.3981960767348"/>
      <point x="149.79999999999998" y="1244.3999999999999" type="curve" smooth="yes"/>
      <point x="757.4000000000001" y="186.79999999999998" type="line" smooth="yes"/>
      <point x="789.0" y="133.66666666666663"/>
      <point x="782.1333333333333" y="101.33333333333334"/>
      <point x="723.8" y="85.73333333333335" type="curve" smooth="yes"/>
      <point x="696.8666666666667" y="75.73333333333335"/>
      <point x="685.4000000000001" y="63.60000000000001"/>
      <point x="685.4000000000001" y="40.00000000000001" type="curve" smooth="yes"/>
      <point x="685.4000000000001" y="15.733333333333336"/>
      <point x="701.6666666666666" y="0.0"/>
      <point x="736.8666666666667" y="0.0" type="curve" smooth="yes"/>
      <point x="1377.2666666666667" y="0.0" type="line" smooth="yes"/>
      <point x="1412.4666666666667" y="0.0"/>
      <point x="1428.7333333333333" y="15.733333333333336"/>
      <point x="1428.7333333333333" y="40.00000000000001" type="curve" smooth="yes"/>
      <point x="1428.7333333333333" y="60.93333333333332"/>
      <point x="1415.6666666666667" y="74.66666666666669"/>
      <point x="1390.8666666666666" y="84.13333333333335" type="curve" smooth="yes"/>
      <point x="1344.2" y="98.00000000000001"/>
      <point x="1320.5333333333333" y="111.39999999999999"/>
    </contour>
    <contour>
      <point x="854.4666666666666" y="708.1333333333333" type="line"/>
      <point x="1143.3999999999999" y="1120.8666666666668" type="line" smooth="yes"/>
      <point x="1213.5790835268424" y="1220.7141998705813"/>
      <point x="1257.0856569182206" y="1276.4029343469422"/>
      <point x="1333.8666666666668" y="1312.1333333333334" type="curve" smooth="yes"/>
      <point x="1362.1333333333332" y="1326.8666666666666"/>
      <point x="1378.3999999999999" y="1340.0666666666666"/>
      <point x="1378.3999999999999" y="1361.0666666666666" type="curve" smooth="yes"/>
      <point x="1378.3999999999999" y="1385.3333333333333"/>
      <point x="1362.6" y="1400.0"/>
      <point x="1327.8666666666666" y="1400.0" type="curve" smooth="yes"/>
      <point x="1007.3333333333333" y="1400.0" type="line" smooth="yes"/>
      <point x="974.2" y="1400.0"/>
      <point x="959.4666666666667" y="1384.2666666666667"/>
      <point x="959.4666666666667" y="1360.0" type="curve" smooth="yes"/>
      <point x="959.4666666666667" y="1339.0"/>
      <point x="971.0" y="1325.2666666666667"/>
      <point x="989.6" y="1316.9333333333334" type="curve" smooth="yes"/>
      <point x="1010.1333333333333" y="1308.8" type="line" smooth="yes"/>
      <point x="1071.9272349137425" y="1286.4751628592105"/>
      <point x="1096.4666666666667" y="1228.7333333333333"/>
      <point x="1042.6666666666667" y="1148.8" type="curve" smooth="yes"/>
      <point x="755.7333333333333" y="734.4" type="line"/>
    </contour>
    <contour>
      <point x="602.4666666666666" y="734.0" type="line"/>
      <point x="276.46666666666664" y="268.6" type="line" smooth="yes"/>
      <point x="213.2" y="177.60000000000002"/>
      <point x="167.33333333333334" y="130.53333333333333"/>
      <point x="62.199999999999996" y="84.13333333333335" type="curve" smooth="yes"/>
      <point x="35.0" y="69.93333333333332"/>
      <point x="25.133333333333336" y="58.86666666666665"/>
      <point x="25.133333333333336" y="40.00000000000001" type="curve" smooth="yes"/>
      <point x="25.133333333333336" y="15.733333333333336"/>
      <point x="40.93333333333334" y="0.0"/>
      <point x="75.13333333333333" y="0.0" type="curve" smooth="yes"/>
      <point x="401.8" y="0.0" type="line" smooth="yes"/>
      <point x="434.4" y="0.0"/>
      <point x="449.66666666666663" y="16.26666666666667"/>
      <point x="449.66666666666663" y="40.00000000000001" type="curve" smooth="yes"/>
      <point x="449.66666666666663" y="59.93333333333332"/>
      <point x="440.26666666666665" y="70.46666666666667"/>
      <point x="420.06666666666666" y="79.86666666666665" type="curve" smooth="yes"/>
      <point x="403.26666666666665" y="86.39999999999998" type="line" smooth="yes"/>
      <point x="343.6972203692661" y="108.3241672225535"/>
      <point x="321.44173492935744" y="161.106238823228"/>
      <point x="369.6" y="229.59999999999997" type="curve" smooth="yes"/>
      <point x="700.2" y="699.5999999999999" type="line"/>
    </contour>
  </outline>
</glyph>
<glyph name="Y" format="2">
  <advance width="1358.0666666666668"/>
  <unicode hex="0059"/>
  <anchor x="810.5333333333333" y="1452.0666666666666" name="center"/>
  <outline>
    <contour>
      <point x="896.5999999999999" y="457.6" type="line"/>
      <point x="1167.8" y="1130.4" type="line" smooth="yes"/>
      <point x="1213.8" y="1243.4"/>
      <point x="1256.2666666666667" y="1288.2"/>
      <point x="1305.4666666666667" y="1311.0666666666666" type="curve" smooth="yes"/>
      <point x="1323.3333333333333" y="1319.6" type="line" smooth="yes"/>
      <point x="1342.0163077733753" y="1329.6331897760167"/>
      <point x="1350.8" y="1340.8333333333333"/>
      <point x="1350.8" y="1360.4666666666665" type="curve" smooth="yes"/>
      <point x="1350.8" y="1384.5"/>
      <point x="1335.0" y="1400.0"/>
      <point x="1300.8" y="1400.0" type="curve" smooth="yes"/>
      <point x="987.1999999999999" y="1400.0" type="line" smooth="yes"/>
      <point x="952.4666666666667" y="1400.0"/>
      <point x="936.6666666666666" y="1384.2666666666667"/>
      <point x="936.6666666666666" y="1360.0" type="curve" smooth="yes"/>
      <point x="936.6666666666666" y="1339.0"/>
      <point x="947.6666666666666" y="1325.8000000000002"/>
      <point x="964.6666666666666" y="1318.5333333333333" type="curve" smooth="yes"/>
      <point x="986.2666666666668" y="1309.8666666666668" type="line" smooth="yes"/>
      <point x="1069.035239361657" y="1280.8760948581696"/>
      <point x="1093.0" y="1210.3333333333333"/>
      <point x="1065.4666666666667" y="1140.4666666666667" type="curve" smooth="yes"/>
      <point x="801.5333333333333" y="485.2" type="line"/>
      <point x="892.4666666666667" y="533.4" type="line"/>
      <point x="607.5333333333333" y="1245.0666666666668" type="line" smooth="yes"/>
      <point x="592.3333333333334" y="1282.1333333333334"/>
      <point x="594.0666666666667" y="1296.1333333333332"/>
      <point x="631.4" y="1306.9333333333334" type="curve" smooth="yes"/>
      <point x="671.4" y="1316.4" type="line" smooth="yes"/>
      <point x="696.2" y="1323.7333333333333"/>
      <point x="706.6" y="1338.0"/>
      <point x="706.6" y="1360.4666666666665" type="curve" smooth="yes"/>
      <point x="706.6" y="1384.7333333333333"/>
      <point x="690.3333333333334" y="1400.0"/>
      <point x="655.1333333333333" y="1400.0" type="curve" smooth="yes"/>
      <point x="70.4" y="1400.0" type="line" smooth="yes"/>
      <point x="35.199999999999996" y="1400.0"/>
      <point x="18.933333333333334" y="1384.2666666666667"/>
      <point x="18.933333333333334" y="1360.0" type="curve" smooth="yes"/>
      <point x="18.933333333333334" y="1341.1999999999998"/>
      <point x="29.266666666666666" y="1326.4"/>
      <point x="49.86666666666667" y="1318.5333333333333" type="curve" smooth="yes"/>
      <point x="74.53333333333333" y="1310.2666666666667" type="line" smooth="yes"/>
      <point x="100.80000000000001" y="1301.4666666666667"/>
      <point x="116.19999999999999" y="1289.8"/>
      <point x="134.8" y="1249.7333333333333" type="curve" smooth="yes"/>
      <point x="505.0" y="408.46666666666664" type="line"/>
    </contour>
    <contour>
      <point x="471.46666666666664" y="507.79999999999995" type="line"/>
      <point x="471.46666666666664" y="145.46666666666664" type="line" smooth="yes"/>
      <point x="471.46666666666664" y="120.40000000000002"/>
      <point x="454.93333333333334" y="105.53333333333335"/>
      <point x="422.8" y="96.26666666666668" type="curve" smooth="yes"/>
      <point x="376.4" y="84.13333333333335" type="line" smooth="yes"/>
      <point x="351.06666666666666" y="75.73333333333332"/>
      <point x="341.2" y="61.466666666666654"/>
      <point x="341.2" y="40.00000000000001" type="curve" smooth="yes"/>
      <point x="341.2" y="15.733333333333333"/>
      <point x="357.46666666666664" y="0.0"/>
      <point x="392.66666666666663" y="0.0" type="curve" smooth="yes"/>
      <point x="997.4666666666667" y="0.0" type="line" smooth="yes"/>
      <point x="1032.6666666666667" y="0.0"/>
      <point x="1048.9333333333334" y="15.733333333333333"/>
      <point x="1048.9333333333334" y="40.00000000000001" type="curve" smooth="yes"/>
      <point x="1048.9333333333334" y="61.466666666666654"/>
      <point x="1039.0666666666666" y="75.73333333333332"/>
      <point x="1013.7333333333333" y="84.13333333333335" type="curve" smooth="yes"/>
      <point x="967.3333333333333" y="96.26666666666668" type="line" smooth="yes"/>
      <point x="935.1999999999999" y="105.53333333333332"/>
      <point x="918.6666666666666" y="120.39999999999999"/>
      <point x="918.6666666666666" y="145.46666666666664" type="curve" smooth="yes"/>
      <point x="918.6666666666666" y="512.9333333333333" type="line"/>
    </contour>
  </outline>
</glyph>
<glyph name="Z" format="2">
  <advance width="1261.4666666666665"/>
  <unicode hex="005A"/>
  <anchor x="694.1333333333333" y="1488.9333333333334" name="center"/>
  <outline>
    <contour>
      <point x="1208.8" y="1311.4666666666667" type="line" smooth="yes"/>
      <point x="1222.5333333333333" y="1334.2"/>
      <point x="1229.4666666666667" y="1350.7333333333331"/>
      <point x="1229.4666666666667" y="1363.9333333333332" type="curve" smooth="yes"/>
      <point x="1229.4666666666667" y="1387.2666666666667"/>
      <point x="1214.1333333333334" y="1400.0"/>
      <point x="1187.0666666666666" y="1400.0" type="curve" smooth="yes"/>
      <point x="324.73333333333335" y="1400.0" type="line" smooth="yes"/>
      <point x="252.86666666666665" y="1400.0"/>
      <point x="208.2" y="1426.8"/>
      <point x="177.26666666666665" y="1426.8" type="curve" smooth="yes"/>
      <point x="139.8" y="1426.8"/>
      <point x="121.8" y="1407.0"/>
      <point x="112.86666666666666" y="1360.6666666666667" type="curve" smooth="yes"/>
      <point x="60.199999999999996" y="1019.7333333333333" type="line" smooth="yes"/>
      <point x="54.93333333333333" y="987.6666666666666"/>
      <point x="68.13333333333333" y="970.3333333333334"/>
      <point x="94.53333333333332" y="966.1333333333333" type="curve" smooth="yes"/>
      <point x="115.6" y="963.0"/>
      <point x="137.2" y="967.7333333333332"/>
      <point x="152.33333333333337" y="996.4666666666666" type="curve" smooth="yes"/>
      <point x="178.79999999999998" y="1048.4666666666667" type="line" smooth="yes"/>
      <point x="282.3333333333333" y="1258.3999999999999"/>
      <point x="354.6" y="1312.5333333333333"/>
      <point x="500.9333333333334" y="1312.5333333333333" type="curve" smooth="yes"/>
      <point x="784.1333333333333" y="1312.5333333333333" type="line"/>
      <point x="757.6666666666666" y="1374.8666666666668" type="line"/>
      <point x="28.066666666666674" y="90.93333333333335" type="line" smooth="yes"/>
      <point x="14.800000000000002" y="69.20000000000002"/>
      <point x="8.0" y="52.26666666666666"/>
      <point x="8.0" y="38.06666666666668" type="curve" smooth="yes"/>
      <point x="8.0" y="14.266666666666664"/>
      <point x="21.73333333333333" y="0.0"/>
      <point x="50.26666666666668" y="0.0" type="curve" smooth="yes"/>
      <point x="943.8000000000001" y="0.0" type="line" smooth="yes"/>
      <point x="1015.6666666666667" y="0.0"/>
      <point x="1059.8000000000002" y="-26.8"/>
      <point x="1091.2666666666667" y="-26.8" type="curve" smooth="yes"/>
      <point x="1128.7333333333333" y="-26.8"/>
      <point x="1146.2" y="-6.466666666666667"/>
      <point x="1155.6666666666665" y="39.333333333333336" type="curve" smooth="yes"/>
      <point x="1221.2666666666667" y="434.0" type="line" smooth="yes"/>
      <point x="1227.6" y="462.93333333333334"/>
      <point x="1217.0" y="483.93333333333334"/>
      <point x="1190.1333333333334" y="489.73333333333335" type="curve" smooth="yes"/>
      <point x="1164.4" y="495.46666666666664"/>
      <point x="1143.2666666666667" y="487.1333333333333"/>
      <point x="1131.2666666666667" y="458.8666666666667" type="curve" smooth="yes"/>
      <point x="1107.4" y="404.66666666666663" type="line" smooth="yes"/>
      <point x="982.2" y="140.26666666666665"/>
      <point x="898.1333333333333" y="87.46666666666667"/>
      <point x="751.3333333333333" y="87.46666666666667" type="curve" smooth="yes"/>
      <point x="354.1333333333333" y="87.46666666666667" type="line"/>
      <point x="482.8" y="29.46666666666666" type="line"/>
    </contour>
  </outline>
</glyph>
<glyph name="bracketleft" format="2">
  <advance width="748.9333333333333"/>
  <unicode hex="005B"/>
  <outline>
    <contour>
      <point x="468.0" y="1331.6" type="line" smooth="yes"/>
      <point x="468.0" y="1369.0666666666668"/>
      <point x="485.26666666666665" y="1382.5333333333333"/>
      <point x="527.0" y="1382.5333333333333" type="curve" smooth="yes"/>
      <point x="685.7333333333333" y="1382.5333333333333" type="line" smooth="yes"/>
      <point x="720.2666666666667" y="1382.5333333333333"/>
      <point x="735.8666666666667" y="1397.2"/>
      <point x="735.8666666666667" y="1423.8" type="curve" smooth="yes"/>
      <point x="735.8666666666667" y="1446.8"/>
      <point x="720.7333333333332" y="1464.5333333333333"/>
      <point x="685.7333333333333" y="1464.5333333333333" type="curve" smooth="yes"/>
      <point x="215.73333333333335" y="1464.5333333333333" type="line" smooth="yes"/>
      <point x="168.06666666666666" y="1464.5333333333333"/>
      <point x="150.0" y="1444.3333333333333"/>
      <point x="150.0" y="1396.6666666666665" type="curve" smooth="yes"/>
      <point x="150.0" y="-173.20000000000002" type="line" smooth="yes"/>
      <point x="150.0" y="-220.33333333333331"/>
      <point x="168.06666666666666" y="-241.0666666666667"/>
      <point x="215.73333333333335" y="-241.0666666666667" type="curve" smooth="yes"/>
      <point x="685.7333333333333" y="-241.0666666666667" type="line" smooth="yes"/>
      <point x="720.7333333333332" y="-241.0666666666667"/>
      <point x="735.8666666666667" y="-223.86666666666667"/>
      <point x="735.8666666666667" y="-200.86666666666667" type="curve" smooth="yes"/>
      <point x="735.8666666666667" y="-173.73333333333335"/>
      <point x="720.2666666666667" y="-159.60000000000002"/>
      <point x="685.7333333333333" y="-159.60000000000002" type="curve" smooth="yes"/>
      <point x="527.0" y="-159.60000000000002" type="line" smooth="yes"/>
      <point x="485.26666666666665" y="-159.60000000000002"/>
      <point x="468.0" y="-145.60000000000002"/>
      <point x="468.0" y="-108.13333333333333" type="curve" smooth="yes"/>
    </contour>
  </outline>
</glyph>
<glyph name="asciicircum" format="2">
  <advance width="788.0"/>
  <unicode hex="005E"/>
  <outline>
    <contour>
      <point x="437.7333333333333" y="1330.0" type="line"/>
      <point x="156.39999999999998" y="813.9333333333334" type="line" smooth="yes"/>
      <point x="124.26666666666668" y="770.4666666666667"/>
      <point x="94.66666666666669" y="764.7333333333333"/>
      <point x="68.39999999999999" y="777.0" type="curve" smooth="yes"/>
      <point x="44.93333333333334" y="787.6666666666666"/>
      <point x="40.800000000000004" y="818.0666666666667"/>
      <point x="60.666666666666664" y="853.0" type="curve" smooth="yes"/>
      <point x="303.73333333333335" y="1353.8666666666666" type="line" smooth="yes"/>
      <point x="338.3333333333333" y="1414.4"/>
      <point x="363.46666666666664" y="1426.9333333333334"/>
      <point x="401.20000000000005" y="1426.9333333333334" type="curve" smooth="yes"/>
      <point x="438.9333333333333" y="1426.9333333333334"/>
      <point x="464.0666666666666" y="1414.4"/>
      <point x="498.66666666666674" y="1353.8666666666666" type="curve" smooth="yes"/>
      <point x="727.8" y="848.1333333333333" type="line" smooth="yes"/>
      <point x="746.7333333333333" y="814.6666666666666"/>
      <point x="741.6" y="785.7333333333333"/>
      <point x="719.6" y="775.0666666666667" type="curve" smooth="yes"/>
      <point x="693.3333333333334" y="762.8000000000001"/>
      <point x="662.2666666666667" y="769.0"/>
      <point x="631.0666666666666" y="810.5333333333334" type="curve" smooth="yes"/>
      <point x="365.2" y="1330.0" type="line"/>
    </contour>
  </outline>
</glyph>
<glyph name="underscore" format="2">
  <advance width="929.4"/>
  <unicode hex="005F"/>
  <outline>
    <contour>
      <point x="1.0666666666666669" y="-286.93333333333334" type="curve" smooth="yes"/>
      <point x="1.0666666666666669" y="-322.3333333333333"/>
      <point x="14.666666666666668" y="-341.40000000000003"/>
      <point x="47.46666666666666" y="-341.40000000000003" type="curve" smooth="yes"/>
      <point x="881.9333333333334" y="-341.40000000000003" type="line" smooth="yes"/>
      <point x="913.7333333333332" y="-341.40000000000003"/>
      <point x="927.8000000000001" y="-322.3333333333333"/>
      <point x="927.8000000000001" y="-286.93333333333334" type="curve" smooth="yes"/>
      <point x="927.8000000000001" y="-252.53333333333333"/>
      <point x="913.7333333333332" y="-233.0"/>
      <point x="881.9333333333334" y="-233.0" type="curve" smooth="yes"/>
      <point x="47.46666666666666" y="-233.0" type="line" smooth="yes"/>
      <point x="14.666666666666668" y="-233.0"/>
      <point x="1.0666666666666669" y="-252.53333333333333"/>
    </contour>
  </outline>
</glyph>
